<?xml version="1.0" encoding="utf-8"?>
<!-- Generator: Adobe Illustrator 21.1.0, SVG Export Plug-In . SVG Version: 6.00 Build 0)  -->
<svg version="1.1"
	 id="svg2" inkscape:version="0.48.4 r9939" xmlns:cc="http://creativecommons.org/ns#" xmlns:dc="http://purl.org/dc/elements/1.1/" xmlns:inkscape="http://www.inkscape.org/namespaces/inkscape" xmlns:rdf="http://www.w3.org/1999/02/22-rdf-syntax-ns#" xmlns:svg="http://www.w3.org/2000/svg"
	 xmlns="http://www.w3.org/2000/svg" xmlns:xlink="http://www.w3.org/1999/xlink" x="0px" y="0px" viewBox="0 0 369 472"
	 style="enable-background:new 0 0 369 472;" xml:space="preserve">
<style type="text/css">
	.st0{fill:#cbcbcb;stroke:#ffffff;stroke-linejoin:round;stroke-width:0.5;}
</style>
<path id="AR" inkscape:connector-curvature="0" class="st0" d="M271.8,460.5l0.7-2.4l-5.8-1.2l-6.2-2.9l-3.4-3.7l-2.4-2.2l4.7,10.8
	h4l2.3,0.2l2.6,1.7L271.8,460.5L271.8,460.5z M231.5,294l-5.9-1.2l-3.2,4.6l0.7,1.3l-0.9,5.3l-4.5,2.6l1.3,8.5l-0.7,1.6l1.6,2
	l-2.6,3.2l-2.1,4.7l-0.7,4.6l1.4,5l-1.7,5.2l3.9,8.7l1.3,1l1,4.7l-1.3,5l1.1,4.3l-2.3,3.4l1.2,4.7l2.6,5l-2,1.9l0.2,4.6l0.6,5.1
	l2.6,6.1l-1.3,1l2.9,5.7l2.5,1.8l-0.6,2.1l2.2,1l1,1.8l-1.4,0.9l1.4,3l0.9,6.6l-0.6,4.2l1.4,2.6l-0.1,3.1l-2.2,2.2l2.5,5.3l2.1,1.8
	l2.5-0.3l1.4,3.7l2.8,2.9l9.6,0.6l3.8,0.7l1.8,0.3l-3.8-2.9l-3.3-5l0.7-2.3l2.8-2l0.4-5.8l3.8-2.8l-0.2-4.5l-4.2-1l-5.1-3.6
	l-0.1-3.8l2.3-2.5l3.8-0.1l0.2-2.6l-1-4.9l2.3-3.1l3.3-1.5l-2-2.6l-1.8,1.6l-3.2-1.5l-2-5l1.2-1.3l4.5,1.8l4-0.7l2-1.8l-1.4-2.5
	l-0.1-3.8l-1.6-3l4.6,0.5l8.2-1l5.5-2.7l2.6-6.6l-0.2-2.6l-3.1-2.2l-0.1-3.6l-6.2-4.4l-0.2-2.6l-0.3-3.4l0.7-1.1l-0.9-5l0.2-5.2
	l0.4-4.1l4.7-6.9l4.2-5l2.6-2.1l3.4-2.8l-0.4-4.1l-2.5-3l-2.1,1l-0.2,4.6l-3.4,3.8l-3.4,0.9l-5-0.8l-4.6-1.4l3.4-7.7l-0.9-2.2
	l-4.7-2l-5.8-3.8l-3.7-0.8l-9-8.3l-0.8-1l-5-0.2l-1.3,4.1L231.5,294L231.5,294z"/>
<path id="BZ" inkscape:connector-curvature="0" class="st0" d="M122,100.8l1.1-1.8l0.8-0.2l1-1.4l0.8-2.6l-0.2-0.5l0.7-1.8l-0.3-0.8
	l1-2.2l0.2-1.4h-0.9l0.1-0.7h-0.8l-2,3.1l-0.7-0.6l-0.6,0.2l-0.1,0.8l-0.6,4l-1,5.8L122,100.8L122,100.8z"/>
<path id="BO" inkscape:connector-curvature="0" class="st0" d="M260.6,284.3l1.3-1l-0.6-2.9l1-2.2l0.4-4l-1.3-3.2l-2.6-1.4l-0.6-2.1
	l0.5-2.9l-8.6-0.2l-2.2-5.9l1.3-0.1l-0.2-2.2l-1-1.4l-0.4-3l-2.6-1.5l-2.8,0.1l-2-1.5l-3-1l-1.9-1.9l-5-0.8l-5.1-4.6l0.2-3.4l-0.7-2
	l0.3-3.8l-5.8,0.9l-2.2,1.8l-3.8,2.1l-0.9,1.5l-2.3,0.2l-3.4-0.5l4.4,8.2l-0.9,1.7l0.1,3.6l0.2,4.3l-1.5,2.6l1,1.9l-0.9,1.7l2.2,4.2
	l-2.2,5.5l2.5,3.4l1,3.7l2.6,2.2l-0.9,5l3,5.7l2.5,7l3-0.7l3.2-4.6l5.9,1.2l3,3.7l1.3-4.1l5,0.2l0.8,1l1.2-6.1l-0.2-2.7l1.7-4.5
	l7.6-1.5l4.1,0.1l4.3,2.6L260.6,284.3L260.6,284.3z"/>
<path id="BR" inkscape:connector-curvature="0" class="st0" d="M263.2,172l-1.1,0.2l-2.5-0.4l-1.4,1.4l-2.1,0.9l-1.4,0.2l-0.6,1
	l-2.2-0.2l-2.8-2.4l-0.2-2.3l-1.1-2.6l0.8-4.3l1.3-1.8l-1-2.4l-1.5-0.7l0.6-2.2l-1-1.2l-2.3,0.2l0.6,1.4l-1.7,1.9l-5.1,1.9l-3.2,0.8
	l-1.4,1.2l-3.5-1.3l-3.4-0.6l-0.8,0.5l1.9,1.3l-0.2,3.4l0.6,3.2l3.8,0.4l0.2,1.1l-3.3,1.4l-0.6,2.2l-1.8,0.8l-3.4,1.2l-0.9,1.5
	l-3.5,0.4l-2.4-2.7l-0.9,0.6l-0.8-3l-1.3-1.6l-1.5,1.8l-8.7-0.1v3.1l2.6,0.6l-0.2,1.9l-0.9-0.5l-2.6,0.8v3.7l2,1.9l0.7,2.9l-0.1,2.2
	l-1.8,13.9l-4.1-0.2l-0.6,0.8l-3.7,1l-5,3.4l-0.3,2.4l-1,1.8l0.6,2.7l-2.6,1.5l0.1,2.2l-1.2,0.9l2.1,4.6l2.6,3l-0.8,2.2l3,0.2
	l1.8,2.7l3.9,0.2l3.5-3l0.2,7.8l2.1,0.6l2.4-0.9l3.4,0.5l2.3-0.2l0.9-1.5l3.8-2.1l2.2-1.8l5.8-0.9l-0.3,3.8l0.7,2l-0.2,3.4l5.1,4.6
	l5,0.8l1.9,1.9l3,1l2,1.5l2.8-0.1l2.6,1.5l0.4,3l1,1.4l0.2,2.2l-1.3,0.1l2.2,5.9l8.6,0.2l-0.5,2.9l0.6,2.1l2.6,1.4l1.3,3.2l-0.4,4
	l-1,2.2l0.6,2.9l-1.3,1l1.5,2.9l0.3,6.9l4.8,1l1.7-1l3.1,1.4l1,1.5l0.8,4.6l0.7,2l1.6,0.2l1.6-0.9l1.7,1l0.2,2.8l-0.2,3l-0.6,2.9
	l2.1-1l2.5,3l0.4,4.1l-3.4,2.8l-2.6,2.1l-4.2,5l-4.7,6.9l2.7-0.6l5,3.9l1.5-0.2l5,3.3l3.8,2.8l3,3.4l-1.5,2.4l1.7,3l2.3-3l1.2-4.8
	l2.6-2.4l3.1-4l3.6-9l2.7-2.8l0.6-2.5l0.2-5.1l-1-2.8l0.2-3.8l3.3-5l4.8-4.1l4.8-1.4l2.9-2.3l6.8-1.9h4.7l0.9-3l3.4-2.2l0.5-5.2
	l4.1-6.6l0.4-6.8l1.3-2.1l0.2-3.3l0.9-7.9l-0.8-9.5l1.1-3.8l1.1-0.1l3.1-4.4l2.6-5.8l6.2-7l2.2-3.4l1.6-8.4l-0.8-3.1l-1.6-6.5
	l-1.7-1.6l-3.8-0.2l-3.4-1.5l-5.8-5.7l-6.7-4.2l-6.7,0.2l-8.7-2.7l-5.2,1.6l0.6-2.8l-2.2-3l-7.5-3l-5.7-1.8l-3.4,3.3l-0.2-5
	l-7.9-0.8l-1.4-1.6l3.4-4.2l-0.1-3.5l-2.4-0.8l-2.4-9l-1-2.8l-1.5,0.2l-2.8,4.6l-1.4,3.8l-1.7,1.9l-2.2,0.4l-0.6-1.4l-1-0.2
	l-1.4,1.4l-1.9-1l-2.6-1.1l-2.2,0.6l-1.8-0.5l-0.4,1.4l0.7,1l-0.4,1L263.2,172L263.2,172z"/>
<path id="CL" inkscape:connector-curvature="0" class="st0" d="M254.7,448.1l-3-0.6l-2.6,2l0.2,3.3l-1,2.2l-5.8-1.8l-6.9-3.2l-3.6-1
	l7.8,5.4l5,2.6l6,2.7l4.2,0.7l3.4,1.4l2.4,0.4l1.8,0.1l2.6-1.4l0.4-1.9l-2.3-0.2h-4L254.7,448.1L254.7,448.1z M216.9,291l-3-5.7
	l0.9-5l-2.6-2.2l-1-3.7l-2.5-3.4l-1,2.6l-2.2,1.3l1.7,7.2l1.2,8.3l-0.1,11.4v10.6l0.7,9.8l-1.5,6.2l1.7,6.2L209,339l2.6,7.6
	l-0.1,7.6l-1,8.2l-0.5,8.4l-1.7,0.2l1.9,5.8l2.6,5l-0.9,3.4l1.5,9.3l1.2,7l2.8,0.7l-0.9-6.2l3.2,1.3l1.4,10.2l-5.1-1.7l1.6,8.2
	l-2.2,4.4l6.6,1.4l-2.7,3.8l0.2,4.8l4,8.5l3.4,3.3l0.2,2.9l2.6,3l6,2.8l0,0l5.9,3.4l5,1.6l1.6-0.1l-1.4-4.6l2.7-1.8l1.4-1.2h3.4
	l-3.8-0.7l-9.6-0.6l-2.8-2.9l-1.4-3.7l-2.5,0.3L232,437l-2.5-5.3l2.2-2.2l0.1-3.1l-1.4-2.6l0.6-4.2l-0.9-6.6l-1.4-3l1.4-0.9l-1-1.8
	l-2.2-1l0.6-2.1l-2.5-1.8l-2.9-5.7l1.3-1l-2.6-6.1l-0.6-5.1l-0.2-4.6l2-1.9l-2.6-5l-1.2-4.7l2.3-3.4l-1.1-4.3l1.3-5l-1-4.7l-1.3-1
	l-3.9-8.7l1.7-5.2l-1.4-5l0.7-4.6l2.1-4.7l2.6-3.2l-1.6-2l0.7-1.6l-1.3-8.5l4.5-2.6l0.9-5.3l-0.7-1.3l-3,0.7L216.9,291L216.9,291z"
	/>
<path id="CO" inkscape:connector-curvature="0" class="st0" d="M198.6,121.7l1-1.7l-1-1.4l-1.6-0.3l-2.3,2.5l-1.8,1.1l-3.7,2.6
	l-3.4-0.4l-0.4,1l-2.9,0.1l-2.6,2.4l-1.1,4.3l-0.1,1.7l-1.9,0.6l-3.5,3.5l-2.3-0.2l-0.6,0.7l0.9,3l-0.9,1.5l-1.4-0.4l-0.7,2.5
	l1.8,2.7l0.5,4.3l-1,1.3l0.9,4.7l-1,3l1.6,1.2l-1.8,2.6l-2,3.2l-2.2,0.3l-1.1,1.8l0.2,2.6l-1.7,0.4l0.6,1.6l4.5,2.9l0.8-0.1l1.1,2.2
	l3.8,0.7l1.3-0.8l2.2,1.7l1.9,1.2l1.2-0.5l3,2.4l1.4,2.4l2.2,1.4l2.7,5.4l3.4,0.6l2.4-1.4l1.7,0.9l2.6-0.5l3.5,2.4l-2.8,5.2l1.4,0.1
	l2.3,2.7l1.8-13.9l0.1-2.2l-0.7-2.9l-2-1.9v-3.7l2.6-0.8l0.9,0.5l0.2-1.9l-2.6-0.6v-3.1l8.7,0.1l1.5-1.8l1.3,1.6l0.8,3l0.9-0.6
	l-1.4-5.1l-1.1-1.8l-1.6-1.1l2.3-2.5l-0.2-1.2l-1.2-1.5l-0.8-3.4l0.4-3.7l1-1.7l1-2.7l-1.6-0.9l-2.6,0.6l-3.2-0.2l-1.8,0.6l-3-4.4
	l-2.6-0.6l-5.8,0.5l-1-1.8l-1-0.5l-0.2-1l0.6-1.9l-0.3-2l-0.9-1.1l-0.5-2.3L189,135l1.4-3l0.7-3.6l1.4-1.9l1.8-1.4l1.3-2.6
	L198.6,121.7L198.6,121.7z"/>
<path id="CR" inkscape:connector-curvature="0" class="st0" d="M143.3,126l-1.1,1l-1.4-0.3l-0.6-1l-1.4-0.4l-1.1,0.6l-2.8-1.4
	l-0.7,0.6l-1.1,1l1.2,0.7l-0.7,1.6l-0.1,1.6l0.6,1l1.4,0.5l1,1.4l1-1.3l-0.2-1.4l1.1,0.9l0.2,1.5l1.5,0.6l1.7,1l1.2,1.2l0.1,1.1
	l-0.6,0.9l0.9,1l2.3,1.1l0.3-1l0.4-1l-0.1-1l0.6-0.6l-0.9-0.8l0.1-2l1.8-0.5l-1.9-2.2l-1.6-2.1L143.3,126L143.3,126z"/>
<path id="CU" inkscape:connector-curvature="0" class="st0" d="M167.2,65.7l-3.9-1.7l-3.4-0.1l-3.8-0.4l-1.1,0.6l-3.4,0.5l-2.4,1
	l-2.2,1.1l-1.2,1.8l-2.5,1.6l1.8,0.5l2.3-0.6l0.7-1.3l1.8-0.1l3.5-2.6l4.3,0.2l-1.8,1.3l1.4,1l5.6,0.8l1.2,1l3.9,1.4l2.6-0.2
	l0.6,2.9l1.4,1.4l2.8,0.3l1.7,1.4l-3.3,2.8l6.3-0.5l3,0.4l3-0.2l3-0.6l0.6-1.2l-3.1-2.1l-3.2-0.2l0.5-1.4l-2.5-1h-1.5l-2.4-2.2
	l-3.4-3.2l-1.4-1.2l-4.2,0.6L167.2,65.7L167.2,65.7z"/>
<path id="DO" inkscape:connector-curvature="0" class="st0" d="M199.7,89.8v1.4l1.1,0.8l2.1-3.5l1.6-0.7l0.5,1.3l1.8-0.3l0.9-1
	l1.4,0.2l2.1-0.2l2,1l1.8-2.1l-2-1.8l-1.9-0.2l0.2-1.5l-2.4,0.1l-0.6-1.8l-1.1,0.1l-2.5-1.3l-3.5-0.1l-0.6,0.9l0.2,2.8l-0.6,1.9
	l-1.2,0.9l1,1.5L199.7,89.8L199.7,89.8z"/>
<path id="EC" inkscape:connector-curvature="0" class="st0" d="M178.5,182.4l-1.9-1.2l-2.2-1.7l-1.3,0.8l-3.8-0.7l-1.1-2.2l-0.8,0.1
	l-4.5-2.9l-3.1,2l-2.5,1.1l0.3,2.1l-1.8,3.3l-0.8,3.1l-1.5,0.8l0.8,4.6l-0.9,1.4l2.7,2.2l1.7-2.3l1,2.2l-2.3,3.8l0.6,2.2l-1.2,1.2
	l0.2,1.8l1.8-0.4l1.8,0.6l2,2.6l2.5-2.1l0.7-3.4l2.6-4.4l5.4-2l4.8-5.4l1.4-3.3L178.5,182.4z"/>
<path id="GT" inkscape:connector-curvature="0" class="st0" d="M122.2,91l-4.1-0.1H114l-0.3,2.9h-2.1l1.4,1.7l1.5,1.2l0.4,1.1
	l0.6,0.3l-0.3,1.7h-5.7L107,104l0.6,1l-0.6,1.2l-0.3,1.5l2.2,2.1l2,1l2.7,0.1l2.2,0.9l0.2-0.8l1.7-1.3l0.9-0.6l-0.2-0.6l1.1-0.3
	l1-1.3l-0.2-1l0.4-1l2.2-1.4l2.2-1.9l-1.2-0.6l-0.5,0.7l-1.4-0.9h-1.3l1-5.8L122.2,91L122.2,91z"/>
<path id="GY" inkscape:connector-curvature="0" class="st0" d="M260.9,151.3l-1.7-1.8l-2.3-2.5l-1.7-0.1l-0.1-2.6l-2.6-3.3l-2.9-1.9
	l-3.7,3l-0.5,1.8l1.5,1.8l-1.2,1l-2.7,0.9v2.3l-1.3,1.4l3,3.8l2.3-0.2l1,1.2l-0.6,2.2l1.5,0.7l1,2.4l-1.3,1.8l-0.8,4.3l1.1,2.6
	l0.2,2.3l2.8,2.4l2.2,0.2l0.6-1l1.4-0.2l2.1-0.9l1.4-1.4l2.5,0.4l1.1-0.2l-2.6-4.5l-0.6-2.8l-1.4-0.1l-1.9-3.7l0.9-2.6l-0.2-1.2
	l2.8-1.3L260.9,151.3L260.9,151.3z"/>
<path id="HN" inkscape:connector-curvature="0" class="st0" d="M147.3,105.3l-1-1.4l-1.5-0.8l-1.2-1.1l-1.3-1l-0.6-0.1l-2-0.7
	l-0.9,0.4l-1.2,0.2l-1-0.3l-1.4-0.3l-0.6,0.6l-1.4,0.6l-2.1,0.2l-2-0.5l-0.7,0.3l-0.4-0.5l-1.3,0.1l-1,0.9l-0.5-0.2l-2.2,1.9
	l-2.2,1.4l-0.4,1l0.2,1l-1,1.3l1.2,0.4l0.9,1l1.3,0.8l0.1,0.7l2-0.6l0.9,0.4l0.6,0.6l-0.5,2l1.4,0.5l0.6,1.6l1.4-0.2l0.6-1.2h0.6
	l0.2-2.5l1-0.2h1l1.1-1.4l1.2,1l0.5-0.6l0.9-0.6l1.7-1.4l0.2-1l0.4,0.1l0.6-1.2l0.5-0.2l0.7,0.7l0.9,0.2l1-0.6h1.1l1.6-0.6l0.7-0.7
	L147.3,105.3L147.3,105.3z"/>
<path id="HT" inkscape:connector-curvature="0" class="st0" d="M200.5,81.3l-3.7-0.8l-2.7-0.2l-1.1,1.4l2.7,0.8l-0.2,1.9l1.8,2.2
	l-1.7,1.1l-3.4-0.4l-4-0.7l-0.6,1.7l2.2,1.5l2.2-0.9l2.6,0.3l2.2-0.3l2.9,0.9l0.2-1.4l-1-1.5l1.2-0.9l0.6-1.9L200.5,81.3z"/>
<path id="JM" inkscape:connector-curvature="0" class="st0" d="M176.6,90.7l3.1-0.1l-0.6-1.4l-2.2-1.2l-3-0.5l-1-0.2l-1.9,0.3
	l-0.6,1.2l2.3,1.8l2.4,0.8L176.6,90.7L176.6,90.7z"/>
<path id="MX" inkscape:connector-curvature="0" class="st0" d="M91.5,50.1L88.6,49l-3.1-1.6L84.9,45l-0.2-3.6l-1.9-2.9l-0.8-3
	l-1.3-3.5l-2.5-2l-3.5,0.1l-3.8,4l-3.2-1.5l-1.8-1.5l-0.3-2.8L65,25.7L63,23.4l-1.7-1.6l-1-1.8h-7.4l-0.6,2.1h-3.4h-8.6l-8.6-3.5
	L26,16.1l0.8-1l-5.6,0.6l-5,0.4l0.2,4.6l0.6,4.1l0.6,3.3l0.6,3.2l2.1,1.4l2.3,3.6l-0.8,2.3l-2.2,1.8l-1.7-0.2l-0.5,0.4l1.8,3
	l2.3,1.2l0.8,1.4l0.7-0.7l2.5,2.3l1.7,1.6l0.1,2.7l-1,3.8l2,1.3l2.6,2.5l2.3,2.9l0.6,3.1h0.8l2.2-1.8l0.3-1l-1.2-2.2l-1.3-2.3
	L32.6,58l0.3-2.7l-0.7-2.4l-0.8-2.2L31,45.9l-2.1-2.6l-0.5-1.8l-1-1.3v-3.3L26.6,37l-0.1-1.8L26,34.9l-0.3-1.1l-2.2-3.5l-0.9-2.1
	l0.8-3.8l0.1-2.4l1.4-2.1l1.9,1.4l1.5-0.2l2.5,2l-0.7,1.9l0.3,3.9l1.2,3.8l-0.3,1.6l1.4,2.5l1.8,2.7l2.2,0.4l0.2,3.5l1.9,2.5l2,1.2
	l-1.4,3.2l0.6,1.2l3.3,2.1l1.5,3.2l3.6,3.9l3,5.1l1,2.6v2l1.1,2.3l-0.2,1.8l-1.3,1.3l0.2,1.4l-1.5,0.6l0.6,2.5l1.8,3.2l4.2,2.9
	l1.5,2.3l4.3,1.6l2.4,0.3l1,1.4l3.4,2.4l4.7,2.4l3.2,0.7l3.8,2.3l3.2,1l3,1.4l2.3-0.6l3.8-1.9l2.5-0.3l3.5,1.3l2.1,1.7l4.4,5.5
	l0.3-1.5l0.6-1.2l-0.6-1l2.6-4.2h5.7l0.3-1.7l-0.6-0.3l-0.4-1.1l-1.5-1.2l-1.4-1.7h2.1l0.3-2.9h4.2l4.1,0.1l0.1-0.8l0.6-0.2l0.7,0.6
	l2-3.1h0.8l1-0.1l1,1.3l1.6-4l1-2.2l-0.7-0.9l1.4-3.1l2.8-3l0.5-2.5l-1-1l-2.7,0.4l-3.8-0.2l-4.8,1.2l-3.2,1.4l-1,1.4l-1,4.3l-1.4,3
	l-3.1,2.1l-2.9,0.9l-3.4,0.9l-3.4,0.5L99,89.3l-1.5-2.1L93,85.8l-1.4-2.6L91,80.4l-2.4-3.8l-0.3-4l-1-2.5L87,67.4l0.9-2.5l1.4-6.9
	l1.4-3.6l2.5-4.5L91.5,50.1L91.5,50.1z"/>
<path id="NI" inkscape:connector-curvature="0" class="st0" d="M147.3,105.3l-1.5-0.2l-0.7,0.7l-1.6,0.6h-1.1l-1,0.6l-0.9-0.2
	l-0.7-0.7l-0.5,0.2l-0.6,1.2l-0.4-0.1l-0.2,1l-1.7,1.4l-0.9,0.6l-0.5,0.6l-1.2-1l-1.1,1.4h-1l-1,0.2l-0.2,2.5h-0.6l-0.6,1.2
	l-1.4,0.2l-0.3,0.3l-0.7-0.8l-0.6,0.8l2.1,2.3l1.8,1.6l0.8,1.7l2,2.1l1.4,1.6l0.7-0.6l2.8,1.4l1.1-0.6l1.4,0.4l0.6,1l1.4,0.3l1.1-1
	l-0.6-0.9l-0.1-1.4l1-1.3l-0.2-1.4l0.6-2.2l0.7-0.6l0.1-2.2l-0.2-1.4l0.3-2.2l0.7-2l1.1-1.8l-0.2-1.8l0.3-1.1L147.3,105.3
	L147.3,105.3z"/>
<path id="PA" inkscape:connector-curvature="0" class="st0" d="M170.8,137.5l-1.6-1.4l-1.4-1.5l-2-0.9l-2.5-0.2l0.2-0.5l-2.5-0.3
	l-1.6,1.5l-2.8,1l-2,1.3l-2.2,0.4l-1.2-1.3l-0.4,0.4l-1.8-0.2l0.2-1l-1.5-1.8l-1.8,0.5l-0.1,2l0.9,0.8l-0.6,0.6l0.1,1l-0.4,1l-0.3,1
	l0.5,0.8l0.2-1.1h1.9l1.1,0.6l1.8,0.4l0.8,2l1.4,0.3l0.6-0.9l0.6,3l2.1-0.2l0.7-0.7l1.2-0.7l-2-2.7l0.5-1l1-0.2l1.8-1.3l1-1.8l2-0.3
	l2.2,1.4l0.8,1.7l1.1,0.3l-1.2,1.4l0.8,2.8l1.4,1.4l0.7-2.5l1.4,0.4l0.9-1.5l-0.9-3L170.8,137.5z"/>
<path id="PE" inkscape:connector-curvature="0" class="st0" d="M203.4,203.5l-2.3-2.7l-1.4-0.1l2.8-5.2l-3.5-2.4l-2.6,0.5l-1.7-0.9
	l-2.4,1.4l-3.4-0.6l-2.7-5.4l-2.2-1.4l-1.4-2.4l-3-2.4l-1.2,0.5l0.6,3.9l-1.4,3.3l-4.8,5.4l-5.4,2l-2.6,4.4l-0.7,3.4l-2.5,2.1
	l-2-2.6l-1.8-0.6l-1.8,0.4l-0.2-1.8l1.2-1.2l-0.6-2.2l-3.5,3.2l-1.3,3.6l2.4,4.9l-1.4,2.2l3.3,2.1l3.6,3.3l1.6,3.8l1.9,2.3l4.8,10.2
	l5,9.4l4.3,6.7l-0.6,1.4l2.2,4.2l3.7,3.1l8.6,5.5l9.3,5.1l0.6,2.1l4.7,3l2.2-1.3l1-2.6l2.2-5.5l-2.2-4.2l0.9-1.7l-1-1.9l1.5-2.6
	l-0.2-4.3l-0.1-3.6l0.9-1.7l-4.4-8.2l-2.4,0.9l-2.1-0.6l-0.2-7.8l-3.5,3l-3.9-0.2l-1.8-2.7l-3-0.2l0.8-2.2l-2.6-3l-2.1-4.6l1.2-0.9
	l-0.1-2.2l2.6-1.5l-0.6-2.7l1-1.8l0.3-2.4l5-3.4l3.7-1l0.6-0.8L203.4,203.5L203.4,203.5z"/>
<path id="PY" inkscape:connector-curvature="0" class="st0" d="M260.6,284.3l-0.2-1.5l-4.3-2.6l-4.1-0.1l-7.6,1.5l-1.7,4.5l0.2,2.7
	l-1.2,6.1l9,8.3l3.7,0.8l5.8,3.8l4.7,2l0.9,2.2l-3.4,7.7l4.6,1.4l5,0.8l3.4-0.9l3.4-3.8l0.2-4.6l0.6-2.9l0.2-3l-0.2-2.8l-1.7-1
	l-1.6,0.9l-1.6-0.2l-0.7-2l-0.8-4.6l-1-1.5l-3.1-1.4l-1.7,1l-4.8-1l-0.3-6.9L260.6,284.3L260.6,284.3z"/>
<path id="SV" inkscape:connector-curvature="0" class="st0" d="M125.8,113.5l0.5-2l-0.6-0.6l-0.9-0.4l-2,0.6l-0.1-0.7l-1.3-0.8
	l-0.9-1l-1.2-0.4l-1.1,0.3l0.2,0.6l-0.9,0.6l-1.7,1.3l-0.2,0.8l1.1,1l2.5,0.3l1.8,1l1.5,0.5l2.6,0.1L125.8,113.5L125.8,113.5z"/>
<path id="SR" inkscape:connector-curvature="0" class="st0" d="M270.4,150.9l-3.7,0.4l-0.5,0.9l-5.4-1l-0.8,4.6l-2.8,1.3l0.2,1.2
	l-0.9,2.6l1.9,3.7l1.4,0.1l0.6,2.8l2.6,4.5l2.5,0.4l0.4-1l-0.7-1l0.4-1.4l1.8,0.5l2.2-0.6l2.6,1.1l1.1-2.2l0.5-2.3l0.8-2.2l-1.7-3
	l-0.3-3.5l2.5-4.4L270.4,150.9L270.4,150.9z"/>
<path id="UY" inkscape:connector-curvature="0" class="st0" d="M290,353.5l-1.7-3l1.5-2.4l-3-3.4l-3.8-2.8l-5-3.3l-1.5,0.2l-5-3.9
	l-2.7,0.6l-0.4,4.1l-0.2,5.2l0.9,5l-0.7,1.1l0.3,3.4l3.1,2.8l2.9-0.2l4.3,2.2l2.2-0.5l3.4,1l4.2-2.8L290,353.5L290,353.5z"/>
<path id="US" inkscape:connector-curvature="0" class="st0" d="M4.4-0.9l1.5,3.6L5.3,5.5l0.8,0.8l3.7,0.6l1,1.4L13,8.5L13,10
	l1.8,0.6l1.7,3l-0.2,2.6l5-0.4l5.6-0.6l-0.8,1l5.7,2.5l8.6,3.5h8.6h3.4l0.6-2.1h7.4l1,1.8l1.7,1.6l1.9,2.2l0.6,2.6l0.3,2.8l1.8,1.5
	l3.2,1.5l3.8-4l3.5-0.1l2.5,2l1.3,3.5l0.8,3l1.9,2.9l0.2,3.6l0.6,2.4l3.1,1.6l2.9,1.1l1.7-0.2l-0.5-1.8l0.3-2.5l0.8-3.5l1.5-2.2
	l3-2.5l4.8-2.2l4.9-3.8l3.9-1.2l2.8-0.3l2.8,1.1l3.9-0.6l2.6,2.7l3,0.2l1.9-1l1.4,0.7l1-0.6l-0.7-1l0.6-2l-0.4-1.4l1.9-0.8l3.4-0.3
	l3.8,0.6l5-0.6l2.4,1.2l1.6,2.4l0.7,0.2l4.9-2.3l1.5,0.8l2.4,4.2l0.6,2.8l-1.6,3.4l0.3,2l1.3,3.9l1.6,4.4l1.4,1.1l0.3,2.2l2.1,0.6
	l1.4-0.6l1.6-3.1l0.6-2l0.7-3.4l-1-5.9l0.4-2.2l-1.2-3.6l-0.6-4.3l0.1-3.5l1.4-3.6l2.8-3l3-2.4l5.5-3.3l1-1.8l2.6-1.8l2.2-0.3l3.5-3
	l4.8-1.5l5.1-5.3L4.4-0.9z"/>
<path id="VE" inkscape:connector-curvature="0" class="st0" d="M249.6,139l-1.8-1.2l-2.3,0.2l-0.6-4.1l-3.3-2.6l-3.5-0.3l-1.4-2.4
	l3.8-1.5l-5.4,0.1l-5.5,0.3l-0.2,1.3l-2.6,1.5l-3.4-0.6l-2.5-2.3l-4.8,0.6l-4-0.1l-0.1-1.7l-2.8-2.8l-3.1-0.1l-1.4-3.6l-1.7,1.6
	l0.5,2.4l-5.7,2.1v3.8l1.3,1.8l-1.2,3.7l-1.9,0.3l-1.5-4l2.2-3l0.2-2.6l-1.4-2.3l2.6-0.6l0.2-1.2l-3,0.9l-1.3,2.6l-1.8,1.4l-1.4,1.9
	l-0.7,3.6l-1.4,3l2.3,0.4l0.5,2.3l0.9,1.1l0.3,2l-0.6,1.9l0.2,1l1,0.5l1,1.8l5.8-0.5l2.6,0.6l3,4.4l1.8-0.6l3.2,0.2l2.6-0.6l1.6,0.9
	l-1,2.7l-1,1.7l-0.4,3.7l0.8,3.4l1.2,1.5l0.2,1.2l-2.3,2.5l1.6,1.1l1.1,1.8l1.4,5.1l2.4,2.7l3.5-0.4l0.9-1.5l3.4-1.2l1.8-0.8
	l0.6-2.2l3.3-1.4l-0.2-1.1l-3.8-0.4l-0.6-3.2l0.2-3.4l-1.9-1.3l0.8-0.5l3.4,0.6l3.5,1.3l1.4-1.2l3.2-0.8l5.1-1.9l1.7-1.9l-0.6-1.4
	l-3-3.8l1.3-1.4v-2.3l2.7-0.9l1.2-1l-1.5-1.8l0.5-1.8L249.6,139L249.6,139z"/>
<path id="GF" inkscape:connector-curvature="0" class="st0" d="M281.1,168.9l1.4-3.8l2.8-4.6l-0.7-2.1l-4.6-4.3l-3.3-1.2l-1.5-0.6
	l-2.5,4.4l0.3,3.5l1.7,3l-0.8,2.2l-0.5,2.3l-1.1,2.2l1.9,1l1.4-1.4l1,0.2l0.6,1.4l2.2-0.4L281.1,168.9z"/>
<path id="AW" inkscape:connector-curvature="0" class="st0" d="M205.3,118.2L205.3,118.2l-0.3-0.6l-0.2-0.2l-0.1,0.1l-0.1,0.2
	l0.2,0.2l0.2,0.3l0.2,0.1L205.3,118.2L205.3,118.2z"/>
<path id="AI" inkscape:connector-curvature="0" class="st0" d="M238.3,88.9l0.1-0.2l-0.2-0.1l-0.6,0.4v0.1L238.3,88.9z"/>
<path id="AG" inkscape:connector-curvature="0" class="st0" d="M243.4,94.9l0.2-0.1v-0.1v-0.2l-0.1-0.1l-0.1-0.2l-0.3-0.2l-0.4,0.4
	v0.2l0.1,0.2l0.5,0.1L243.4,94.9L243.4,94.9z M243.6,92.1v-0.4l-0.1-0.2h-0.2l-0.1-0.1h-0.1l-0.1,0.1l0.1,0.5l0.4,0.2L243.6,92.1
	L243.6,92.1z"/>
<path id="BS" inkscape:connector-curvature="0" class="st0" d="M195.5,73.7l0.2-0.5l-0.2-0.1l-0.4,0.6l-0.5,0.2h-0.2l-0.6-0.2h-0.4
	l-0.3,0.4l-0.5,0.1l0.1,0.1v0.2l-0.2,0.2v0.2l0.1,0.2l1.2-0.1l1-0.2l0.6-0.7L195.5,73.7z M196.2,72.1l-0.3-0.2l-0.3,0.2l0.1,0.2
	L196.2,72.1L196.2,72.1z M196.2,67.5l-0.3-0.2l-0.2,0.4l0.2,0.1l0.6-0.1l0.4,0.1l0.4,0.3l0.2-0.2l-0.1-0.1l-0.3-0.2l-0.5-0.1h-0.2
	L196.2,67.5L196.2,67.5z M190.9,68.5l0.6-0.5l0.6-0.2l0.7-0.9l-0.1-0.7l0.2-0.3l-0.5,0.1l-0.1,0.2l-0.1,0.2l0.2,0.3v0.2l-0.2,0.3
	l-0.2,0.1l-0.1,0.2l-0.2,0.1l-0.3,0.4l-0.6,0.5l-0.2,0.2L190.9,68.5L190.9,68.5z M191.8,66l-0.5-0.2l-0.2-0.3l-0.3-0.1l-0.1,0.2v0.2
	l0.1,0.3L191,66l0.6,0.3l0.3-0.2L191.8,66z M188.6,65.1v-0.6l-0.3-0.4l-0.5-0.3l-0.1-1l-0.2-0.6l-0.2-0.5l-0.3-0.6v0.4l0.1,0.1
	l0.1,0.5l0.3,0.7l0.1,0.3l-0.1,0.3l-0.3,0.1l-0.1,0.2l0.4,0.2l0.6,0.2l0.4,1L188.6,65.1L188.6,65.1z M185.3,62.3l-0.4-0.2l-0.2-0.2
	l-0.6-0.6l-0.2-0.1l-0.2,0.3l0.3,0.1l0.7,0.6l0.3,0.2L185.3,62.3L185.3,62.3z M191.1,59.1l-0.1-0.2H191l-0.2,0.1l-0.2,0.7h0.2
	L191.1,59.1L191.1,59.1z M177,58.2l-0.2-0.2l-0.2,0.2h-0.4l-0.2,0.1h-0.3l-0.2,0.2l0.3,0.6l0.2,0.2l0.1,0.8l0.2,0.1l-0.1,0.6
	l0.9,0.1l0.3-0.6v-0.2v-0.1v-0.2v-0.2v-0.7l-0.2-0.4l-0.3,0.5l-0.3-0.2L177,58.2L177,58.2L177,58.2z M187.4,58.5l-0.8-1.1v-0.2
	l-0.4-1.2l-0.2-0.1l-0.1,0.1l-0.1,0.2l0.3,0.3v0.3l0.2,0.2l0.3,0.9l0.3,0.3l-0.1,0.2l-0.3,0.2l-0.1,0.2h0.1l0.5-0.1h0.3L187.4,58.5
	L187.4,58.5z M179,54.3l0.4-0.2l0,0l-0.2-0.2h-0.6l-0.3,0.1l-0.2,0.2l0.1,0.1l0.3,0.1L179,54.3L179,54.3z M177,55.9l-0.4-0.5
	l-0.2-0.7l-0.2-0.3l0.1-0.4l-0.2-0.3l-0.5-0.3l-0.2,0.1l0.1,0.9l-0.2,0.5l-0.6,0.9l0.1,0.3l0,0l0.1,0.2l-0.4,0.3v-0.2l-0.5,0.1
	l0.2,0.4l0.5,0.3l0.2,0.1l0.2-0.2v0.4l0.2,0.3l0.1,0.3l0.2-0.2l0.5-0.2l0.2-0.2l0.6-0.3v-0.2l0.1-0.5L177,55.9L177,55.9z
	 M182.4,51.9l-0.2-0.4l-0.1,0.1l-0.1,0.3l-0.2,0.3l0.4-0.1l0.3,0.1l0.5,0.4l0.6,0.2l0.2,0.5l0.5,0.5v0.5l-0.3,0.5l-0.1,0.6l-0.5,0.1
	l0.1,0.1l0.2,0.2l0.1,0.3l0.2,0.2v-0.6l0.2-0.6l0.3-1l-0.1-0.2l-0.2-0.2l-0.6-0.7l-0.6-0.2L182.4,51.9L182.4,51.9z M175.4,45.6
	l-0.4-0.3l-0.2,0.3v0.1l-0.1,0.2l-0.4,0.3l-0.4,0.1l-0.6-0.5l-0.2-0.1l0.6,0.9l0.2,0.1h0.3l0.7-0.2l1.3-0.4l1.4-0.2l0.1-0.2
	l-0.1-0.2l-0.6,0.2l-0.8-0.1l-0.2,0.2h-0.3L175.4,45.6z M180.2,49.7l0.2-0.2l0.3-1.4l0.6-0.5l0.1-1l-0.4-0.4l-0.3-0.2l-0.1-0.2
	l0.1-0.2l-0.2-0.1l-0.2-0.2L180,45l-0.3-0.3l-0.6-0.1l-0.5-0.1l-0.3-0.1l-0.4,0.2h0.6l1.2,0.2l0.6,1.2l0.4,0.3l0.1,0.3l-0.2,0.3v0.3
	l-0.2,0.4l-0.1,0.6l-0.2,0.3l-0.6,0.4l0.3,0.2l0.2,0.5L180.2,49.7L180.2,49.7z"/>
<path id="BM" inkscape:connector-curvature="0" class="st0" d="M240.2,17.3l0.3-0.5h-0.1l-0.4,0.4l-0.5,0.2l0.1,0.1h0.1L240.2,17.3z
	"/>
<path id="BB" inkscape:connector-curvature="0" class="st0" d="M251.9,115l0.3-0.3l-0.2-0.2l-0.5-0.6l-0.2,0.1v0.8l0.1,0.2l0.4,0.2
	L251.9,115L251.9,115z"/>
<path id="KY" inkscape:connector-curvature="0" class="st0" d="M157.6,83.2l-0.1-0.2l-0.1,0.1v0.5h0.4h0.2l0.2-0.2h0.5l-0.1-0.2
	l-0.6-0.1l-0.1,0.1l-0.2,0.1L157.6,83.2L157.6,83.2z M164,81.3L164,81.3L164,81.3l-0.2-0.1l-0.2,0.1h-0.1h-0.1l-0.1,0.1l-0.1,0.1
	h0.2l0.3-0.2H164L164,81.3L164,81.3z M164.6,81.3l0.4-0.2l0,0L165,81h-0.1l-0.1,0.1h-0.1l-0.4,0.2h0.2L164.6,81.3L164.6,81.3z"/>
<path id="DM" inkscape:connector-curvature="0" class="st0" d="M244.6,104l0.2-0.6l-0.1-0.8l-0.2-0.3l-0.6-0.2v0.2l-0.1,0.4l0.2,0.6
	l0.1,0.9L244.6,104z"/>
<path id="FK" inkscape:connector-curvature="0" class="st0" d="M288.2,446.1l-0.1-0.2l-0.3-0.2l-0.2-0.1l0.1,0.2l0.1,0.2l0.1,0.2
	l0.2,0.1L288.2,446.1L288.2,446.1z M292.6,445L292.6,445l-0.2-0.1l-0.1,0.2l0.2,0.2l0.3,0.1L292.6,445L292.6,445z M282.3,443.9
	l-0.1,0.2l-0.3,0.1l0.2,0.2l0.5,0.3h0.3l0.1-0.2l-0.1-0.5h-0.2L282.3,443.9L282.3,443.9z M284.6,442.3l-0.7-0.2l-0.3-0.2h-0.2
	l0.3,0.3l0.1,0.2l0.1,0.2l0.5,0.2l0.5,0.2l0.3,0.2l-0.1,0.1l-0.6,0.2h-0.2l-0.2,0.1l0.3,0.2l0.5-0.1l0.2-0.1h0.2l0.2,0.1v0.2
	l-0.1,0.2l-0.2,0.2l-0.3,0.2l-0.5,0.3h-0.6l-0.6,0.6l0.7,0.4l0.6,0.2h0.7v-0.1l0.2-0.1h0.2l0.1-0.1l0.2-0.3v-0.5h0.2l0.2,0.1
	l0.6-0.1l0.2-0.1l0.5-0.7l0.3-0.6l0.2-0.3l0.2-0.2l0.1-0.2l0.1-0.2l0.2-0.2v-0.2l-0.3-0.2l-0.2-0.2l-0.2,0.2l-0.2-0.1l-0.7,0.2h-0.3
	l-0.2-0.2l-0.3-0.1l-0.3,0.1l-0.4,0.4L284.6,442.3L284.6,442.3z M285.1,442l0.1-0.2l-0.1-0.2l-0.4-0.2h-0.4l0.2,0.4l0.2,0.2H285.1z
	 M289.8,441.4h-0.3l0.3,0.4l-0.6,0.6l0.2,0.5l0.2,0.3l0.1,0.2l-0.1,0.1l-0.3,0.1l-0.2,0.1l-0.2,0.2l-0.7,0.7l0.2,0.2l-0.2,0.6
	l0.2,0.2l0.6,0.6l0.6,0.3v-0.6l0.3-0.1l0.3,0.2l0.3-0.2l-0.7-0.8h0.2l2,0.4l-0.1-0.3l-0.1-0.2l-0.2-0.3l1.2-0.3l0.4-0.2l0.2-0.2
	l0.5-0.1l0.6-0.2l-0.1-0.1l0.1-0.2l-0.3-0.2l-0.4-0.1l0.1-0.2l0.4-0.1l-0.6-0.6l-0.2-0.1l-0.8,0.1l-0.2,0.1v0.2l0.1,0.2l0.2,0.2
	l0.1,0.2l-0.2-0.1l-0.9-0.3l-0.2-0.1l-0.2-0.3l0.2-0.1l0.2,0.1l0.1-0.2l-0.3-0.2l-0.3-0.1l-0.7,0.1L289.8,441.4L289.8,441.4z"/>
<path id="GD" inkscape:connector-curvature="0" class="st0" d="M241.7,120.5l0.4-0.2l0.2-0.9l-0.2-0.1l-0.2,0.2l-0.2,0.4v0.3
	l-0.2,0.2L241.7,120.5L241.7,120.5z"/>
<path id="KN" inkscape:connector-curvature="0" class="st0" d="M239.9,94.5v-0.2l-0.2-0.2h-0.2v0.4l0.2,0.2L239.9,94.5z M239.5,93.9
	l-0.1-0.2l-0.1-0.1l-0.2-0.3l-0.3-0.3l-0.2,0.1l-0.1,0.2v0.1l0,0l0.2,0.2l0.3,0.1l0.2,0.3L239.5,93.9L239.5,93.9z"/>
<path id="LC" inkscape:connector-curvature="0" class="st0" d="M245.9,111.3l0.1-1l-0.1-0.4l-0.2,0.1l-0.2,0.3l-0.3,0.5l-0.1,0.2
	v0.5l0.5,0.3L245.9,111.3L245.9,111.3z"/>
<path id="PR" inkscape:connector-curvature="0" class="st0" d="M216.6,89.7L216.6,89.7L216.6,89.7L216.6,89.7l0.1-0.2l0.1-0.1l0,0
	v-0.1h-0.1l0,0h-0.2h-0.1v0.1v0.1L216.6,89.7L216.6,89.7L216.6,89.7L216.6,89.7L216.6,89.7z M227.5,89.5l0.6-0.2v-0.1l-0.3-0.1h-0.5
	l-0.4,0.2l0.1,0.2h0.2H227.5z M224.6,87.7l-0.1-0.2h-0.2l-2.8-0.1l-1-0.2l-0.2,0.1l-0.2,0.1l-0.1,0.3l-0.2,0.2l-0.2,0.2l0.1,0.2
	l0.1,0.2l0.2,0.3l-0.1,0.4l-0.2,0.8l0.2,0.2l0.6-0.1l0.2,0.1l0.2,0.1l0.3-0.1l0.3-0.2l0.7,0.1l0.4-0.1l0.5,0.2l0.3-0.1l0.2,0.1h0.2
	h0.5l0.7-0.2l0.6-0.4l0.2-0.4l0.3-0.2l0.5-0.3v-0.7l-0.6-0.1l-0.5-0.2l-0.9-0.1h-0.1l0.1,0.2h-0.1L224.6,87.7L224.6,87.7z"/>
<path id="SX" inkscape:connector-curvature="0" class="st0" d="M237.7,89.7L237.7,89.7l0.2,0.2l0.2,0.1l0.1-0.1v-0.2H237.7z"/>
<path id="TC" inkscape:connector-curvature="0" class="st0" d="M199,70.4l-0.1,0.3v0.2l0.2,0.1l0.5-0.1l0.1-0.1l0.2-0.1v-0.1
	l-0.3,0.1L199,70.4z M201.8,70.9l0.2-0.2l-0.2-0.2l-0.6-0.2l-0.2,0.1v0.2h0.5L201.8,70.9L201.8,70.9L201.8,70.9z M201,70.5L201,70.5
	l-0.2-0.6h-0.4v0.2l0.1,0.2h0.1l0.1,0.2L201,70.5L201,70.5L201,70.5z"/>
<path id="TT" inkscape:connector-curvature="0" class="st0" d="M244.3,130.1l0.1-0.2v-0.5l0.2-0.3l-0.2-0.3l-0.1-0.5l0.1-0.4v-0.6
	l0.2-0.2l0.4-0.6h-0.7l-0.5,0.2l-0.9,0.1l-0.4,0.2l-0.6,0.1l-0.3,0.2l0.1,0.1l0.4,0.2l0.2,0.2l0.1,0.2l0.1,0.3l-0.2,1.4l-0.1,0.1
	l-0.5,0.1l-0.2,0.2l-1.1,0.6l0.6-0.1l0.7,0.1l1.9-0.1L244.3,130.1L244.3,130.1z M245.8,124.7l1-0.4l0.1-0.3h-0.2l-0.6,0.2l-0.5,0.4
	v0.2L245.8,124.7z"/>
<path id="VC" inkscape:connector-curvature="0" class="st0" d="M243.6,117L243.6,117L243.6,117L243.6,117l0.1-0.2l0,0v-0.1h-0.1v0.1
	l0,0V117L243.6,117L243.6,117L243.6,117L243.6,117L243.6,117z M244.2,115.5l0.1-0.2l0.1-0.1l0,0l0,0l-0.1-0.1l0,0v0.1l-0.2,0.1l0,0
	L244.2,115.5L244.2,115.5L244.2,115.5H244h-0.1l0,0h0.1l0,0H244.2L244.2,115.5L244.2,115.5L244.2,115.5L244.2,115.5L244.2,115.5z
	 M244.4,114.6l0.2-0.2l0.1-0.5l-0.1-0.3h-0.2l-0.2,0.1l-0.2,0.2l-0.1,0.4L244.4,114.6L244.4,114.6L244.4,114.6z"/>
<path id="VG" inkscape:connector-curvature="0" class="st0" d="M231.4,88l0.2-0.2l-0.2-0.1h-0.3l-0.2,0.2L231,88H231.4L231.4,88z
	 M232.2,87.7l0.3-0.3l-0.4,0.1l-0.2,0.2l0.1,0.1L232.2,87.7L232.2,87.7L232.2,87.7z M232.9,86.2h-0.2h-0.4l0,0l0.1,0.1h0.2l0.2,0.1
	l0,0L232.9,86.2L232.9,86.2z"/>
<path id="VI" inkscape:connector-curvature="0" class="st0" d="M230.3,91l-0.6,0.2l-0.1,0.3h0.9l0.6-0.2h-0.5L230.3,91L230.3,91z
	 M231,88.2l-0.4-0.1l-0.2,0.2l0,0l0.2,0.1L231,88.2z M230.2,88.3l-0.2-0.2l-0.2-0.1l-0.3,0.1l0.4,0.2L230.2,88.3L230.2,88.3z"/>
<path id="MQ" inkscape:connector-curvature="0" class="st0" d="M246.4,107.8l-0.2-0.6l-0.1-0.2l-0.2-0.2l0.1-0.2v-0.1h-0.2l-0.2-0.4
	l-0.5-0.2H245l-0.2,0.2v0.2l0.2,0.7l0.2,0.2l0.4,0.2l-0.3,0.3v0.1l0.1,0.2h0.7l0.2,0.2l0.1-0.1L246.4,107.8L246.4,107.8z"/>
<path id="GP" inkscape:connector-curvature="0" class="st0" d="M245.1,100.8l0.2-0.2v-0.2l-0.2-0.2l-0.2,0.1l-0.2,0.2v0.2l0.1,0.1
	H245.1L245.1,100.8z M243.6,100.1l0.2-0.2v-1l0.1-0.2l-0.2-0.1l-0.2-0.2l-0.5-0.2l-0.1,0.1l-0.2,0.2l0.1,1.2l0.2,0.4l0.2,0.1
	L243.6,100.1L243.6,100.1z M244.9,99l0.6-0.2l-0.7-0.5l-0.2-0.3v-0.2l-0.3-0.2l-0.2,0.2l-0.1,0.2l0.1,0.4l-0.2,0.3L244,99l0.3,0.1
	L244.9,99L244.9,99z"/>
<path id="CW" inkscape:connector-curvature="0" class="st0" d="M212.7,119.8v-0.5L212,119v0.2l0.1,0.2l0.2,0.1l0.1,0.2l-0.1,0.5
	l0.2,0.2L212.7,119.8L212.7,119.8z"/>
</svg>
