<?xml version='1.0' encoding='UTF-8' standalone='no'?>
<svg width="100%" xmlns="http://www.w3.org/2000/svg" viewBox="413 76 2706 2327" xmlns:cc="http://creativecommons.org/ns#" version="1.2" xmlns:inkscape="http://www.inkscape.org/namespaces/inkscape" baseProfile="tiny" id="countryMap" xmlns:xlink="http://www.w3.org/1999/xlink">
 <defs/>
 <!-- <g fill-rule="evenodd" id="Page" stroke="black" fill="none" stroke-linecap="square" inkscape:groupmode="layer" stroke-width="1" stroke-linejoin="bevel" inkscape:label="Page">
          <g stroke="none" font-style="normal" fill="#ffffff" font-family=".AppleSystemUIFont" font-weight="400" fill-opacity="1" font-size="54.1667" transform="matrix(0.999751,0,0,0.999751,0,0)">
   <path fill-rule="evenodd" d="M-2,-2 L3510,-2 L3510,2483 L-2,2483 L-2,-2" shape-rendering="optimizeSpeed" vector-effect="non-scaling-stroke" />
  </g>
         </g>
 <defs/>
 <g fill-rule="evenodd" id="Background" stroke="black" fill="none" stroke-linecap="square" inkscape:groupmode="layer" stroke-width="1" stroke-linejoin="bevel" inkscape:label="Map 1: Background">
        <g stroke="none" font-style="normal" fill="#ffffff" font-family=".AppleSystemUIFont" font-weight="400" fill-opacity="1" font-size="54.1667" transform="matrix(11.8081,0,0,11.8081,0,0)">
   <path fill-rule="evenodd" d="M0,0 L299.059,0 L299.059,210 L0,210 L0,0" shape-rendering="optimizeSpeed" vector-effect="non-scaling-stroke" />
  </g>
                 </g>
 <defs/> -->
 <g fill-rule="evenodd" id="anguilla" stroke="black" fill="none" stroke-linecap="square" inkscape:groupmode="layer" stroke-width="1" stroke-linejoin="bevel" inkscape:label="Map 1: anguilla">

    
   <path fill-rule="evenodd" d="M2328.36,2288.7 L2307.61,2321.68 L2274.5,2335.37 L2240.94,2348.28 L2204.07,2355.99 L2177.95,2363.99 L2158.13,2351.55 L2148.22,2323.9 L2117.63,2305.2 L2155.11,2280.03 L2311.24,2266.13 L2328.36,2288.7" shape-rendering="optimizeSpeed" vector-effect="non-scaling-stroke"/>
   <path fill-rule="evenodd" d="M1366.56,1739.21 L1407.39,1750.97 L1446.5,1747.41 L1422.05,1773.36 L1391.95,1789.2 L1352.2,1795.44 L1322.45,1791.03 L1317.32,1761.86 L1331.38,1739.55 L1366.56,1739.21" shape-rendering="optimizeSpeed" vector-effect="non-scaling-stroke"/>
   <path fill-rule="evenodd" d="M2775.8,1941.5 L2804.68,1946.29 L2829.29,1952.92 L2826.4,1980.23 L2805.2,1991.92 L2802.38,2029.39 L2774.16,2053.12 L2768.14,2030.38 L2704.55,2030.38 L2733.28,2006.63 L2746.88,1976.94 L2749.83,1940.9 L2775.8,1941.5" shape-rendering="optimizeSpeed" vector-effect="non-scaling-stroke"/>
   <path fill-rule="evenodd" d="M2697.65,1970.62 L2660.11,1997.43 L2632.26,2007.62 L2640.19,1980.58 L2650.53,1946.87 L2654.67,1910.7 L2725.23,1931.54 L2749.83,1940.9 L2697.65,1970.62" shape-rendering="optimizeSpeed" vector-effect="non-scaling-stroke"/>
   <path fill-rule="evenodd" d="M2328.36,2288.7 L2311.24,2266.13 L2309.88,2212.35 L2299.96,2189.27 L2309.88,2167.91 L2296.7,2138.18 L2314.08,2122.93 L2351.98,2131.89 L2348.95,2164.08 L2421.74,2144.54 L2444.27,2133.28 L2452.77,2161.27 L2430.15,2242.34 L2407.08,2250.38 L2379.18,2260.25 L2352.2,2265.63 L2328.36,2288.7" shape-rendering="optimizeSpeed" vector-effect="non-scaling-stroke"/>
   <path fill-rule="evenodd" d="M2804.68,1946.29 L2775.8,1941.5 L2749.83,1940.9 L2725.23,1931.54 L2654.67,1910.7 L2631.03,1894.33 L2661.74,1869.68 L2693.67,1866.51 L2719.47,1884.27 L2745.99,1870.43 L2770.52,1858.66 L2800.36,1850.19 L2831.95,1840.44 L2861.55,1816.32 L2894.32,1797.02 L2893.47,1836.12 L2872.68,1861.6 L2855.94,1886.93 L2826.72,1899.41 L2799.55,1921.43 L2804.68,1946.29" shape-rendering="optimizeSpeed" vector-effect="non-scaling-stroke"/>
   <path fill-rule="evenodd" d="M2296.7,2138.18 L2309.88,2167.91 L2299.96,2189.27 L2268.76,2172 L2223.85,2168.07 L2237.44,2143.4 L2264.94,2138.15 L2296.7,2138.18" shape-rendering="optimizeSpeed" vector-effect="non-scaling-stroke"/>
   <path fill-rule="evenodd" d="M2534.97,2000.3 L2465.42,1995.9 L2460.82,2065.63 L2450.44,2100.66 L2410.25,2089.76 L2383.82,2084.01 L2357.02,2082.27 L2349.54,2043.09 L2339.18,2013.15 L2361.32,1989.39 L2396.97,1968.59 L2423.82,1947.01 L2450.91,1935.11 L2479.61,1919.59 L2515.4,1909.61 L2540.9,1901.18 L2563.89,1888.57 L2558.89,1934.61 L2549.7,1967.55 L2534.97,2000.3" shape-rendering="optimizeSpeed" vector-effect="non-scaling-stroke"/>
   <path fill-rule="evenodd" d="M1767.82,1840.51 L1797.48,1840.26 L1804.81,1859.78 L1767.82,1840.51" shape-rendering="optimizeSpeed" vector-effect="non-scaling-stroke"/>
   <path fill-rule="evenodd" d="M2223.85,2168.07 L2268.76,2172 L2299.96,2189.27 L2263.91,2210.82 L2228.91,2209.25 L2223.85,2168.07" shape-rendering="optimizeSpeed" vector-effect="non-scaling-stroke"/>
   <path fill-rule="evenodd" d="M2749.83,1940.9 L2746.88,1976.94 L2733.28,2006.63 L2704.55,2030.38 L2768.14,2030.38 L2774.16,2053.12 L2740.56,2074.5 L2709.91,2079.47 L2682.58,2069.81 L2529.16,2067.77 L2544.33,2033.45 L2534.97,2000.3 L2588.47,1998.58 L2632.26,2007.62 L2660.11,1997.43 L2697.65,1970.62 L2749.83,1940.9" shape-rendering="optimizeSpeed" vector-effect="non-scaling-stroke"/>
   <path fill-rule="evenodd" d="M3020.83,1673.31 L3055.86,1679.64 L3097.56,1682.54 L3118.92,1707.07 L3081.54,1730.45 L3042.08,1735.76 L3012.76,1740.07 L2998.64,1767.25 L2969.59,1785.57 L2941.61,1776.22 L2958.18,1744.29 L2952.78,1713.4 L2996.56,1686.78 L3020.83,1673.31" shape-rendering="optimizeSpeed" vector-effect="non-scaling-stroke"/>
   <path fill-rule="evenodd" d="M422.808,108.92 L413.081,84.885 L438.061,76.7212 L422.808,108.92" shape-rendering="optimizeSpeed" vector-effect="non-scaling-stroke"/>
   <path fill-rule="evenodd" d="M2311.24,2266.13 L2155.11,2280.03 L2117.63,2305.2 L2093.46,2320.71 L2071.05,2339.02 L2065.12,2232.63 L2094.56,2232.93 L2125.62,2226.3 L2157.32,2216.88 L2190.91,2217.1 L2228.91,2209.25 L2263.91,2210.82 L2299.96,2189.27 L2309.88,2212.35 L2311.24,2266.13" shape-rendering="optimizeSpeed" vector-effect="non-scaling-stroke"/>
   <path fill-rule="evenodd" d="M2650.53,1946.87 L2640.19,1980.58 L2632.26,2007.62 L2588.47,1998.58 L2534.97,2000.3 L2549.7,1967.55 L2558.89,1934.61 L2563.89,1888.57 L2591.36,1889.66 L2631.03,1894.33 L2654.67,1910.7 L2650.53,1946.87" shape-rendering="optimizeSpeed" vector-effect="non-scaling-stroke"/>
   <path fill-rule="evenodd" d="M2460.82,2065.63 L2465.42,1995.9 L2534.97,2000.3 L2544.33,2033.45 L2529.16,2067.77 L2527.48,2095.51 L2517.41,2127.8 L2493,2102.71 L2450.44,2100.66 L2460.82,2065.63" shape-rendering="optimizeSpeed" vector-effect="non-scaling-stroke"/>
   <path fill-rule="evenodd" d="M2529.16,2067.77 L2682.58,2069.81 L2662.49,2100.26 L2657.42,2130.59 L2635.6,2142.97 L2611.69,2151.64 L2583.44,2163.64 L2555.15,2173.4 L2532,2187.07 L2517.41,2127.8 L2527.48,2095.51 L2529.16,2067.77" shape-rendering="optimizeSpeed" vector-effect="non-scaling-stroke"/>
   <path fill-rule="evenodd" d="M2430.15,2242.34 L2452.77,2161.27 L2444.27,2133.28 L2450.44,2100.66 L2493,2102.71 L2517.41,2127.8 L2532,2187.07 L2512.15,2206.77 L2480,2211.02 L2453.1,2232.46 L2430.15,2242.34" shape-rendering="optimizeSpeed" vector-effect="non-scaling-stroke"/>
   <path fill-rule="evenodd" d="M2444.27,2133.28 L2421.74,2144.54 L2348.95,2164.08 L2351.98,2131.89 L2314.08,2122.93 L2338.21,2105.9 L2357.02,2082.27 L2383.82,2084.01 L2410.25,2089.76 L2450.44,2100.66 L2444.27,2133.28" shape-rendering="optimizeSpeed" vector-effect="non-scaling-stroke"/>
   <path fill-rule="evenodd" d="M2065.12,2232.63 L2071.05,2339.02 L2046.3,2359.45 L2013.18,2351.45 L1973.67,2345.57 L1977.43,2369.06 L1960.38,2390.86 L1926.73,2392.34 L1890.55,2395.64 L1860.42,2391.93 L1828.08,2403.28 L1794,2398.98 L1820.11,2378.49 L1847.21,2348.94 L1882.29,2340.82 L1918.23,2318.47 L1953.67,2300.12 L1981.92,2282.32 L1997.88,2249.27 L2026.34,2237.76 L2065.12,2232.63" shape-rendering="optimizeSpeed" vector-effect="non-scaling-stroke"/>

                 </g>
 <defs/>
 <g fill-rule="evenodd" id="West End" stroke="black" fill="none" stroke-linecap="square" inkscape:groupmode="layer" stroke-width="1" stroke-linejoin="bevel" inkscape:label="West End">

    
   <path fill-rule="evenodd" d="M2065.12,2232.63 L2071.05,2339.02 L2046.3,2359.45 L2013.18,2351.45 L1973.67,2345.57 L1977.43,2369.06 L1960.38,2390.86 L1926.73,2392.34 L1890.55,2395.64 L1860.42,2391.93 L1828.08,2403.28 L1794,2398.98 L1820.11,2378.49 L1847.21,2348.94 L1882.29,2340.82 L1918.23,2318.47 L1953.67,2300.12 L1981.92,2282.32 L1997.88,2249.27 L2026.34,2237.76 L2065.12,2232.63" shape-rendering="optimizeSpeed" vector-effect="non-scaling-stroke"/>

                 </g>
 <defs/>
 <g fill-rule="evenodd" id="The Valley" stroke="black" fill="none" stroke-linecap="square" inkscape:groupmode="layer" stroke-width="1" stroke-linejoin="bevel" inkscape:label="The Valley">

    
   <path fill-rule="evenodd" d="M2444.27,2133.28 L2421.74,2144.54 L2348.95,2164.08 L2351.98,2131.89 L2314.08,2122.93 L2338.21,2105.9 L2357.02,2082.27 L2383.82,2084.01 L2410.25,2089.76 L2450.44,2100.66 L2444.27,2133.28" shape-rendering="optimizeSpeed" vector-effect="non-scaling-stroke"/>

                 </g>
 <defs/>
 <g fill-rule="evenodd" id="The Quarter" stroke="black" fill="none" stroke-linecap="square" inkscape:groupmode="layer" stroke-width="1" stroke-linejoin="bevel" inkscape:label="The Quarter">

    
   <path fill-rule="evenodd" d="M2430.15,2242.34 L2452.77,2161.27 L2444.27,2133.28 L2450.44,2100.66 L2493,2102.71 L2517.41,2127.8 L2532,2187.07 L2512.15,2206.77 L2480,2211.02 L2453.1,2232.46 L2430.15,2242.34" shape-rendering="optimizeSpeed" vector-effect="non-scaling-stroke"/>

                 </g>
 <defs/>
 <g fill-rule="evenodd" id="The Farrington" stroke="black" fill="none" stroke-linecap="square" inkscape:groupmode="layer" stroke-width="1" stroke-linejoin="bevel" inkscape:label="The Farrington">

    
   <path fill-rule="evenodd" d="M2529.16,2067.77 L2682.58,2069.81 L2662.49,2100.26 L2657.42,2130.59 L2635.6,2142.97 L2611.69,2151.64 L2583.44,2163.64 L2555.15,2173.4 L2532,2187.07 L2517.41,2127.8 L2527.48,2095.51 L2529.16,2067.77" shape-rendering="optimizeSpeed" vector-effect="non-scaling-stroke"/>

                 </g>
 <defs/>
 <g fill-rule="evenodd" id="Stoney Ground" stroke="black" fill="none" stroke-linecap="square" inkscape:groupmode="layer" stroke-width="1" stroke-linejoin="bevel" inkscape:label="Stoney Ground">

    
   <path fill-rule="evenodd" d="M2650.53,1946.87 L2640.19,1980.58 L2632.26,2007.62 L2588.47,1998.58 L2534.97,2000.3 L2549.7,1967.55 L2558.89,1934.61 L2563.89,1888.57 L2591.36,1889.66 L2631.03,1894.33 L2654.67,1910.7 L2650.53,1946.87" shape-rendering="optimizeSpeed" vector-effect="non-scaling-stroke"/>
   <path fill-rule="evenodd" d="M2460.82,2065.63 L2465.42,1995.9 L2534.97,2000.3 L2544.33,2033.45 L2529.16,2067.77 L2527.48,2095.51 L2517.41,2127.8 L2493,2102.71 L2450.44,2100.66 L2460.82,2065.63" shape-rendering="optimizeSpeed" vector-effect="non-scaling-stroke"/>

                 </g>
 <defs/>
 <g fill-rule="evenodd" id="South Hill" stroke="black" fill="none" stroke-linecap="square" inkscape:groupmode="layer" stroke-width="1" stroke-linejoin="bevel" inkscape:label="South Hill">

    
   <path fill-rule="evenodd" d="M2311.24,2266.13 L2155.11,2280.03 L2117.63,2305.2 L2093.46,2320.71 L2071.05,2339.02 L2065.12,2232.63 L2094.56,2232.93 L2125.62,2226.3 L2157.32,2216.88 L2190.91,2217.1 L2228.91,2209.25 L2263.91,2210.82 L2299.96,2189.27 L2309.88,2212.35 L2311.24,2266.13" shape-rendering="optimizeSpeed" vector-effect="non-scaling-stroke"/>

                 </g>
 <defs/>
 <g fill-rule="evenodd" id="Sombrero Island" stroke="black" fill="none" stroke-linecap="square" inkscape:groupmode="layer" stroke-width="1" stroke-linejoin="bevel" inkscape:label="Sombrero Island">

    
   <path fill-rule="evenodd" d="M422.808,108.92 L413.081,84.885 L438.061,76.7212 L422.808,108.92" shape-rendering="optimizeSpeed" vector-effect="non-scaling-stroke"/>

                 </g>
 <defs/>
 <g fill-rule="evenodd" id="Scrub Island" stroke="black" fill="none" stroke-linecap="square" inkscape:groupmode="layer" stroke-width="1" stroke-linejoin="bevel" inkscape:label="Scrub Island">

    
   <path fill-rule="evenodd" d="M3020.83,1673.31 L3055.86,1679.64 L3097.56,1682.54 L3118.92,1707.07 L3081.54,1730.45 L3042.08,1735.76 L3012.76,1740.07 L2998.64,1767.25 L2969.59,1785.57 L2941.61,1776.22 L2958.18,1744.29 L2952.78,1713.4 L2996.56,1686.78 L3020.83,1673.31" shape-rendering="optimizeSpeed" vector-effect="non-scaling-stroke"/>

                 </g>
 <defs/>
 <g fill-rule="evenodd" id="Sandy Hill" stroke="black" fill="none" stroke-linecap="square" inkscape:groupmode="layer" stroke-width="1" stroke-linejoin="bevel" inkscape:label="Sandy Hill">

    
   <path fill-rule="evenodd" d="M2749.83,1940.9 L2746.88,1976.94 L2733.28,2006.63 L2704.55,2030.38 L2768.14,2030.38 L2774.16,2053.12 L2740.56,2074.5 L2709.91,2079.47 L2682.58,2069.81 L2529.16,2067.77 L2544.33,2033.45 L2534.97,2000.3 L2588.47,1998.58 L2632.26,2007.62 L2660.11,1997.43 L2697.65,1970.62 L2749.83,1940.9" shape-rendering="optimizeSpeed" vector-effect="non-scaling-stroke"/>

                 </g>
 <defs/>
 <g fill-rule="evenodd" id="Sandy Ground" stroke="black" fill="none" stroke-linecap="square" inkscape:groupmode="layer" stroke-width="1" stroke-linejoin="bevel" inkscape:label="Sandy Ground">

    
   <path fill-rule="evenodd" d="M2223.85,2168.07 L2268.76,2172 L2299.96,2189.27 L2263.91,2210.82 L2228.91,2209.25 L2223.85,2168.07" shape-rendering="optimizeSpeed" vector-effect="non-scaling-stroke"/>

                 </g>
 <defs/>
 <g fill-rule="evenodd" id="Pricly Pear Cays" stroke="black" fill="none" stroke-linecap="square" inkscape:groupmode="layer" stroke-width="1" stroke-linejoin="bevel" inkscape:label="Pricly Pear Cays">

    
   <path fill-rule="evenodd" d="M1767.82,1840.51 L1797.48,1840.26 L1804.81,1859.78 L1767.82,1840.51" shape-rendering="optimizeSpeed" vector-effect="non-scaling-stroke"/>

                 </g>
 <defs/>
 <g fill-rule="evenodd" id="North Side" stroke="black" fill="none" stroke-linecap="square" inkscape:groupmode="layer" stroke-width="1" stroke-linejoin="bevel" inkscape:label="North Side">

    
   <path fill-rule="evenodd" d="M2534.97,2000.3 L2465.42,1995.9 L2460.82,2065.63 L2450.44,2100.66 L2410.25,2089.76 L2383.82,2084.01 L2357.02,2082.27 L2349.54,2043.09 L2339.18,2013.15 L2361.32,1989.39 L2396.97,1968.59 L2423.82,1947.01 L2450.91,1935.11 L2479.61,1919.59 L2515.4,1909.61 L2540.9,1901.18 L2563.89,1888.57 L2558.89,1934.61 L2549.7,1967.55 L2534.97,2000.3" shape-rendering="optimizeSpeed" vector-effect="non-scaling-stroke"/>

                 </g>
 <defs/>
 <g fill-rule="evenodd" id="North Hill" stroke="black" fill="none" stroke-linecap="square" inkscape:groupmode="layer" stroke-width="1" stroke-linejoin="bevel" inkscape:label="North Hill">

    
   <path fill-rule="evenodd" d="M2296.7,2138.18 L2309.88,2167.91 L2299.96,2189.27 L2268.76,2172 L2223.85,2168.07 L2237.44,2143.4 L2264.94,2138.15 L2296.7,2138.18" shape-rendering="optimizeSpeed" vector-effect="non-scaling-stroke"/>

                 </g>
 <defs/>
 <g fill-rule="evenodd" id="Island Harbour" stroke="black" fill="none" stroke-linecap="square" inkscape:groupmode="layer" stroke-width="1" stroke-linejoin="bevel" inkscape:label="Island Harbour">

    
   <path fill-rule="evenodd" d="M2804.68,1946.29 L2775.8,1941.5 L2749.83,1940.9 L2725.23,1931.54 L2654.67,1910.7 L2631.03,1894.33 L2661.74,1869.68 L2693.67,1866.51 L2719.47,1884.27 L2745.99,1870.43 L2770.52,1858.66 L2800.36,1850.19 L2831.95,1840.44 L2861.55,1816.32 L2894.32,1797.02 L2893.47,1836.12 L2872.68,1861.6 L2855.94,1886.93 L2826.72,1899.41 L2799.55,1921.43 L2804.68,1946.29" shape-rendering="optimizeSpeed" vector-effect="non-scaling-stroke"/>

                 </g>
 <defs/>
 <g fill-rule="evenodd" id="George Hill" stroke="black" fill="none" stroke-linecap="square" inkscape:groupmode="layer" stroke-width="1" stroke-linejoin="bevel" inkscape:label="George Hill">

    
   <path fill-rule="evenodd" d="M2328.36,2288.7 L2311.24,2266.13 L2309.88,2212.35 L2299.96,2189.27 L2309.88,2167.91 L2296.7,2138.18 L2314.08,2122.93 L2351.98,2131.89 L2348.95,2164.08 L2421.74,2144.54 L2444.27,2133.28 L2452.77,2161.27 L2430.15,2242.34 L2407.08,2250.38 L2379.18,2260.25 L2352.2,2265.63 L2328.36,2288.7" shape-rendering="optimizeSpeed" vector-effect="non-scaling-stroke"/>

                 </g>
 <defs/>
 <g fill-rule="evenodd" id="East End" stroke="black" fill="none" stroke-linecap="square" inkscape:groupmode="layer" stroke-width="1" stroke-linejoin="bevel" inkscape:label="East End">

    
   <path fill-rule="evenodd" d="M2775.8,1941.5 L2804.68,1946.29 L2829.29,1952.92 L2826.4,1980.23 L2805.2,1991.92 L2802.38,2029.39 L2774.16,2053.12 L2768.14,2030.38 L2704.55,2030.38 L2733.28,2006.63 L2746.88,1976.94 L2749.83,1940.9 L2775.8,1941.5" shape-rendering="optimizeSpeed" vector-effect="non-scaling-stroke"/>
   <path fill-rule="evenodd" d="M2697.65,1970.62 L2660.11,1997.43 L2632.26,2007.62 L2640.19,1980.58 L2650.53,1946.87 L2654.67,1910.7 L2725.23,1931.54 L2749.83,1940.9 L2697.65,1970.62" shape-rendering="optimizeSpeed" vector-effect="non-scaling-stroke"/>

                 </g>
 <defs/>
 <g fill-rule="evenodd" id="Dog Island" stroke="black" fill="none" stroke-linecap="square" inkscape:groupmode="layer" stroke-width="1" stroke-linejoin="bevel" inkscape:label="Dog Island">

    
   <path fill-rule="evenodd" d="M1366.56,1739.21 L1407.39,1750.97 L1446.5,1747.41 L1422.05,1773.36 L1391.95,1789.2 L1352.2,1795.44 L1322.45,1791.03 L1317.32,1761.86 L1331.38,1739.55 L1366.56,1739.21" shape-rendering="optimizeSpeed" vector-effect="non-scaling-stroke"/>

                 </g>
 <defs/>
 <g fill-rule="evenodd" id="Blowing Point" stroke="black" fill="none" stroke-linecap="square" inkscape:groupmode="layer" stroke-width="1" stroke-linejoin="bevel" inkscape:label="Blowing Point">

    
   <path fill-rule="evenodd" d="M2328.36,2288.7 L2307.61,2321.68 L2274.5,2335.37 L2240.94,2348.28 L2204.07,2355.99 L2177.95,2363.99 L2158.13,2351.55 L2148.22,2323.9 L2117.63,2305.2 L2155.11,2280.03 L2311.24,2266.13 L2328.36,2288.7" shape-rendering="optimizeSpeed" vector-effect="non-scaling-stroke"/>

                 </g>
 <metadata>
  <rdf:RDF xmlns:dc="http://purl.org/dc/elements/1.1/" xmlns:rdf="http://www.w3.org/1999/02/22-rdf-syntax-ns#" xmlns:rdfs="http://www.w3.org/2000/01/rdf-schema#">
   <rdf:Description dc:description="" dc:date="2023-12-04T13:17:32" dc:format="image/svg+xml" dc:title="" dc:identifier="">
    <dc:creator>
     <rdf:Bag>
      <rdf:li>C.D.Tyrrell</rdf:li>
     </rdf:Bag>
    </dc:creator>
    <dc:publisher>
     <rdf:Bag>
      <rdf:li>QGIS 3.24.3-Tisler</rdf:li>
     </rdf:Bag>
    </dc:publisher>
    <dc:subject>
     <rdf:Bag/>
    </dc:subject>
   </rdf:Description>
   <cc:Work rdf:about="">
    <dc:format>image/svg+xml</dc:format>
    <dc:title></dc:title>
    <dc:date>2023-12-04T13:17:32</dc:date>
    <dc:identifier></dc:identifier>
    <dc:description></dc:description>
    <dc:creator>
     <cc:Agent>
      <dc:title>C.D.Tyrrell</dc:title>
     </cc:Agent>
    </dc:creator>
    <dc:publisher>
     <cc:Agent>
      <dc:title>QGIS 3.24.3-Tisler</dc:title>
     </cc:Agent>
    </dc:publisher>
   </cc:Work>
  </rdf:RDF>
 </metadata>
</svg>
