<?xml version='1.0' encoding='UTF-8' standalone='no'?>
<svg height="209.973mm" xmlns="http://www.w3.org/2000/svg" viewBox="0 0 3507 2480" xmlns:cc="http://creativecommons.org/ns#" version="1.2" xmlns:inkscape="http://www.inkscape.org/namespaces/inkscape" baseProfile="tiny" width="296.926mm" xmlns:xlink="http://www.w3.org/1999/xlink">
 <defs/>
 <g fill-rule="evenodd" id="Page" stroke="black" fill="none" stroke-linecap="square" inkscape:groupmode="layer" stroke-width="1" stroke-linejoin="bevel" inkscape:label="Page">
          <g stroke="none" font-style="normal" fill="#ffffff" font-family=".AppleSystemUIFont" font-weight="400" fill-opacity="1" font-size="54.1667" transform="matrix(0.999751,0,0,0.999751,0,0)">
   <path fill-rule="evenodd" d="M-2,-2 L3510,-2 L3510,2483 L-2,2483 L-2,-2" vector-effect="none" />
  </g>
         </g>
 <defs/>
 <g fill-rule="evenodd" id="Background" stroke="black" fill="none" stroke-linecap="square" inkscape:groupmode="layer" stroke-width="1" stroke-linejoin="bevel" inkscape:label="Map 1: Background">
        <g stroke="none" font-style="normal" fill="#ffffff" font-family=".AppleSystemUIFont" font-weight="400" fill-opacity="1" font-size="54.1667" transform="matrix(11.8081,0,0,11.8081,0,0)">
   <path fill-rule="evenodd" d="M0,0 L297,0 L297,210 L0,210 L0,0" vector-effect="none" />
  </g>
                 </g>
 <defs/>
 <g fill-rule="evenodd" id="monserrat" stroke="black" fill="none" stroke-linecap="square" inkscape:groupmode="layer" stroke-width="1" stroke-linejoin="bevel" inkscape:label="Map 1: monserrat">

    
   <path fill-rule="evenodd" d="M2434.49,1832.65 L2434.49,1841.48 L2430.09,1841.48 L2430.09,1850.22 L2425.69,1850.22 L2425.69,1863.42 L2421.35,1863.42 L2421.35,1867.77 L2425.69,1867.77 L2425.69,1880.97 L2421.35,1880.97 L2421.35,1885.34 L2425.69,1885.34 L2425.69,1902.88 L2434.49,1902.88 L2434.49,1907.35 L2438.89,1907.35 L2438.89,1916.09 L2447.63,1916.09 L2447.63,1920.49 L2452.03,1920.49 L2452.03,1924.89 L2456.43,1924.89 L2456.43,1929.26 L2460.84,1929.26 L2460.84,1933.66 L2465.24,1933.66 L2465.24,1942.46 L2469.64,1942.46 L2469.64,1955.61 L2473.98,1955.61 L2473.98,1960.01 L2478.38,1960.01 L2478.38,1964.38 L2482.78,1964.38 L2482.78,1968.78 L2487.18,1968.78 L2487.18,1981.95 L2491.58,1981.95 L2491.58,1990.73 L2495.92,1990.73 L2495.92,1995.13 L2500.32,1995.13 L2500.32,2003.9 L2504.73,2003.9 L2504.73,2008.3 L2509.13,2008.3 L2509.13,2025.84 L2513.53,2025.84 L2513.53,2030.25 L2517.93,2030.25 L2517.93,2034.62 L2522.27,2034.62 L2522.27,2078.54 L2517.93,2078.54 L2517.93,2091.74 L2513.53,2091.74 L2513.53,2104.88 L2509.13,2104.88 L2509.13,2109.26 L2504.73,2109.26 L2504.73,2113.66 L2500.32,2113.66 L2500.32,2122.4 L2495.92,2122.4 L2495.92,2126.83 L2491.58,2126.83 L2491.58,2131.2 L2487.18,2131.2 L2487.18,2135.6 L2482.78,2135.6 L2482.78,2140 L2478.38,2140 L2478.38,2148.78 L2473.98,2148.78 L2473.98,2153.18 L2469.64,2153.18 L2469.64,2166.35 L2460.84,2166.35 L2460.84,2170.72 L2456.43,2170.72 L2456.43,2188.29 L2452.03,2188.29 L2452.03,2192.67 L2443.29,2192.67 L2443.29,2197.07 L2438.89,2197.07 L2438.89,2201.47 L2434.49,2201.47 L2434.49,2205.84 L2430.09,2205.84 L2430.09,2210.24 L2425.69,2210.24 L2425.69,2214.61 L2412.54,2214.61 L2412.54,2223.41 L2408.14,2223.41 L2408.14,2236.59 L2403.74,2236.59 L2403.74,2240.96 L2399.34,2240.96 L2399.34,2245.36 L2395,2245.36 L2395,2249.73 L2390.6,2249.73 L2390.6,2254.13 L2386.2,2254.13 L2386.2,2258.53 L2381.8,2258.53 L2381.8,2267.3 L2377.39,2267.3 L2377.39,2276.08 L2373.05,2276.08 L2373.05,2284.85 L2368.65,2284.85 L2368.65,2293.65 L2364.25,2293.65 L2364.25,2302.39 L2359.85,2302.39 L2359.85,2311.23 L2355.45,2311.23 L2355.45,2324.4 L2351.05,2324.4 L2351.05,2328.77 L2346.71,2328.77 L2346.71,2333.17 L2342.31,2333.17 L2342.31,2337.51 L2333.5,2337.51 L2333.5,2341.97 L2320.36,2341.97 L2320.36,2346.34 L2307.16,2346.34 L2307.16,2350.72 L2302.76,2350.72 L2302.76,2355.12 L2294.01,2355.12 L2294.01,2359.55 L2289.61,2359.55 L2289.61,2363.89 L2285.21,2363.89 L2285.21,2368.29 L2280.81,2368.29 L2280.81,2385.83 L2276.47,2385.83 L2276.47,2394.61 L2272.07,2394.61 L2272.07,2399.01 L2267.67,2399.01 L2267.67,2407.81 L2263.27,2407.81 L2263.27,2412.18 L2258.86,2412.18 L2258.86,2416.58 L2241.32,2416.58 L2241.32,2412.18 L2214.97,2412.18 L2214.97,2407.81 L2188.63,2407.81 L2188.63,2412.18 L2184.23,2412.18 L2184.23,2416.58 L2153.54,2416.58 L2153.54,2412.18 L2149.14,2412.18 L2149.14,2407.81 L2140.34,2407.81 L2140.34,2403.41 L2122.79,2403.41 L2122.79,2407.81 L2113.99,2407.81 L2113.99,2412.18 L2100.85,2412.18 L2100.85,2407.81 L2074.5,2407.81 L2074.5,2412.18 L2052.55,2412.18 L2052.55,2416.58 L2035.01,2416.58 L2035.01,2412.18 L2017.41,2412.18 L2017.41,2407.81 L2008.66,2407.81 L2008.66,2403.41 L2004.26,2403.41 L2004.26,2399.01 L1999.86,2399.01 L1999.86,2394.61 L1973.51,2394.61 L1973.51,2390.23 L1969.11,2390.23 L1969.11,2385.83 L1938.43,2385.83 L1938.43,2381.46 L1929.62,2381.46 L1929.62,2377.09 L1920.82,2377.09 L1920.82,2381.46 L1916.42,2381.46 L1916.42,2385.83 L1912.08,2385.83 L1912.08,2394.61 L1907.68,2394.61 L1907.68,2407.81 L1903.28,2407.81 L1903.28,2412.18 L1890.13,2412.18 L1890.13,2416.58 L1863.79,2416.58 L1863.79,2412.18 L1854.99,2412.18 L1854.99,2407.81 L1846.18,2407.81 L1846.18,2412.18 L1841.84,2412.18 L1841.84,2420.95 L1815.5,2420.95 L1815.5,2416.58 L1806.69,2416.58 L1806.69,2412.18 L1797.89,2412.18 L1797.89,2407.81 L1789.15,2407.81 L1789.15,2403.41 L1784.75,2403.41 L1784.75,2399.01 L1780.35,2399.01 L1780.35,2377.09 L1771.6,2377.09 L1771.6,2372.66 L1767.2,2372.66 L1767.2,2377.09 L1758.4,2377.09 L1758.4,2372.66 L1754,2372.66 L1754,2368.29 L1749.6,2368.29 L1749.6,2363.89 L1745.26,2363.89 L1745.26,2359.55 L1740.86,2359.55 L1740.86,2355.12 L1732.05,2355.12 L1732.05,2350.72 L1727.65,2350.72 L1727.65,2346.34 L1718.91,2346.34 L1718.91,2333.17 L1723.31,2333.17 L1723.31,2324.4 L1718.91,2324.4 L1718.91,2311.23 L1675.02,2311.23 L1675.02,2306.85 L1661.82,2306.85 L1661.82,2302.39 L1657.42,2302.39 L1657.42,2293.65 L1661.82,2293.65 L1661.82,2289.25 L1657.42,2289.25 L1657.42,2284.85 L1653.01,2284.85 L1653.01,2280.48 L1648.67,2280.48 L1648.67,2276.08 L1635.47,2276.08 L1635.47,2271.71 L1631.07,2271.71 L1631.07,2267.3 L1626.73,2267.3 L1626.73,2262.93 L1622.33,2262.93 L1622.33,2258.53 L1617.93,2258.53 L1617.93,2254.13 L1613.53,2254.13 L1613.53,2258.53 L1609.12,2258.53 L1609.12,2262.93 L1600.38,2262.93 L1600.38,2254.13 L1595.98,2254.13 L1595.98,2249.73 L1591.58,2249.73 L1591.58,2245.36 L1587.18,2245.36 L1587.18,2240.96 L1582.78,2240.96 L1582.78,2236.59 L1574.04,2236.59 L1574.04,2232.19 L1569.63,2232.19 L1569.63,2227.78 L1560.83,2227.78 L1560.83,2223.41 L1556.43,2223.41 L1556.43,2210.24 L1552.09,2210.24 L1552.09,2205.84 L1547.69,2205.84 L1547.69,2201.47 L1521.34,2201.47 L1521.34,2197.07 L1516.94,2197.07 L1516.94,2201.47 L1508.14,2201.47 L1508.14,2197.07 L1503.8,2197.07 L1503.8,2192.67 L1499.4,2192.67 L1499.4,2188.29 L1495,2188.29 L1495,2157.55 L1486.19,2157.55 L1486.19,2144.37 L1481.85,2144.37 L1481.85,2126.83 L1477.45,2126.83 L1477.45,2113.66 L1468.65,2113.66 L1468.65,2104.88 L1464.25,2104.88 L1464.25,2100.45 L1459.85,2100.45 L1459.85,2096.08 L1451.11,2096.08 L1451.11,2091.74 L1442.3,2091.74 L1442.3,2087.34 L1433.56,2087.34 L1433.56,2082.88 L1420.36,2082.88 L1420.36,2078.54 L1415.96,2078.54 L1415.96,2074.14 L1411.56,2074.14 L1411.56,2069.74 L1407.21,2069.74 L1407.21,2065.33 L1402.81,2065.33 L1402.81,2052.19 L1398.41,2052.19 L1398.41,2034.62 L1394.01,2034.62 L1394.01,2025.84 L1389.61,2025.84 L1389.61,2003.9 L1385.27,2003.9 L1385.27,1999.5 L1376.47,1999.5 L1376.47,1990.73 L1358.92,1990.73 L1358.92,1986.32 L1354.52,1986.32 L1354.52,1981.95 L1350.12,1981.95 L1350.12,1977.55 L1319.37,1977.55 L1319.37,1973.18 L1314.97,1973.18 L1314.97,1968.78 L1310.63,1968.78 L1310.63,1977.55 L1297.43,1977.55 L1297.43,1968.78 L1288.68,1968.78 L1288.68,1938.06 L1284.28,1938.06 L1284.28,1911.72 L1279.88,1911.72 L1279.88,1907.35 L1275.48,1907.35 L1275.48,1898.54 L1271.08,1898.54 L1271.08,1872.23 L1266.68,1872.23 L1266.68,1845.85 L1262.34,1845.85 L1262.34,1841.48 L1257.94,1841.48 L1257.94,1837.08 L1253.54,1837.08 L1253.54,1823.9 L1249.14,1823.9 L1249.14,1810.73 L1244.73,1810.73 L1244.73,1806.33 L1235.99,1806.33 L1235.99,1801.96 L1240.39,1801.96 L1240.39,1797.56 L1235.99,1797.56 L1235.99,1784.38 L1222.79,1784.38 L1222.79,1779.98 L1214.05,1779.98 L1214.05,1775.61 L1209.65,1775.61 L1209.65,1771.21 L1205.24,1771.21 L1205.24,1766.84 L1200.84,1766.84 L1200.84,1762.44 L1192.1,1762.44 L1192.1,1758.04 L1187.7,1758.04 L1187.7,1753.67 L1183.3,1753.67 L1183.3,1758.04 L1170.1,1758.04 L1170.1,1753.67 L1161.35,1753.67 L1161.35,1749.27 L1156.95,1749.27 L1156.95,1744.86 L1143.81,1744.86 L1143.81,1740.49 L1130.61,1740.49 L1130.61,1736.09 L1121.8,1736.09 L1121.8,1731.72 L1117.46,1731.72 L1117.46,1727.35 L1108.66,1727.35 L1108.66,1722.92 L1095.52,1722.92 L1095.52,1718.55 L1091.12,1718.55 L1091.12,1714.15 L1086.71,1714.15 L1086.71,1709.78 L1082.31,1709.78 L1082.31,1705.38 L1073.51,1705.38 L1073.51,1700.97 L1069.17,1700.97 L1069.17,1696.6 L1047.23,1696.6 L1047.23,1692.23 L1034.02,1692.23 L1034.02,1687.77 L1016.48,1687.77 L1016.48,1679.03 L1012.08,1679.03 L1012.08,1674.66 L1007.68,1674.66 L1007.68,1670.23 L1003.27,1670.23 L1003.27,1665.86 L994.532,1665.86 L994.532,1661.45 L985.73,1661.45 L985.73,1652.65 L998.933,1652.65 L998.933,1643.91 L994.532,1643.91 L994.532,1639.51 L1025.22,1639.51 L1025.22,1635.11 L1038.42,1635.11 L1038.42,1630.74 L1042.82,1630.74 L1042.82,1626.34 L1060.37,1626.34 L1060.37,1621.96 L1064.77,1621.96 L1064.77,1617.56 L1069.17,1617.56 L1069.17,1613.16 L1073.51,1613.16 L1073.51,1599.99 L1077.91,1599.99 L1077.91,1595.62 L1082.31,1595.62 L1082.31,1578.04 L1086.71,1578.04 L1086.71,1573.67 L1091.12,1573.67 L1091.12,1556.1 L1095.52,1556.1 L1095.52,1538.55 L1091.12,1538.55 L1091.12,1529.75 L1095.52,1529.75 L1095.52,1525.38 L1099.86,1525.38 L1099.86,1520.98 L1104.26,1520.98 L1104.26,1499.03 L1108.66,1499.03 L1108.66,1481.46 L1113.06,1481.46 L1113.06,1463.92 L1117.46,1463.92 L1117.46,1446.34 L1121.8,1446.34 L1121.8,1437.6 L1126.2,1437.6 L1126.2,1430.27 L1169.49,1439.08 L1285.79,1463.07 L1393.05,1466.27 L1437.78,1486.61 L1534.67,1476.55 L1619.67,1559.02 L1659.29,1558.57 L1711.8,1598.36 L1789.63,1661.39 L1828.34,1685.36 L1914.85,1725.51 L1984.91,1778.39 L2141.42,1815.28 L2266.64,1834.7 L2434.49,1832.65" vector-effect="none"/>
   <path fill-rule="evenodd" d="M2434.49,1832.65 L2266.64,1834.7 L2141.42,1815.28 L1984.91,1778.39 L1914.85,1725.51 L1828.34,1685.36 L1789.63,1661.39 L1711.8,1598.36 L1659.29,1558.57 L1655.43,1555.62 L1652.35,1478.14 L1690.03,1372.55 L1714.81,1274.64 L1809.1,1071.1 L1851.67,976.323 L1917.2,866.717 L1982.74,827.167 L2036.34,775.861 L2069.31,733.266 L2083.3,717.591 L2096.44,717.591 L2096.44,721.962 L2100.85,721.962 L2100.85,726.363 L2105.25,726.363 L2105.25,735.135 L2109.59,735.135 L2109.59,743.937 L2113.99,743.937 L2113.99,748.278 L2118.39,748.278 L2118.39,752.709 L2122.79,752.709 L2122.79,783.397 L2127.19,783.397 L2127.19,796.6 L2122.79,796.6 L2122.79,814.175 L2127.19,814.175 L2127.19,822.977 L2131.59,822.977 L2131.59,831.719 L2135.93,831.719 L2135.93,836.12 L2140.34,836.12 L2140.34,840.521 L2144.74,840.521 L2144.74,849.293 L2140.34,849.293 L2140.34,862.467 L2135.93,862.467 L2135.93,884.412 L2140.34,884.412 L2140.34,893.184 L2144.74,893.184 L2144.74,906.357 L2149.14,906.357 L2149.14,910.759 L2157.88,910.759 L2157.88,915.13 L2162.28,915.13 L2162.28,923.932 L2171.08,923.932 L2171.08,928.303 L2175.48,928.303 L2175.48,937.105 L2179.89,937.105 L2179.89,941.476 L2184.23,941.476 L2184.23,950.278 L2188.63,950.278 L2188.63,959.051 L2193.03,959.051 L2193.03,967.823 L2197.43,967.823 L2197.43,972.224 L2206.17,972.224 L2206.17,976.595 L2214.97,976.595 L2214.97,980.996 L2223.78,980.996 L2223.78,985.367 L2232.52,985.367 L2232.52,994.169 L2236.92,994.169 L2236.92,998.54 L2232.52,998.54 L2232.52,1007.37 L2228.18,1007.37 L2228.18,1016.11 L2232.52,1016.11 L2232.52,1029.29 L2236.92,1029.29 L2236.92,1033.69 L2245.72,1033.69 L2245.72,1038.03 L2263.27,1038.03 L2263.27,1042.49 L2276.47,1042.49 L2276.47,1046.83 L2280.81,1046.83 L2280.81,1060.04 L2302.76,1060.04 L2302.76,1046.83 L2324.76,1046.83 L2324.76,1051.23 L2329.1,1051.23 L2329.1,1055.63 L2337.9,1055.63 L2337.9,1051.23 L2351.05,1051.23 L2351.05,1055.63 L2359.85,1055.63 L2359.85,1064.41 L2364.25,1064.41 L2364.25,1073.18 L2368.65,1073.18 L2368.65,1081.98 L2381.8,1081.98 L2381.8,1086.35 L2386.2,1086.35 L2386.2,1090.75 L2390.6,1090.75 L2390.6,1099.53 L2395,1099.53 L2395,1108.3 L2390.6,1108.3 L2390.6,1117.1 L2395,1117.1 L2395,1121.47 L2399.34,1121.47 L2399.34,1125.87 L2403.74,1125.87 L2403.74,1134.64 L2408.14,1134.64 L2408.14,1139.05 L2412.54,1139.05 L2412.54,1147.82 L2416.94,1147.82 L2416.94,1178.56 L2412.54,1178.56 L2412.54,1182.91 L2408.14,1182.91 L2408.14,1187.34 L2403.74,1187.34 L2403.74,1191.71 L2412.54,1191.71 L2412.54,1196.11 L2430.09,1196.11 L2430.09,1200.48 L2438.89,1200.48 L2438.89,1231.23 L2434.49,1231.23 L2434.49,1240 L2430.09,1240 L2430.09,1248.8 L2425.69,1248.8 L2425.69,1253.14 L2416.94,1253.14 L2416.94,1266.35 L2430.09,1266.35 L2430.09,1279.52 L2434.49,1279.52 L2434.49,1301.47 L2443.29,1301.47 L2443.29,1305.87 L2447.63,1305.87 L2447.63,1310.27 L2452.03,1310.27 L2452.03,1314.64 L2456.43,1314.64 L2456.43,1323.44 L2452.03,1323.44 L2452.03,1332.21 L2456.43,1332.21 L2456.43,1358.56 L2452.03,1358.56 L2452.03,1362.9 L2447.63,1362.9 L2447.63,1371.73 L2443.29,1371.73 L2443.29,1376.1 L2438.89,1376.1 L2438.89,1380.47 L2434.49,1380.47 L2434.49,1384.88 L2430.09,1384.88 L2430.09,1389.28 L2421.35,1389.28 L2421.35,1393.68 L2416.94,1393.68 L2416.94,1398.02 L2412.54,1398.02 L2412.54,1415.59 L2408.14,1415.59 L2408.14,1437.6 L2403.74,1437.6 L2403.74,1442 L2399.34,1442 L2399.34,1455.11 L2395,1455.11 L2395,1472.72 L2390.6,1472.72 L2390.6,1477.09 L2386.2,1477.09 L2386.2,1556.1 L2390.6,1556.1 L2390.6,1604.39 L2395,1604.39 L2395,1613.16 L2399.34,1613.16 L2399.34,1621.96 L2403.74,1621.96 L2403.74,1626.34 L2412.54,1626.34 L2412.54,1630.74 L2421.35,1630.74 L2421.35,1635.11 L2434.49,1635.11 L2434.49,1643.91 L2438.89,1643.91 L2438.89,1648.31 L2447.63,1648.31 L2447.63,1652.65 L2452.03,1652.65 L2452.03,1657.11 L2456.43,1657.11 L2456.43,1670.23 L2460.84,1670.23 L2460.84,1683.43 L2465.24,1683.43 L2465.24,1700.97 L2469.64,1700.97 L2469.64,1709.78 L2473.98,1709.78 L2473.98,1714.15 L2478.38,1714.15 L2478.38,1722.92 L2482.78,1722.92 L2482.78,1744.86 L2487.18,1744.86 L2487.18,1766.84 L2482.78,1766.84 L2482.78,1775.61 L2478.38,1775.61 L2478.38,1784.38 L2473.98,1784.38 L2473.98,1793.19 L2469.64,1793.19 L2469.64,1797.56 L2460.84,1797.56 L2460.84,1801.96 L2452.03,1801.96 L2452.03,1806.33 L2447.63,1806.33 L2447.63,1810.73 L2443.29,1810.73 L2443.29,1819.5 L2438.89,1819.5 L2438.89,1832.65 L2434.49,1832.65" vector-effect="none"/>
   <path fill-rule="evenodd" d="M1659.29,1558.57 L1619.67,1559.02 L1534.67,1476.55 L1437.78,1486.61 L1393.05,1466.27 L1285.79,1463.07 L1169.49,1439.08 L1126.2,1430.27 L1126.2,1428.8 L1130.61,1428.8 L1130.61,1420.05 L1135.01,1420.05 L1135.01,1402.45 L1130.61,1402.45 L1130.61,1393.68 L1126.2,1393.68 L1126.2,1389.28 L1130.61,1389.28 L1130.61,1380.47 L1139.41,1380.47 L1139.41,1371.73 L1143.81,1371.73 L1143.81,1345.39 L1139.41,1345.39 L1139.41,1340.99 L1130.61,1340.99 L1130.61,1336.58 L1126.2,1336.58 L1126.2,1327.84 L1121.8,1327.84 L1121.8,1319.04 L1117.46,1319.04 L1117.46,1314.64 L1108.66,1314.64 L1108.66,1305.87 L1099.86,1305.87 L1099.86,1297.09 L1095.52,1297.09 L1095.52,1292.72 L1091.12,1292.72 L1091.12,1283.92 L1095.52,1283.92 L1095.52,1257.6 L1091.12,1257.6 L1091.12,1240 L1095.52,1240 L1095.52,1231.23 L1104.26,1231.23 L1104.26,1226.86 L1117.46,1226.86 L1117.46,1222.49 L1126.2,1222.49 L1126.2,1218.02 L1135.01,1218.02 L1135.01,1213.68 L1139.41,1213.68 L1139.41,1209.28 L1143.81,1209.28 L1143.81,1200.48 L1148.15,1200.48 L1148.15,1191.71 L1152.55,1191.71 L1152.55,1187.34 L1156.95,1187.34 L1156.95,1178.56 L1161.35,1178.56 L1161.35,1174.16 L1165.75,1174.16 L1165.75,1169.76 L1170.1,1169.76 L1170.1,1165.36 L1174.5,1165.36 L1174.5,1160.99 L1178.9,1160.99 L1178.9,1156.59 L1183.3,1156.59 L1183.3,1152.22 L1187.7,1152.22 L1187.7,1147.82 L1192.1,1147.82 L1192.1,1139.05 L1196.44,1139.05 L1196.44,1125.87 L1200.84,1125.87 L1200.84,1117.1 L1205.24,1117.1 L1205.24,1112.7 L1209.65,1112.7 L1209.65,1108.3 L1218.39,1108.3 L1218.39,1103.93 L1222.79,1103.93 L1222.79,1090.75 L1227.19,1090.75 L1227.19,1081.98 L1231.59,1081.98 L1231.59,1073.18 L1235.99,1073.18 L1235.99,1064.41 L1240.39,1064.41 L1240.39,1060.04 L1244.73,1060.04 L1244.73,1055.63 L1249.14,1055.63 L1249.14,1051.23 L1257.94,1051.23 L1257.94,1046.83 L1262.34,1046.83 L1262.34,1042.49 L1266.68,1042.49 L1266.68,1033.69 L1271.08,1033.69 L1271.08,1029.29 L1275.48,1029.29 L1275.48,1016.11 L1279.88,1016.11 L1279.88,1002.97 L1275.48,1002.97 L1275.48,998.54 L1284.28,998.54 L1284.28,989.768 L1288.68,989.768 L1288.68,980.996 L1293.03,980.996 L1293.03,967.823 L1297.43,967.823 L1297.43,941.476 L1293.03,941.476 L1293.03,937.105 L1297.43,937.105 L1297.43,923.932 L1301.83,923.932 L1301.83,915.13 L1306.23,915.13 L1306.23,906.357 L1310.63,906.357 L1310.63,901.986 L1314.97,901.986 L1314.97,897.585 L1319.37,897.585 L1319.37,893.184 L1323.77,893.184 L1323.77,884.412 L1328.17,884.412 L1328.17,871.239 L1332.58,871.239 L1332.58,836.12 L1328.17,836.12 L1328.17,822.977 L1332.58,822.977 L1332.58,783.397 L1336.98,783.397 L1336.98,774.655 L1341.32,774.655 L1341.32,752.709 L1345.72,752.709 L1345.72,739.536 L1350.12,739.536 L1350.12,735.135 L1354.52,735.135 L1354.52,721.962 L1358.92,721.962 L1358.92,717.591 L1363.26,717.591 L1363.26,713.159 L1376.47,713.159 L1376.47,708.819 L1380.87,708.819 L1380.87,704.417 L1385.27,704.417 L1385.27,691.244 L1389.61,691.244 L1389.61,669.299 L1394.01,669.299 L1394.01,660.527 L1398.41,660.527 L1398.41,651.724 L1402.81,651.724 L1402.81,638.521 L1407.21,638.521 L1407.21,625.408 L1411.56,625.408 L1411.56,616.606 L1415.96,616.606 L1415.96,612.235 L1420.36,612.235 L1420.36,603.402 L1424.76,603.402 L1424.76,599.061 L1429.16,599.061 L1429.16,585.858 L1433.56,585.858 L1433.56,581.487 L1437.9,581.487 L1437.9,577.086 L1442.3,577.086 L1442.3,572.745 L1446.7,572.745 L1446.7,568.284 L1451.11,568.284 L1451.11,555.14 L1455.51,555.14 L1455.51,550.739 L1459.85,550.739 L1459.85,546.368 L1464.25,546.368 L1464.25,541.967 L1473.05,541.967 L1473.05,520.022 L1477.45,520.022 L1477.45,506.848 L1481.85,506.848 L1481.85,502.478 L1495,502.478 L1495,498.076 L1508.14,498.076 L1508.14,493.675 L1512.54,493.675 L1512.54,489.304 L1521.34,489.304 L1521.34,484.903 L1525.74,484.903 L1525.74,480.532 L1530.14,480.532 L1530.14,462.958 L1534.49,462.958 L1534.49,454.186 L1538.89,454.186 L1538.89,449.784 L1543.29,449.784 L1543.29,441.012 L1547.69,441.012 L1547.69,432.24 L1552.09,432.24 L1552.09,423.408 L1556.43,423.408 L1556.43,410.295 L1560.83,410.295 L1560.83,397.091 L1556.43,397.091 L1556.43,392.75 L1552.09,392.75 L1552.09,388.349 L1543.29,388.349 L1543.29,383.948 L1530.14,383.948 L1530.14,379.547 L1525.74,379.547 L1525.74,353.201 L1521.34,353.201 L1521.34,348.799 L1525.74,348.799 L1525.74,335.626 L1530.14,335.626 L1530.14,331.255 L1538.89,331.255 L1538.89,326.854 L1552.09,326.854 L1552.09,322.483 L1560.83,322.483 L1560.83,318.082 L1565.23,318.082 L1565.23,287.364 L1556.43,287.364 L1556.43,282.963 L1552.09,282.963 L1552.09,274.191 L1547.69,274.191 L1547.69,239.072 L1552.09,239.072 L1552.09,234.671 L1556.43,234.671 L1556.43,225.899 L1560.83,225.899 L1560.83,221.498 L1565.23,221.498 L1565.23,212.726 L1569.63,212.726 L1569.63,203.893 L1574.04,203.893 L1574.04,199.552 L1569.63,199.552 L1569.63,186.349 L1565.23,186.349 L1565.23,181.978 L1560.83,181.978 L1560.83,177.607 L1565.23,177.607 L1565.23,164.434 L1560.83,164.434 L1560.83,151.23 L1565.23,151.23 L1565.23,146.859 L1569.63,146.859 L1569.63,138.087 L1574.04,138.087 L1574.04,129.315 L1569.63,129.315 L1569.63,124.914 L1578.44,124.914 L1578.44,129.315 L1587.18,129.315 L1587.18,120.513 L1591.58,120.513 L1591.58,102.969 L1595.98,102.969 L1595.98,94.1964 L1609.12,94.1964 L1609.12,89.7953 L1613.53,89.7953 L1613.53,85.3942 L1617.93,85.3942 L1617.93,80.993 L1622.33,80.993 L1622.33,76.622 L1626.73,76.622 L1626.73,72.2209 L1631.07,72.2209 L1631.07,67.8499 L1644.27,67.8499 L1644.27,63.4789 L1648.67,63.4789 L1648.67,67.8499 L1653.01,67.8499 L1653.01,63.4789 L1661.82,63.4789 L1661.82,59.0476 L1666.22,59.0476 L1666.22,67.8499 L1670.62,67.8499 L1670.62,72.2209 L1675.02,72.2209 L1675.02,80.993 L1679.36,80.993 L1679.36,85.3942 L1683.76,85.3942 L1683.76,89.7953 L1688.16,89.7953 L1688.16,94.1964 L1692.56,94.1964 L1692.56,98.5373 L1701.31,98.5373 L1701.31,94.1964 L1718.91,94.1964 L1718.91,89.7953 L1745.26,89.7953 L1745.26,94.1964 L1749.6,94.1964 L1749.6,98.5373 L1758.4,98.5373 L1758.4,102.969 L1762.8,102.969 L1762.8,107.34 L1780.35,107.34 L1780.35,111.741 L1797.89,111.741 L1797.89,116.112 L1802.29,116.112 L1802.29,120.513 L1806.69,120.513 L1806.69,124.914 L1811.09,124.914 L1811.09,129.315 L1819.9,129.315 L1819.9,133.656 L1837.44,133.656 L1837.44,138.087 L1846.18,138.087 L1846.18,142.488 L1863.79,142.488 L1863.79,146.859 L1903.28,146.859 L1903.28,155.632 L1907.68,155.632 L1907.68,160.033 L1912.08,160.033 L1912.08,164.434 L1920.82,164.434 L1920.82,168.775 L1929.62,168.775 L1929.62,173.236 L1934.02,173.236 L1934.02,177.607 L1947.17,177.607 L1947.17,186.349 L1951.57,186.349 L1951.57,208.355 L1955.97,208.355 L1955.97,217.097 L1960.37,217.097 L1960.37,221.498 L1964.71,221.498 L1964.71,234.671 L1969.11,234.671 L1969.11,243.443 L1973.51,243.443 L1973.51,247.844 L1977.92,247.844 L1977.92,261.018 L1982.32,261.018 L1982.32,265.389 L1986.72,265.389 L1986.72,278.562 L1991.06,278.562 L1991.06,287.364 L1995.46,287.364 L1995.46,326.854 L1986.72,326.854 L1986.72,331.255 L1977.92,331.255 L1977.92,335.626 L1973.51,335.626 L1973.51,340.027 L1969.11,340.027 L1969.11,344.428 L1964.71,344.428 L1964.71,348.799 L1960.37,348.799 L1960.37,353.201 L1955.97,353.201 L1955.97,366.374 L1960.37,366.374 L1960.37,375.146 L1964.71,375.146 L1964.71,388.349 L1960.37,388.349 L1960.37,405.894 L1955.97,405.894 L1955.97,419.067 L1951.57,419.067 L1951.57,423.408 L1955.97,423.408 L1955.97,432.24 L1951.57,432.24 L1951.57,441.012 L1947.17,441.012 L1947.17,454.186 L1951.57,454.186 L1951.57,467.359 L1955.97,467.359 L1955.97,471.73 L1977.92,471.73 L1977.92,476.131 L1982.32,476.131 L1982.32,484.903 L1986.72,484.903 L1986.72,493.675 L1991.06,493.675 L1991.06,502.478 L1995.46,502.478 L1995.46,511.25 L1999.86,511.25 L1999.86,546.368 L2004.26,546.368 L2004.26,550.739 L2008.66,550.739 L2008.66,559.542 L2013,559.542 L2013,563.943 L2017.41,563.943 L2017.41,581.487 L2021.81,581.487 L2021.81,629.779 L2026.21,629.779 L2026.21,642.982 L2030.61,642.982 L2030.61,660.527 L2039.35,660.527 L2039.35,664.898 L2035.01,664.898 L2035.01,673.67 L2043.75,673.67 L2043.75,678.101 L2048.15,678.101 L2048.15,682.472 L2052.55,682.472 L2052.55,691.244 L2056.96,691.244 L2056.96,704.417 L2061.3,704.417 L2061.3,708.819 L2065.7,708.819 L2065.7,713.159 L2083.3,713.159 L2083.3,717.591 L2069.31,733.266 L2036.34,775.861 L1982.74,827.167 L1917.2,866.717 L1851.67,976.323 L1809.1,1071.1 L1714.81,1274.64 L1690.03,1372.55 L1652.35,1478.14 L1655.43,1555.62 L1659.29,1558.57" vector-effect="none"/>

                 </g>
 <defs/>
 <g fill-rule="evenodd" id="Saint Peter" stroke="black" fill="none" stroke-linecap="square" inkscape:groupmode="layer" stroke-width="1" stroke-linejoin="bevel" inkscape:label="Saint Peter">

    
   <path fill-rule="evenodd" d="M1659.29,1558.57 L1619.67,1559.02 L1534.67,1476.55 L1437.78,1486.61 L1393.05,1466.27 L1285.79,1463.07 L1169.49,1439.08 L1126.2,1430.27 L1126.2,1428.8 L1130.61,1428.8 L1130.61,1420.05 L1135.01,1420.05 L1135.01,1402.45 L1130.61,1402.45 L1130.61,1393.68 L1126.2,1393.68 L1126.2,1389.28 L1130.61,1389.28 L1130.61,1380.47 L1139.41,1380.47 L1139.41,1371.73 L1143.81,1371.73 L1143.81,1345.39 L1139.41,1345.39 L1139.41,1340.99 L1130.61,1340.99 L1130.61,1336.58 L1126.2,1336.58 L1126.2,1327.84 L1121.8,1327.84 L1121.8,1319.04 L1117.46,1319.04 L1117.46,1314.64 L1108.66,1314.64 L1108.66,1305.87 L1099.86,1305.87 L1099.86,1297.09 L1095.52,1297.09 L1095.52,1292.72 L1091.12,1292.72 L1091.12,1283.92 L1095.52,1283.92 L1095.52,1257.6 L1091.12,1257.6 L1091.12,1240 L1095.52,1240 L1095.52,1231.23 L1104.26,1231.23 L1104.26,1226.86 L1117.46,1226.86 L1117.46,1222.49 L1126.2,1222.49 L1126.2,1218.02 L1135.01,1218.02 L1135.01,1213.68 L1139.41,1213.68 L1139.41,1209.28 L1143.81,1209.28 L1143.81,1200.48 L1148.15,1200.48 L1148.15,1191.71 L1152.55,1191.71 L1152.55,1187.34 L1156.95,1187.34 L1156.95,1178.56 L1161.35,1178.56 L1161.35,1174.16 L1165.75,1174.16 L1165.75,1169.76 L1170.1,1169.76 L1170.1,1165.36 L1174.5,1165.36 L1174.5,1160.99 L1178.9,1160.99 L1178.9,1156.59 L1183.3,1156.59 L1183.3,1152.22 L1187.7,1152.22 L1187.7,1147.82 L1192.1,1147.82 L1192.1,1139.05 L1196.44,1139.05 L1196.44,1125.87 L1200.84,1125.87 L1200.84,1117.1 L1205.24,1117.1 L1205.24,1112.7 L1209.65,1112.7 L1209.65,1108.3 L1218.39,1108.3 L1218.39,1103.93 L1222.79,1103.93 L1222.79,1090.75 L1227.19,1090.75 L1227.19,1081.98 L1231.59,1081.98 L1231.59,1073.18 L1235.99,1073.18 L1235.99,1064.41 L1240.39,1064.41 L1240.39,1060.04 L1244.73,1060.04 L1244.73,1055.63 L1249.14,1055.63 L1249.14,1051.23 L1257.94,1051.23 L1257.94,1046.83 L1262.34,1046.83 L1262.34,1042.49 L1266.68,1042.49 L1266.68,1033.69 L1271.08,1033.69 L1271.08,1029.29 L1275.48,1029.29 L1275.48,1016.11 L1279.88,1016.11 L1279.88,1002.97 L1275.48,1002.97 L1275.48,998.54 L1284.28,998.54 L1284.28,989.768 L1288.68,989.768 L1288.68,980.996 L1293.03,980.996 L1293.03,967.823 L1297.43,967.823 L1297.43,941.476 L1293.03,941.476 L1293.03,937.105 L1297.43,937.105 L1297.43,923.932 L1301.83,923.932 L1301.83,915.13 L1306.23,915.13 L1306.23,906.357 L1310.63,906.357 L1310.63,901.986 L1314.97,901.986 L1314.97,897.585 L1319.37,897.585 L1319.37,893.184 L1323.77,893.184 L1323.77,884.412 L1328.17,884.412 L1328.17,871.239 L1332.58,871.239 L1332.58,836.12 L1328.17,836.12 L1328.17,822.977 L1332.58,822.977 L1332.58,783.397 L1336.98,783.397 L1336.98,774.655 L1341.32,774.655 L1341.32,752.709 L1345.72,752.709 L1345.72,739.536 L1350.12,739.536 L1350.12,735.135 L1354.52,735.135 L1354.52,721.962 L1358.92,721.962 L1358.92,717.591 L1363.26,717.591 L1363.26,713.159 L1376.47,713.159 L1376.47,708.819 L1380.87,708.819 L1380.87,704.417 L1385.27,704.417 L1385.27,691.244 L1389.61,691.244 L1389.61,669.299 L1394.01,669.299 L1394.01,660.527 L1398.41,660.527 L1398.41,651.724 L1402.81,651.724 L1402.81,638.521 L1407.21,638.521 L1407.21,625.408 L1411.56,625.408 L1411.56,616.606 L1415.96,616.606 L1415.96,612.235 L1420.36,612.235 L1420.36,603.402 L1424.76,603.402 L1424.76,599.061 L1429.16,599.061 L1429.16,585.858 L1433.56,585.858 L1433.56,581.487 L1437.9,581.487 L1437.9,577.086 L1442.3,577.086 L1442.3,572.745 L1446.7,572.745 L1446.7,568.284 L1451.11,568.284 L1451.11,555.14 L1455.51,555.14 L1455.51,550.739 L1459.85,550.739 L1459.85,546.368 L1464.25,546.368 L1464.25,541.967 L1473.05,541.967 L1473.05,520.022 L1477.45,520.022 L1477.45,506.848 L1481.85,506.848 L1481.85,502.478 L1495,502.478 L1495,498.076 L1508.14,498.076 L1508.14,493.675 L1512.54,493.675 L1512.54,489.304 L1521.34,489.304 L1521.34,484.903 L1525.74,484.903 L1525.74,480.532 L1530.14,480.532 L1530.14,462.958 L1534.49,462.958 L1534.49,454.186 L1538.89,454.186 L1538.89,449.784 L1543.29,449.784 L1543.29,441.012 L1547.69,441.012 L1547.69,432.24 L1552.09,432.24 L1552.09,423.408 L1556.43,423.408 L1556.43,410.295 L1560.83,410.295 L1560.83,397.091 L1556.43,397.091 L1556.43,392.75 L1552.09,392.75 L1552.09,388.349 L1543.29,388.349 L1543.29,383.948 L1530.14,383.948 L1530.14,379.547 L1525.74,379.547 L1525.74,353.201 L1521.34,353.201 L1521.34,348.799 L1525.74,348.799 L1525.74,335.626 L1530.14,335.626 L1530.14,331.255 L1538.89,331.255 L1538.89,326.854 L1552.09,326.854 L1552.09,322.483 L1560.83,322.483 L1560.83,318.082 L1565.23,318.082 L1565.23,287.364 L1556.43,287.364 L1556.43,282.963 L1552.09,282.963 L1552.09,274.191 L1547.69,274.191 L1547.69,239.072 L1552.09,239.072 L1552.09,234.671 L1556.43,234.671 L1556.43,225.899 L1560.83,225.899 L1560.83,221.498 L1565.23,221.498 L1565.23,212.726 L1569.63,212.726 L1569.63,203.893 L1574.04,203.893 L1574.04,199.552 L1569.63,199.552 L1569.63,186.349 L1565.23,186.349 L1565.23,181.978 L1560.83,181.978 L1560.83,177.607 L1565.23,177.607 L1565.23,164.434 L1560.83,164.434 L1560.83,151.23 L1565.23,151.23 L1565.23,146.859 L1569.63,146.859 L1569.63,138.087 L1574.04,138.087 L1574.04,129.315 L1569.63,129.315 L1569.63,124.914 L1578.44,124.914 L1578.44,129.315 L1587.18,129.315 L1587.18,120.513 L1591.58,120.513 L1591.58,102.969 L1595.98,102.969 L1595.98,94.1964 L1609.12,94.1964 L1609.12,89.7953 L1613.53,89.7953 L1613.53,85.3942 L1617.93,85.3942 L1617.93,80.993 L1622.33,80.993 L1622.33,76.622 L1626.73,76.622 L1626.73,72.2209 L1631.07,72.2209 L1631.07,67.8499 L1644.27,67.8499 L1644.27,63.4789 L1648.67,63.4789 L1648.67,67.8499 L1653.01,67.8499 L1653.01,63.4789 L1661.82,63.4789 L1661.82,59.0476 L1666.22,59.0476 L1666.22,67.8499 L1670.62,67.8499 L1670.62,72.2209 L1675.02,72.2209 L1675.02,80.993 L1679.36,80.993 L1679.36,85.3942 L1683.76,85.3942 L1683.76,89.7953 L1688.16,89.7953 L1688.16,94.1964 L1692.56,94.1964 L1692.56,98.5373 L1701.31,98.5373 L1701.31,94.1964 L1718.91,94.1964 L1718.91,89.7953 L1745.26,89.7953 L1745.26,94.1964 L1749.6,94.1964 L1749.6,98.5373 L1758.4,98.5373 L1758.4,102.969 L1762.8,102.969 L1762.8,107.34 L1780.35,107.34 L1780.35,111.741 L1797.89,111.741 L1797.89,116.112 L1802.29,116.112 L1802.29,120.513 L1806.69,120.513 L1806.69,124.914 L1811.09,124.914 L1811.09,129.315 L1819.9,129.315 L1819.9,133.656 L1837.44,133.656 L1837.44,138.087 L1846.18,138.087 L1846.18,142.488 L1863.79,142.488 L1863.79,146.859 L1903.28,146.859 L1903.28,155.632 L1907.68,155.632 L1907.68,160.033 L1912.08,160.033 L1912.08,164.434 L1920.82,164.434 L1920.82,168.775 L1929.62,168.775 L1929.62,173.236 L1934.02,173.236 L1934.02,177.607 L1947.17,177.607 L1947.17,186.349 L1951.57,186.349 L1951.57,208.355 L1955.97,208.355 L1955.97,217.097 L1960.37,217.097 L1960.37,221.498 L1964.71,221.498 L1964.71,234.671 L1969.11,234.671 L1969.11,243.443 L1973.51,243.443 L1973.51,247.844 L1977.92,247.844 L1977.92,261.018 L1982.32,261.018 L1982.32,265.389 L1986.72,265.389 L1986.72,278.562 L1991.06,278.562 L1991.06,287.364 L1995.46,287.364 L1995.46,326.854 L1986.72,326.854 L1986.72,331.255 L1977.92,331.255 L1977.92,335.626 L1973.51,335.626 L1973.51,340.027 L1969.11,340.027 L1969.11,344.428 L1964.71,344.428 L1964.71,348.799 L1960.37,348.799 L1960.37,353.201 L1955.97,353.201 L1955.97,366.374 L1960.37,366.374 L1960.37,375.146 L1964.71,375.146 L1964.71,388.349 L1960.37,388.349 L1960.37,405.894 L1955.97,405.894 L1955.97,419.067 L1951.57,419.067 L1951.57,423.408 L1955.97,423.408 L1955.97,432.24 L1951.57,432.24 L1951.57,441.012 L1947.17,441.012 L1947.17,454.186 L1951.57,454.186 L1951.57,467.359 L1955.97,467.359 L1955.97,471.73 L1977.92,471.73 L1977.92,476.131 L1982.32,476.131 L1982.32,484.903 L1986.72,484.903 L1986.72,493.675 L1991.06,493.675 L1991.06,502.478 L1995.46,502.478 L1995.46,511.25 L1999.86,511.25 L1999.86,546.368 L2004.26,546.368 L2004.26,550.739 L2008.66,550.739 L2008.66,559.542 L2013,559.542 L2013,563.943 L2017.41,563.943 L2017.41,581.487 L2021.81,581.487 L2021.81,629.779 L2026.21,629.779 L2026.21,642.982 L2030.61,642.982 L2030.61,660.527 L2039.35,660.527 L2039.35,664.898 L2035.01,664.898 L2035.01,673.67 L2043.75,673.67 L2043.75,678.101 L2048.15,678.101 L2048.15,682.472 L2052.55,682.472 L2052.55,691.244 L2056.96,691.244 L2056.96,704.417 L2061.3,704.417 L2061.3,708.819 L2065.7,708.819 L2065.7,713.159 L2083.3,713.159 L2083.3,717.591 L2069.31,733.266 L2036.34,775.861 L1982.74,827.167 L1917.2,866.717 L1851.67,976.323 L1809.1,1071.1 L1714.81,1274.64 L1690.03,1372.55 L1652.35,1478.14 L1655.43,1555.62 L1659.29,1558.57" vector-effect="none"/>

                 </g>
 <defs/>
 <g fill-rule="evenodd" id="Saint Georges" stroke="black" fill="none" stroke-linecap="square" inkscape:groupmode="layer" stroke-width="1" stroke-linejoin="bevel" inkscape:label="Saint Georges">

    
   <path fill-rule="evenodd" d="M2434.49,1832.65 L2266.64,1834.7 L2141.42,1815.28 L1984.91,1778.39 L1914.85,1725.51 L1828.34,1685.36 L1789.63,1661.39 L1711.8,1598.36 L1659.29,1558.57 L1655.43,1555.62 L1652.35,1478.14 L1690.03,1372.55 L1714.81,1274.64 L1809.1,1071.1 L1851.67,976.323 L1917.2,866.717 L1982.74,827.167 L2036.34,775.861 L2069.31,733.266 L2083.3,717.591 L2096.44,717.591 L2096.44,721.962 L2100.85,721.962 L2100.85,726.363 L2105.25,726.363 L2105.25,735.135 L2109.59,735.135 L2109.59,743.937 L2113.99,743.937 L2113.99,748.278 L2118.39,748.278 L2118.39,752.709 L2122.79,752.709 L2122.79,783.397 L2127.19,783.397 L2127.19,796.6 L2122.79,796.6 L2122.79,814.175 L2127.19,814.175 L2127.19,822.977 L2131.59,822.977 L2131.59,831.719 L2135.93,831.719 L2135.93,836.12 L2140.34,836.12 L2140.34,840.521 L2144.74,840.521 L2144.74,849.293 L2140.34,849.293 L2140.34,862.467 L2135.93,862.467 L2135.93,884.412 L2140.34,884.412 L2140.34,893.184 L2144.74,893.184 L2144.74,906.357 L2149.14,906.357 L2149.14,910.759 L2157.88,910.759 L2157.88,915.13 L2162.28,915.13 L2162.28,923.932 L2171.08,923.932 L2171.08,928.303 L2175.48,928.303 L2175.48,937.105 L2179.89,937.105 L2179.89,941.476 L2184.23,941.476 L2184.23,950.278 L2188.63,950.278 L2188.63,959.051 L2193.03,959.051 L2193.03,967.823 L2197.43,967.823 L2197.43,972.224 L2206.17,972.224 L2206.17,976.595 L2214.97,976.595 L2214.97,980.996 L2223.78,980.996 L2223.78,985.367 L2232.52,985.367 L2232.52,994.169 L2236.92,994.169 L2236.92,998.54 L2232.52,998.54 L2232.52,1007.37 L2228.18,1007.37 L2228.18,1016.11 L2232.52,1016.11 L2232.52,1029.29 L2236.92,1029.29 L2236.92,1033.69 L2245.72,1033.69 L2245.72,1038.03 L2263.27,1038.03 L2263.27,1042.49 L2276.47,1042.49 L2276.47,1046.83 L2280.81,1046.83 L2280.81,1060.04 L2302.76,1060.04 L2302.76,1046.83 L2324.76,1046.83 L2324.76,1051.23 L2329.1,1051.23 L2329.1,1055.63 L2337.9,1055.63 L2337.9,1051.23 L2351.05,1051.23 L2351.05,1055.63 L2359.85,1055.63 L2359.85,1064.41 L2364.25,1064.41 L2364.25,1073.18 L2368.65,1073.18 L2368.65,1081.98 L2381.8,1081.98 L2381.8,1086.35 L2386.2,1086.35 L2386.2,1090.75 L2390.6,1090.75 L2390.6,1099.53 L2395,1099.53 L2395,1108.3 L2390.6,1108.3 L2390.6,1117.1 L2395,1117.1 L2395,1121.47 L2399.34,1121.47 L2399.34,1125.87 L2403.74,1125.87 L2403.74,1134.64 L2408.14,1134.64 L2408.14,1139.05 L2412.54,1139.05 L2412.54,1147.82 L2416.94,1147.82 L2416.94,1178.56 L2412.54,1178.56 L2412.54,1182.91 L2408.14,1182.91 L2408.14,1187.34 L2403.74,1187.34 L2403.74,1191.71 L2412.54,1191.71 L2412.54,1196.11 L2430.09,1196.11 L2430.09,1200.48 L2438.89,1200.48 L2438.89,1231.23 L2434.49,1231.23 L2434.49,1240 L2430.09,1240 L2430.09,1248.8 L2425.69,1248.8 L2425.69,1253.14 L2416.94,1253.14 L2416.94,1266.35 L2430.09,1266.35 L2430.09,1279.52 L2434.49,1279.52 L2434.49,1301.47 L2443.29,1301.47 L2443.29,1305.87 L2447.63,1305.87 L2447.63,1310.27 L2452.03,1310.27 L2452.03,1314.64 L2456.43,1314.64 L2456.43,1323.44 L2452.03,1323.44 L2452.03,1332.21 L2456.43,1332.21 L2456.43,1358.56 L2452.03,1358.56 L2452.03,1362.9 L2447.63,1362.9 L2447.63,1371.73 L2443.29,1371.73 L2443.29,1376.1 L2438.89,1376.1 L2438.89,1380.47 L2434.49,1380.47 L2434.49,1384.88 L2430.09,1384.88 L2430.09,1389.28 L2421.35,1389.28 L2421.35,1393.68 L2416.94,1393.68 L2416.94,1398.02 L2412.54,1398.02 L2412.54,1415.59 L2408.14,1415.59 L2408.14,1437.6 L2403.74,1437.6 L2403.74,1442 L2399.34,1442 L2399.34,1455.11 L2395,1455.11 L2395,1472.72 L2390.6,1472.72 L2390.6,1477.09 L2386.2,1477.09 L2386.2,1556.1 L2390.6,1556.1 L2390.6,1604.39 L2395,1604.39 L2395,1613.16 L2399.34,1613.16 L2399.34,1621.96 L2403.74,1621.96 L2403.74,1626.34 L2412.54,1626.34 L2412.54,1630.74 L2421.35,1630.74 L2421.35,1635.11 L2434.49,1635.11 L2434.49,1643.91 L2438.89,1643.91 L2438.89,1648.31 L2447.63,1648.31 L2447.63,1652.65 L2452.03,1652.65 L2452.03,1657.11 L2456.43,1657.11 L2456.43,1670.23 L2460.84,1670.23 L2460.84,1683.43 L2465.24,1683.43 L2465.24,1700.97 L2469.64,1700.97 L2469.64,1709.78 L2473.98,1709.78 L2473.98,1714.15 L2478.38,1714.15 L2478.38,1722.92 L2482.78,1722.92 L2482.78,1744.86 L2487.18,1744.86 L2487.18,1766.84 L2482.78,1766.84 L2482.78,1775.61 L2478.38,1775.61 L2478.38,1784.38 L2473.98,1784.38 L2473.98,1793.19 L2469.64,1793.19 L2469.64,1797.56 L2460.84,1797.56 L2460.84,1801.96 L2452.03,1801.96 L2452.03,1806.33 L2447.63,1806.33 L2447.63,1810.73 L2443.29,1810.73 L2443.29,1819.5 L2438.89,1819.5 L2438.89,1832.65 L2434.49,1832.65" vector-effect="none"/>

                 </g>
 <defs/>
 <g fill-rule="evenodd" id="Saint Anthon" stroke="black" fill="none" stroke-linecap="square" inkscape:groupmode="layer" stroke-width="1" stroke-linejoin="bevel" inkscape:label="Saint Anthon">

    
   <path fill-rule="evenodd" d="M2434.49,1832.65 L2434.49,1841.48 L2430.09,1841.48 L2430.09,1850.22 L2425.69,1850.22 L2425.69,1863.42 L2421.35,1863.42 L2421.35,1867.77 L2425.69,1867.77 L2425.69,1880.97 L2421.35,1880.97 L2421.35,1885.34 L2425.69,1885.34 L2425.69,1902.88 L2434.49,1902.88 L2434.49,1907.35 L2438.89,1907.35 L2438.89,1916.09 L2447.63,1916.09 L2447.63,1920.49 L2452.03,1920.49 L2452.03,1924.89 L2456.43,1924.89 L2456.43,1929.26 L2460.84,1929.26 L2460.84,1933.66 L2465.24,1933.66 L2465.24,1942.46 L2469.64,1942.46 L2469.64,1955.61 L2473.98,1955.61 L2473.98,1960.01 L2478.38,1960.01 L2478.38,1964.38 L2482.78,1964.38 L2482.78,1968.78 L2487.18,1968.78 L2487.18,1981.95 L2491.58,1981.95 L2491.58,1990.73 L2495.92,1990.73 L2495.92,1995.13 L2500.32,1995.13 L2500.32,2003.9 L2504.73,2003.9 L2504.73,2008.3 L2509.13,2008.3 L2509.13,2025.84 L2513.53,2025.84 L2513.53,2030.25 L2517.93,2030.25 L2517.93,2034.62 L2522.27,2034.62 L2522.27,2078.54 L2517.93,2078.54 L2517.93,2091.74 L2513.53,2091.74 L2513.53,2104.88 L2509.13,2104.88 L2509.13,2109.26 L2504.73,2109.26 L2504.73,2113.66 L2500.32,2113.66 L2500.32,2122.4 L2495.92,2122.4 L2495.92,2126.83 L2491.58,2126.83 L2491.58,2131.2 L2487.18,2131.2 L2487.18,2135.6 L2482.78,2135.6 L2482.78,2140 L2478.38,2140 L2478.38,2148.78 L2473.98,2148.78 L2473.98,2153.18 L2469.64,2153.18 L2469.64,2166.35 L2460.84,2166.35 L2460.84,2170.72 L2456.43,2170.72 L2456.43,2188.29 L2452.03,2188.29 L2452.03,2192.67 L2443.29,2192.67 L2443.29,2197.07 L2438.89,2197.07 L2438.89,2201.47 L2434.49,2201.47 L2434.49,2205.84 L2430.09,2205.84 L2430.09,2210.24 L2425.69,2210.24 L2425.69,2214.61 L2412.54,2214.61 L2412.54,2223.41 L2408.14,2223.41 L2408.14,2236.59 L2403.74,2236.59 L2403.74,2240.96 L2399.34,2240.96 L2399.34,2245.36 L2395,2245.36 L2395,2249.73 L2390.6,2249.73 L2390.6,2254.13 L2386.2,2254.13 L2386.2,2258.53 L2381.8,2258.53 L2381.8,2267.3 L2377.39,2267.3 L2377.39,2276.08 L2373.05,2276.08 L2373.05,2284.85 L2368.65,2284.85 L2368.65,2293.65 L2364.25,2293.65 L2364.25,2302.39 L2359.85,2302.39 L2359.85,2311.23 L2355.45,2311.23 L2355.45,2324.4 L2351.05,2324.4 L2351.05,2328.77 L2346.71,2328.77 L2346.71,2333.17 L2342.31,2333.17 L2342.31,2337.51 L2333.5,2337.51 L2333.5,2341.97 L2320.36,2341.97 L2320.36,2346.34 L2307.16,2346.34 L2307.16,2350.72 L2302.76,2350.72 L2302.76,2355.12 L2294.01,2355.12 L2294.01,2359.55 L2289.61,2359.55 L2289.61,2363.89 L2285.21,2363.89 L2285.21,2368.29 L2280.81,2368.29 L2280.81,2385.83 L2276.47,2385.83 L2276.47,2394.61 L2272.07,2394.61 L2272.07,2399.01 L2267.67,2399.01 L2267.67,2407.81 L2263.27,2407.81 L2263.27,2412.18 L2258.86,2412.18 L2258.86,2416.58 L2241.32,2416.58 L2241.32,2412.18 L2214.97,2412.18 L2214.97,2407.81 L2188.63,2407.81 L2188.63,2412.18 L2184.23,2412.18 L2184.23,2416.58 L2153.54,2416.58 L2153.54,2412.18 L2149.14,2412.18 L2149.14,2407.81 L2140.34,2407.81 L2140.34,2403.41 L2122.79,2403.41 L2122.79,2407.81 L2113.99,2407.81 L2113.99,2412.18 L2100.85,2412.18 L2100.85,2407.81 L2074.5,2407.81 L2074.5,2412.18 L2052.55,2412.18 L2052.55,2416.58 L2035.01,2416.58 L2035.01,2412.18 L2017.41,2412.18 L2017.41,2407.81 L2008.66,2407.81 L2008.66,2403.41 L2004.26,2403.41 L2004.26,2399.01 L1999.86,2399.01 L1999.86,2394.61 L1973.51,2394.61 L1973.51,2390.23 L1969.11,2390.23 L1969.11,2385.83 L1938.43,2385.83 L1938.43,2381.46 L1929.62,2381.46 L1929.62,2377.09 L1920.82,2377.09 L1920.82,2381.46 L1916.42,2381.46 L1916.42,2385.83 L1912.08,2385.83 L1912.08,2394.61 L1907.68,2394.61 L1907.68,2407.81 L1903.28,2407.81 L1903.28,2412.18 L1890.13,2412.18 L1890.13,2416.58 L1863.79,2416.58 L1863.79,2412.18 L1854.99,2412.18 L1854.99,2407.81 L1846.18,2407.81 L1846.18,2412.18 L1841.84,2412.18 L1841.84,2420.95 L1815.5,2420.95 L1815.5,2416.58 L1806.69,2416.58 L1806.69,2412.18 L1797.89,2412.18 L1797.89,2407.81 L1789.15,2407.81 L1789.15,2403.41 L1784.75,2403.41 L1784.75,2399.01 L1780.35,2399.01 L1780.35,2377.09 L1771.6,2377.09 L1771.6,2372.66 L1767.2,2372.66 L1767.2,2377.09 L1758.4,2377.09 L1758.4,2372.66 L1754,2372.66 L1754,2368.29 L1749.6,2368.29 L1749.6,2363.89 L1745.26,2363.89 L1745.26,2359.55 L1740.86,2359.55 L1740.86,2355.12 L1732.05,2355.12 L1732.05,2350.72 L1727.65,2350.72 L1727.65,2346.34 L1718.91,2346.34 L1718.91,2333.17 L1723.31,2333.17 L1723.31,2324.4 L1718.91,2324.4 L1718.91,2311.23 L1675.02,2311.23 L1675.02,2306.85 L1661.82,2306.85 L1661.82,2302.39 L1657.42,2302.39 L1657.42,2293.65 L1661.82,2293.65 L1661.82,2289.25 L1657.42,2289.25 L1657.42,2284.85 L1653.01,2284.85 L1653.01,2280.48 L1648.67,2280.48 L1648.67,2276.08 L1635.47,2276.08 L1635.47,2271.71 L1631.07,2271.71 L1631.07,2267.3 L1626.73,2267.3 L1626.73,2262.93 L1622.33,2262.93 L1622.33,2258.53 L1617.93,2258.53 L1617.93,2254.13 L1613.53,2254.13 L1613.53,2258.53 L1609.12,2258.53 L1609.12,2262.93 L1600.38,2262.93 L1600.38,2254.13 L1595.98,2254.13 L1595.98,2249.73 L1591.58,2249.73 L1591.58,2245.36 L1587.18,2245.36 L1587.18,2240.96 L1582.78,2240.96 L1582.78,2236.59 L1574.04,2236.59 L1574.04,2232.19 L1569.63,2232.19 L1569.63,2227.78 L1560.83,2227.78 L1560.83,2223.41 L1556.43,2223.41 L1556.43,2210.24 L1552.09,2210.24 L1552.09,2205.84 L1547.69,2205.84 L1547.69,2201.47 L1521.34,2201.47 L1521.34,2197.07 L1516.94,2197.07 L1516.94,2201.47 L1508.14,2201.47 L1508.14,2197.07 L1503.8,2197.07 L1503.8,2192.67 L1499.4,2192.67 L1499.4,2188.29 L1495,2188.29 L1495,2157.55 L1486.19,2157.55 L1486.19,2144.37 L1481.85,2144.37 L1481.85,2126.83 L1477.45,2126.83 L1477.45,2113.66 L1468.65,2113.66 L1468.65,2104.88 L1464.25,2104.88 L1464.25,2100.45 L1459.85,2100.45 L1459.85,2096.08 L1451.11,2096.08 L1451.11,2091.74 L1442.3,2091.74 L1442.3,2087.34 L1433.56,2087.34 L1433.56,2082.88 L1420.36,2082.88 L1420.36,2078.54 L1415.96,2078.54 L1415.96,2074.14 L1411.56,2074.14 L1411.56,2069.74 L1407.21,2069.74 L1407.21,2065.33 L1402.81,2065.33 L1402.81,2052.19 L1398.41,2052.19 L1398.41,2034.62 L1394.01,2034.62 L1394.01,2025.84 L1389.61,2025.84 L1389.61,2003.9 L1385.27,2003.9 L1385.27,1999.5 L1376.47,1999.5 L1376.47,1990.73 L1358.92,1990.73 L1358.92,1986.32 L1354.52,1986.32 L1354.52,1981.95 L1350.12,1981.95 L1350.12,1977.55 L1319.37,1977.55 L1319.37,1973.18 L1314.97,1973.18 L1314.97,1968.78 L1310.63,1968.78 L1310.63,1977.55 L1297.43,1977.55 L1297.43,1968.78 L1288.68,1968.78 L1288.68,1938.06 L1284.28,1938.06 L1284.28,1911.72 L1279.88,1911.72 L1279.88,1907.35 L1275.48,1907.35 L1275.48,1898.54 L1271.08,1898.54 L1271.08,1872.23 L1266.68,1872.23 L1266.68,1845.85 L1262.34,1845.85 L1262.34,1841.48 L1257.94,1841.48 L1257.94,1837.08 L1253.54,1837.08 L1253.54,1823.9 L1249.14,1823.9 L1249.14,1810.73 L1244.73,1810.73 L1244.73,1806.33 L1235.99,1806.33 L1235.99,1801.96 L1240.39,1801.96 L1240.39,1797.56 L1235.99,1797.56 L1235.99,1784.38 L1222.79,1784.38 L1222.79,1779.98 L1214.05,1779.98 L1214.05,1775.61 L1209.65,1775.61 L1209.65,1771.21 L1205.24,1771.21 L1205.24,1766.84 L1200.84,1766.84 L1200.84,1762.44 L1192.1,1762.44 L1192.1,1758.04 L1187.7,1758.04 L1187.7,1753.67 L1183.3,1753.67 L1183.3,1758.04 L1170.1,1758.04 L1170.1,1753.67 L1161.35,1753.67 L1161.35,1749.27 L1156.95,1749.27 L1156.95,1744.86 L1143.81,1744.86 L1143.81,1740.49 L1130.61,1740.49 L1130.61,1736.09 L1121.8,1736.09 L1121.8,1731.72 L1117.46,1731.72 L1117.46,1727.35 L1108.66,1727.35 L1108.66,1722.92 L1095.52,1722.92 L1095.52,1718.55 L1091.12,1718.55 L1091.12,1714.15 L1086.71,1714.15 L1086.71,1709.78 L1082.31,1709.78 L1082.31,1705.38 L1073.51,1705.38 L1073.51,1700.97 L1069.17,1700.97 L1069.17,1696.6 L1047.23,1696.6 L1047.23,1692.23 L1034.02,1692.23 L1034.02,1687.77 L1016.48,1687.77 L1016.48,1679.03 L1012.08,1679.03 L1012.08,1674.66 L1007.68,1674.66 L1007.68,1670.23 L1003.27,1670.23 L1003.27,1665.86 L994.532,1665.86 L994.532,1661.45 L985.73,1661.45 L985.73,1652.65 L998.933,1652.65 L998.933,1643.91 L994.532,1643.91 L994.532,1639.51 L1025.22,1639.51 L1025.22,1635.11 L1038.42,1635.11 L1038.42,1630.74 L1042.82,1630.74 L1042.82,1626.34 L1060.37,1626.34 L1060.37,1621.96 L1064.77,1621.96 L1064.77,1617.56 L1069.17,1617.56 L1069.17,1613.16 L1073.51,1613.16 L1073.51,1599.99 L1077.91,1599.99 L1077.91,1595.62 L1082.31,1595.62 L1082.31,1578.04 L1086.71,1578.04 L1086.71,1573.67 L1091.12,1573.67 L1091.12,1556.1 L1095.52,1556.1 L1095.52,1538.55 L1091.12,1538.55 L1091.12,1529.75 L1095.52,1529.75 L1095.52,1525.38 L1099.86,1525.38 L1099.86,1520.98 L1104.26,1520.98 L1104.26,1499.03 L1108.66,1499.03 L1108.66,1481.46 L1113.06,1481.46 L1113.06,1463.92 L1117.46,1463.92 L1117.46,1446.34 L1121.8,1446.34 L1121.8,1437.6 L1126.2,1437.6 L1126.2,1430.27 L1169.49,1439.08 L1285.79,1463.07 L1393.05,1466.27 L1437.78,1486.61 L1534.67,1476.55 L1619.67,1559.02 L1659.29,1558.57 L1711.8,1598.36 L1789.63,1661.39 L1828.34,1685.36 L1914.85,1725.51 L1984.91,1778.39 L2141.42,1815.28 L2266.64,1834.7 L2434.49,1832.65" vector-effect="none"/>

                 </g>
 <metadata>
  <rdf:RDF xmlns:dc="http://purl.org/dc/elements/1.1/" xmlns:rdf="http://www.w3.org/1999/02/22-rdf-syntax-ns#" xmlns:rdfs="http://www.w3.org/2000/01/rdf-schema#">
   <rdf:Description dc:description="" dc:date="2023-12-04T13:17:32" dc:format="image/svg+xml" dc:title="" dc:identifier="">
    <dc:creator>
     <rdf:Bag>
      <rdf:li>Tyrrell</rdf:li>
     </rdf:Bag>
    </dc:creator>
    <dc:publisher>
     <rdf:Bag>
      <rdf:li>QGIS 3.24.3-Tisler</rdf:li>
     </rdf:Bag>
    </dc:publisher>
    <dc:subject>
     <rdf:Bag/>
    </dc:subject>
   </rdf:Description>
   <cc:Work rdf:about="">
    <dc:format>image/svg+xml</dc:format>
    <dc:title></dc:title>
    <dc:date>2023-12-04T13:17:32</dc:date>
    <dc:identifier></dc:identifier>
    <dc:description></dc:description>
    <dc:creator>
     <cc:Agent>
      <dc:title>Tyrrell</dc:title>
     </cc:Agent>
    </dc:creator>
    <dc:publisher>
     <cc:Agent>
      <dc:title>QGIS 3.24.3-Tisler</dc:title>
     </cc:Agent>
    </dc:publisher>
   </cc:Work>
  </rdf:RDF>
 </metadata>
</svg>
