<?xml version='1.0' encoding='UTF-8' standalone='no'?>
<svg width="100%" xmlns="http://www.w3.org/2000/svg" viewBox="401 472 2706 1535" xmlns:cc="http://creativecommons.org/ns#" version="1.2" xmlns:inkscape="http://www.inkscape.org/namespaces/inkscape" baseProfile="tiny" id="countryMap" xmlns:xlink="http://www.w3.org/1999/xlink">
 <defs/>
 <!-- <g fill-rule="evenodd" id="Page" stroke="black" fill="none" stroke-linecap="square" inkscape:groupmode="layer" stroke-width="1" stroke-linejoin="bevel" inkscape:label="Page">
          <g stroke="none" font-style="normal" fill="#ffffff" font-family=".AppleSystemUIFont" font-weight="400" fill-opacity="1" font-size="54.1667" transform="matrix(0.999751,0,0,0.999751,0,0)">
   <path fill-rule="evenodd" d="M-2,-2 L3510,-2 L3510,2483 L-2,2483 L-2,-2" shape-rendering="optimizeSpeed" vector-effect="non-scaling-stroke" />
  </g>
         </g>
 <defs/>
 <g fill-rule="evenodd" id="Background" stroke="black" fill="none" stroke-linecap="square" inkscape:groupmode="layer" stroke-width="1" stroke-linejoin="bevel" inkscape:label="Map 1: Background">
        <g stroke="none" font-style="normal" fill="#ffffff" font-family=".AppleSystemUIFont" font-weight="400" fill-opacity="1" font-size="54.1667" transform="matrix(11.8081,0,0,11.8081,0,0)">
   <path fill-rule="evenodd" d="M0,0 L297,0 L297,210 L0,210 L0,0" shape-rendering="optimizeSpeed" vector-effect="non-scaling-stroke" />
  </g>
                 </g>
 <defs/> -->
 <g fill-rule="evenodd" id="saint_barthelemy" stroke="black" fill="none" stroke-linecap="square" inkscape:groupmode="layer" stroke-width="1" stroke-linejoin="bevel" inkscape:label="Map 1: saint_barthelemy">

    
   <path fill-rule="evenodd" d="M2328.8,1797.66 L2326.4,1804.46 L2323.6,1810.86 L2320,1822.07 L2320.4,1828.87 L2320,1838.87 L2314,1838.07 L2312.4,1836.87 L2311.2,1841.27 L2310.4,1844.47 L2304.4,1847.27 L2304.4,1854.87 L2303.6,1864.07 L2300.8,1867.67 L2301.6,1872.47 L2300,1875.27 L2296,1878.47 L2289.6,1879.67 L2283.19,1879.67 L2279.59,1876.87 L2269.99,1877.27 L2271.19,1872.87 L2263.19,1869.27 L2260.39,1870.47 L2251.19,1868.87 L2255.59,1862.47 L2247.99,1857.67 L2245.99,1856.07 L2238.79,1860.07 L2238.79,1856.07 L2236.39,1852.87 L2232.39,1849.67 L2235.99,1844.87 L2236.79,1838.07 L2238.39,1831.67 L2241.19,1821.67 L2236.39,1814.46 L2215.18,1799.26 L2209.58,1803.66 L2207.58,1800.46 L2208.38,1796.46 L2207.58,1796.06 L2200.78,1791.66 L2201.98,1786.86 L2199.18,1780.86 L2194.38,1775.26 L2192.61,1776.84 L2192.61,1776.31 L2189.67,1776.31 L2194.78,1768.46 L2186.38,1762.86 L2188.38,1754.86 L2181.98,1747.25 L2170.78,1748.45 L2164.38,1742.85 L2161.11,1738.28 L2213.37,1693.77 L2233.04,1677.27 L2265.39,1672.2 L2267.29,1669.66 L2276.81,1648.72 L2301.55,1627.79 L2312.34,1630.33 L2314.88,1622.08 L2341.52,1634.77 L2357.65,1624.62 L2358.65,1623.98 L2358.65,1620.81 L2338.35,1608.75 L2322.49,1597.97 L2310.44,1585.92 L2299.87,1572.24 L2299.65,1571.96 L2302.82,1566.88 L2298.77,1562.25 L2293.94,1556.73 L2287.6,1542.14 L2287.6,1527.55 L2293.29,1516.97 L2296.48,1511.05 L2299.65,1496.46 L2302.82,1474.89 L2302.82,1467.28 L2299.02,1462.84 L2297.2,1456.19 L2302.8,1454.01 L2308.05,1450.22 L2314.1,1450.22 L2313.2,1451.61 L2310.4,1458.41 L2314.8,1464.81 L2322.8,1464.81 L2328.4,1464.4 L2329.68,1464.4 L2329.68,1463.64 L2338.4,1458.41 L2354.01,1450.01 L2361.21,1440.81 L2359.61,1436.01 L2351.6,1428.01 L2345.2,1420.4 L2344.4,1410.8 L2351.6,1403.2 L2362.01,1394.8 L2391.65,1367.89 L2395.69,1368.08 L2404.22,1367.39 L2404.36,1364.5 L2407.52,1360.51 L2413.58,1355.97 L2419.36,1352.39 L2426.24,1349.23 L2432.02,1347.92 L2437.66,1347.3 L2444.67,1346.47 L2450.45,1345.92 L2452.52,1348.68 L2454.86,1354.59 L2454.86,1357.21 L2449.08,1361.34 L2444.67,1364.36 L2445.14,1370.22 L2446.42,1372 L2457.22,1386.4 L2471.62,1391.6 L2482.38,1388.79 L2483.38,1388.79 L2486.84,1387.33 L2494.64,1390.11 L2501.25,1393.01 L2506.27,1394.73 L2516.45,1391.96 L2518.73,1390.99 L2518.73,1388.79 L2523.93,1388.79 L2525.83,1387.99 L2532.88,1384.62 L2532.88,1384.06 L2534.07,1384.06 L2534.68,1383.76 L2537.62,1382.09 L2537.62,1379.32 L2542.49,1379.32 L2551.77,1374.03 L2551.77,1370.49 L2552.29,1370.28 L2553.23,1369.91 L2556.5,1369.91 L2556.5,1368.6 L2557.46,1368.22 L2559.11,1365.17 L2561.24,1365.17 L2561.24,1361.25 L2564.24,1355.73 L2565.98,1355.73 L2565.98,1352.11 L2570.51,1341.55 L2570.72,1341.55 L2570.72,1341.06 L2572.44,1337.04 L2583.77,1323.68 L2588.71,1317.92 L2589.6,1317.92 L2589.6,1316.88 L2600.78,1303.85 L2615.35,1286.85 L2616.67,1284.79 L2621.83,1276.73 L2627.09,1260.13 L2626.28,1248.39 L2621.42,1235.43 L2620.21,1222.88 L2620.21,1220.05 L2620.61,1214.79 L2626.28,1207.91 L2633.97,1205.07 L2645.31,1204.26 L2649.76,1199 L2655.43,1190.5 L2661.9,1181.59 L2667.17,1175.52 L2672.43,1178.35 L2677.69,1184.83 L2681.74,1194.14 L2678.5,1202.64 L2680.53,1213.57 L2682.03,1220.08 L2682.95,1224.1 L2684.1,1223.37 L2686.19,1226.53 L2695.1,1226.12 L2698.74,1230.98 L2701.17,1235.84 L2701.3,1237.98 L2701.58,1242.72 L2702.39,1244.74 L2706.03,1245.96 L2712.91,1244.74 L2717.2,1244.74 L2717.2,1247.02 L2721.61,1247.02 L2725.06,1248.79 L2734.77,1244.74 L2737.06,1242.31 L2740.82,1242.31 L2740.82,1238.31 L2753.8,1224.5 L2765.54,1228.15 L2769.18,1220.05 L2762.3,1213.98 L2766.35,1206.69 L2772.83,1204.67 L2775.66,1204.67 L2779.71,1207.1 L2782.14,1209.93 L2783.33,1216.41 L2780.11,1220.05 L2778.09,1231.38 L2779.71,1242.32 L2781.01,1243.41 L2787.4,1248.79 L2800.35,1258.1 L2796.31,1263.37 L2789.42,1268.22 L2788.21,1275.92 L2779.3,1281.99 L2771.61,1286.44 L2768.37,1297.78 L2764.32,1303.44 L2755.42,1307.09 L2750.97,1313.16 L2755.82,1322.87 L2759.71,1323.65 L2759.71,1327.37 L2764.45,1327.37 L2764.45,1328.35 L2771.09,1332.07 L2773.92,1332.07 L2773.92,1333.66 L2775.44,1334.51 L2781.29,1335.4 L2786.44,1336.49 L2788.07,1336.67 L2790.9,1336.99 L2794.16,1336.79 L2797.73,1335.5 L2799.91,1334.11 L2800.8,1330.75 L2800.8,1325.69 L2800.66,1320.97 L2801.97,1317.61 L2808.45,1304.25 L2815.33,1294.54 L2825.45,1286.44 L2833.95,1286.44 L2835.71,1287.82 L2839.62,1290.89 L2849.45,1284.82 L2854.27,1284.82 L2854.27,1281.44 L2855.49,1280.12 L2859,1280.12 L2859,1276.32 L2863.51,1271.46 L2878.08,1271.46 L2884.96,1278.34 L2886.18,1289.27 L2878.48,1294.27 L2867.55,1290.89 L2865.13,1290.08 L2863.91,1301.42 L2867.55,1307.09 L2868.42,1308.98 L2868.42,1317.21 L2860.67,1323.68 L2860.67,1333 L2865.93,1344.74 L2878.48,1356.88 L2893.06,1363.76 L2902.37,1364.98 L2905.28,1360.43 L2915.66,1360.43 L2915.66,1357.5 L2916.89,1357.6 L2924.09,1347.59 L2929.29,1337.19 L2930.09,1320.39 L2929.62,1317.92 L2929.88,1317.92 L2929.88,1313.19 L2928.72,1313.19 L2928.49,1311.99 L2937.69,1306.39 L2947.69,1301.19 L2957.3,1295.59 L2964.9,1304.79 L2972.1,1310.79 L2978.5,1322.39 L2982.9,1337.99 L2984.5,1355.59 L2979.7,1369.6 L2972.5,1382 L2966.5,1396.8 L2971.3,1405.2 L2976.5,1411.6 L2986.6,1417.12 L2988.38,1417.12 L3005.48,1417.12 L3014.5,1412.8 L3018.51,1404 L3015.7,1396.4 L3014.5,1390 L3016.91,1384 L3023.31,1384 L3030.91,1380 L3041.71,1376.8 L3043.56,1374.58 L3052.73,1374.58 L3052.73,1368.59 L3062.51,1360 L3080.11,1345.19 L3084.12,1337.59 L3084.12,1332.79 L3088.57,1327.37 L3096.97,1327.37 L3099.98,1327.37 L3099.98,1332.07 L3100.98,1332.07 L3099.72,1342.79 L3105.32,1348.39 L3106.12,1360.8 L3106.92,1367.2 L3101.72,1376 L3093.32,1384 L3088.52,1398.8 L3088.52,1406.4 L3094.92,1413.6 L3099.32,1419.6 L3099.32,1430.01 L3094.52,1438.81 L3090.52,1444.01 L3089.72,1449.61 L3085.32,1460.81 L3079.71,1468.81 L3077.71,1472.81 L3070.51,1472.81 L3063.71,1480.01 L3061.31,1483.61 L3052.91,1487.61 L3049.31,1492.42 L3052.51,1502.02 L3060.91,1571.23 L3062.11,1580.03 L3063.16,1580.49 L3060.51,1588.43 L3051.31,1600.03 L3046.11,1609.63 L3039.31,1609.63 L3037.31,1607.63 L3032.11,1608.43 L3018.91,1600.03 L3019.31,1587.63 L3013.3,1576.03 L3005.3,1565.63 L2998.1,1558.03 L2990.5,1550.82 L2983.3,1551.22 L2971.7,1556.43 L2962.9,1560.43 L2956.1,1558.83 L2952.98,1559.54 L2945.69,1561.23 L2936.89,1566.83 L2926.49,1571.63 L2924.49,1578.43 L2918.09,1580.43 L2914.49,1580.43 L2909.29,1589.63 L2908.1,1590.76 L2903.6,1595.01 L2890.89,1600.03 L2882.08,1604.83 L2871.28,1613.63 L2854.48,1619.23 L2833.68,1623.64 L2814.47,1630.44 L2792.47,1638.04 L2768.47,1651.64 L2766.95,1652.78 L2758.87,1658.84 L2754.47,1668.04 L2752.87,1673.24 L2752.47,1676.04 L2754.47,1679.24 L2756.47,1682.04 L2754.87,1686.44 L2752.47,1689.25 L2754.47,1692.85 L2757.67,1701.25 L2753.67,1703.65 L2748.46,1705.65 L2744.46,1709.65 L2744.46,1723.25 L2742.86,1728.05 L2744.86,1733.25 L2742.86,1748.85 L2748.06,1756.46 L2751.27,1768.86 L2751.27,1773.26 L2749.66,1775.66 L2745.66,1777.66 L2740.86,1777.66 L2740.86,1780.86 L2740.06,1783.66 L2742.86,1793.66 L2738.86,1796.06 L2733.26,1798.86 L2729.26,1800.06 L2726.86,1802.86 L2723.66,1803.26 L2716.86,1807.66 L2712.46,1808.86 L2708.46,1810.86 L2704.46,1813.26 L2700.86,1814.86 L2694.86,1817.66 L2690.3,1820.23 L2685.66,1818.06 L2683.25,1810.06 L2674.05,1802.46 L2668.85,1792.46 L2664.45,1788.06 L2658.45,1786.86 L2653.65,1783.66 L2651.65,1773.66 L2652.45,1768.46 L2654.45,1759.26 L2654.45,1752.45 L2651.65,1746.85 L2647.25,1744.05 L2642.05,1744.85 L2634.45,1749.25 L2629.65,1750.05 L2625.25,1755.66 L2617.24,1752.05 L2614.84,1749.25 L2614.44,1745.65 L2617.64,1740.45 L2616.04,1737.25 L2614.04,1732.45 L2609.64,1721.25 L2603.24,1716.45 L2592.04,1715.25 L2580.04,1714.85 L2559.64,1722.45 L2535.63,1730.85 L2518.03,1741.65 L2518.9,1742.52 L2515.23,1744.85 L2514.43,1750.05 L2513.73,1752.33 L2511.23,1760.46 L2508.03,1766.06 L2506.43,1778.86 L2505.63,1794.86 L2506.83,1806.46 L2496.83,1807.26 L2487.63,1807.26 L2484.02,1805.66 L2482.42,1800.86 L2477.62,1791.66 L2471.62,1790.46 L2466.02,1796.86 L2461.62,1805.66 L2461.62,1814.06 L2462.42,1820.87 L2461.22,1826.47 L2460.02,1830.07 L2454.42,1835.27 L2452.02,1844.47 L2442.02,1848.07 L2441.52,1848.7 L2434.42,1844.87 L2433.22,1837.67 L2432.42,1828.87 L2429.62,1820.87 L2426.82,1816.86 L2419.5,1817.86 L2419.5,1814.12 L2415.98,1814.12 L2414.76,1811.75 L2414.76,1809.41 L2413.56,1809.41 L2411.21,1804.86 L2412.01,1797.26 L2409.61,1787.66 L2406.41,1783.66 L2401.21,1782.46 L2394.01,1779.26 L2389.61,1775.26 L2386.41,1769.66 L2385.21,1764.06 L2374.81,1764.86 L2363.21,1768.46 L2349.2,1774.06 L2338.4,1780.06 L2337.47,1789.12 L2337.2,1791.66 L2338,1798.86 L2335.2,1798.86 L2329.2,1794.06 L2328.8,1797.66" shape-rendering="optimizeSpeed" vector-effect="non-scaling-stroke"/>
   <path fill-rule="evenodd" d="M2405.29,808.516 L2405.29,811.068 L2405.29,812.259 L2404.64,812.259 L2403.01,815.287 L2404.3,817.669 L2403.81,820.357 L2403.84,821.701 L2405.29,821.701 L2405.29,824.304 L2400.03,830.463 L2395.8,833.168 L2379.62,828.932 L2368.83,829.306 L2361.51,831.62 L2360.36,835.856 L2351.31,846.217 L2350.73,845.877 L2342.26,843.955 L2333.02,844.329 L2322.23,850.488 L2312.99,859.743 L2306.05,871.295 L2295.27,881.316 L2288.34,880.159 L2277.55,871.295 L2276.01,863.213 L2277.16,851.27 L2283.71,837.013 L2289.87,831.229 L2291.85,821.701 L2300.66,821.225 L2306.82,823.147 L2310.8,826.04 L2310.8,826.397 L2311.29,826.397 L2315.31,829.306 L2320.31,830.089 L2324.44,826.397 L2324.94,826.397 L2324.94,825.955 L2330.7,820.834 L2333.41,816.989 L2332.98,815.883 L2334.94,815.066 L2341.49,807.733 L2347.65,795.807 L2351.51,795.416 L2354.59,800.418 L2358.44,799.652 L2362.3,795.025 L2371.14,792.711 L2373.85,795.025 L2379.24,803.497 L2390.79,800.418 L2399.66,798.887 L2404.27,802.34 L2405.29,808.516" shape-rendering="optimizeSpeed" vector-effect="non-scaling-stroke"/>
   <path fill-rule="evenodd" d="M2964.5,1191.57 L2956.09,1192.37 L2951.29,1195.18 L2945.7,1198.37 L2939.69,1198.37 L2934.09,1195.98 L2928.5,1194.38 L2923.7,1195.98 L2917.69,1201.96 L2916.89,1211.17 L2912.9,1211.97 L2913.29,1201.16 L2912.49,1193.17 L2915.3,1183.57 L2919.29,1172.77 L2923.29,1169.16 L2924.6,1166.71 L2925.15,1166.71 L2925.15,1165.67 L2926.9,1162.37 L2929.69,1159.96 L2930.45,1156.81 L2936.88,1153.56 L2943.3,1153.56 L2952.89,1152.37 L2960.5,1152.37 L2959.29,1150.77 L2959.29,1147.96 L2962.49,1147.56 L2964.91,1152.76 L2968.9,1159.57 L2970.5,1163.17 L2972.9,1170.76 L2976.1,1171.56 L2978.5,1174.76 L2980.1,1181.97 L2980.1,1189.17 L2977.7,1192.37 L2972.1,1191.18 L2969.7,1189.58 L2964.5,1191.57" shape-rendering="optimizeSpeed" vector-effect="non-scaling-stroke"/>
   <path fill-rule="evenodd" d="M2704.94,1936.53 L2709.2,1941.85 L2712.65,1949.81 L2713.18,1956.99 L2715.83,1963.1 L2720.09,1968.41 L2718.76,1973.73 L2721.68,1979.04 L2726.47,1981.7 L2728.59,1987.82 L2723.81,1987.82 L2715.56,1985.15 L2707.33,1980.37 L2705.2,1975.06 L2708.4,1970.28 L2703.07,1963.63 L2693.78,1959.12 L2687.93,1954.34 L2681.55,1947.16 L2679.97,1940.25 L2682.08,1935.2 L2687.4,1933.35 L2690.33,1933.35 L2690.55,1927.56 L2691.38,1927.56 L2695.37,1924.31 L2698.04,1924.84 L2700.76,1927.56 L2703.06,1927.56 L2703.06,1929.55 L2699.09,1935.2 L2704.94,1936.53" shape-rendering="optimizeSpeed" vector-effect="non-scaling-stroke"/>
   <path fill-rule="evenodd" d="M2617.89,761.423 L2617.95,761.764 L2618.31,762.478 L2619.42,763.176 L2620.93,762.87 L2621.22,762.206 L2622.7,763.397 L2622.36,764.639 L2623.01,765.353 L2623.11,767.123 L2623.72,768.943 L2623.72,770.236 L2622.23,771.07 L2617.73,768.637 L2617.36,769.198 L2621.1,773.877 L2622.04,776.497 L2622.41,780.427 L2621.85,785.854 L2622.23,790.346 L2619.79,791.282 L2616.61,791.469 L2612.31,795.586 L2605.57,794.089 L2601.26,792.404 L2600.35,792.098 L2600.72,789.665 L2599.29,788.866 L2598.56,788.628 L2597.44,789.036 L2596.72,788.866 L2595.85,788.219 L2595.8,787.454 L2594.97,786.756 L2594.31,786.62 L2593.52,786.858 L2592.45,787.743 L2592.2,787.845 L2591.28,787.93 L2590.5,787.777 L2590.19,787.079 L2590.17,786.875 L2590.77,785.922 L2590.12,785.429 L2589.61,785.599 L2588.06,785.293 L2586.33,784.953 L2583.61,784.646 L2582.45,783.898 L2582.24,783.898 L2582.18,783.166 L2581.53,782.809 L2580.71,783.132 L2579.83,782.401 L2579.42,780.852 L2579.08,779.951 L2579.37,777.994 L2581.8,775.561 L2583.54,775.187 L2585.17,775.51 L2586.72,776.412 L2588.45,776.99 L2591.82,780.342 L2592.38,780.41 L2592.59,779.815 L2593.03,779.321 L2592.66,778.794 L2591.74,778.062 L2591.41,776.65 L2590.8,776.004 L2589.95,775.8 L2589.19,775.834 L2588.81,774.949 L2589.13,774.387 L2590.05,774.626 L2586.67,771.07 L2587.04,767.888 L2588.73,766.391 L2591.91,764.894 L2592.25,764.673 L2594.71,763.023 L2595.94,763.482 L2596.62,764.35 L2599.77,764.707 L2603.32,763.023 L2608,762.835 L2610.81,763.21 L2614.18,761.525 L2615.37,761.491 L2614.77,760.198 L2615.42,759.841 L2616.13,760.607 L2617.39,760.454 L2617.89,761.423" shape-rendering="optimizeSpeed" vector-effect="non-scaling-stroke"/>
   <path fill-rule="evenodd" d="M2609.09,735.75 L2608.34,735.189 L2606.62,735.342 L2607.03,736.312 L2610.32,736.618 L2611.35,736.771 L2611.37,737.299 L2610.11,737.622 L2609.5,738.643 L2610.26,740.412 L2611.37,740.956 L2611.37,742.335 L2609.35,742.93 L2607.17,744.053 L2608.44,745.108 L2609.6,746.877 L2608.95,749.82 L2607.99,751.284 L2608.38,751.607 L2606.9,757.068 L2606.32,756.949 L2605.2,758.378 L2603.51,758.157 L2599.58,756.285 L2594.9,755.724 L2590.41,754.04 L2588.47,750.314 L2589.87,747.694 L2591.64,744.002 L2593.97,740.208 L2595.24,738.081 L2596.2,736.057 L2597.51,735.801 L2599.78,735.955 L2598.42,734.491 L2597.93,733.913 L2599.24,732.722 L2600.4,732.212 L2600.86,731.446 L2601.2,730.919 L2602.06,730.034 L2603.99,729.779 L2605.5,729.745 L2606.51,730.459 L2610.44,732.144 L2611.1,735.495 L2609.09,735.75" shape-rendering="optimizeSpeed" vector-effect="non-scaling-stroke"/>
   <path fill-rule="evenodd" d="M2720.62,2005.09 L2713.97,2001.1 L2711.05,1997.91 L2713.71,1992.86 L2716.68,1994.35 L2721.15,1991.8 L2727.26,1992.6 L2731.51,1997.65 L2734.97,2004.02 L2733.9,2007.48 L2727.26,2006.15 L2720.62,2005.09" shape-rendering="optimizeSpeed" vector-effect="non-scaling-stroke"/>
   <path fill-rule="evenodd" d="M2605.38,809.435 L2606.69,809.435 L2610.16,804.909 L2613.06,804.382 L2615.86,803.446 L2620.92,809.435 L2623.35,814.3 L2620.17,819.541 L2616.24,820.851 L2612.68,818.043 L2608.94,815.798 L2606.51,813.552 L2603.51,810.558 L2605.38,809.435" shape-rendering="optimizeSpeed" vector-effect="non-scaling-stroke"/>
   <path fill-rule="evenodd" d="M2058.36,1630.04 L2057.56,1622.84 L2035.16,1610.03 L2013.95,1591.23 L2010.35,1582.83 L2007.28,1577.41 L2003.56,1570.83 L1999.56,1562.03 L1997.55,1550.02 L1999.95,1538.03 L2005.96,1533.23 L2015.16,1529.21 L2025.16,1530.83 L2035.56,1534.03 L2045.15,1540.42 L2049.15,1547.41 L2051.56,1551.62 L2045.56,1560.83 L2051.56,1565.63 L2057.96,1570.43 L2062.36,1578.43 L2071.56,1591.63 L2087.16,1580.03 L2087.16,1576.43 L2082.76,1571.23 L2073.16,1560.83 L2067.56,1554.42 L2064.36,1550.42 L2062.76,1542.42 L2061.96,1537.62 L2056.76,1530.02 L2051.96,1523.22 L2044.76,1514.82 L2044.12,1514.13 L2033.96,1503.22 L2023.56,1493.62 L2017.82,1488.74 L2017.15,1483.21 L2011.95,1478.81 L2006.75,1465.21 L2009.15,1464.81 L2010.35,1466.81 L2012.75,1466.81 L2015.95,1470.81 L2018.75,1470.01 L2017.77,1459.73 L2025.96,1457.61 L2025.96,1446.81 L2020.35,1438.81 L2018.23,1437.74 L2014.92,1432.52 L2004.44,1424.76 L1995.18,1418.23 L1988.52,1413.71 L1987.15,1412.78 L1978.98,1413.32 L1971.36,1409.38 L1968.91,1400.12 L1967.5,1394.33 L1969.55,1386.4 L1967.29,1381.21 L1967.54,1377.79 L1964.55,1372.89 L1961.01,1368.67 L1951.07,1365.4 L1944.53,1366.73 L1943.54,1366.4 L1931.94,1368 L1921.14,1370.4 L1915.14,1373.6 L1910.28,1372.67 L1906.74,1372 L1894.34,1371.6 L1890.34,1373.2 L1886.06,1371.77 L1880,1366.08 L1875.37,1358.73 L1869.79,1348.65 L1863.25,1343.62 L1855.09,1337.9 L1846.51,1333 L1842.29,1323.06 L1833.57,1321.7 L1833.12,1321.25 L1825.96,1314.22 L1817.02,1308.98 L1815.53,1305.98 L1814.32,1298.39 L1812.33,1294.38 L1812.33,1289.58 L1802.32,1291.18 L1790.94,1290.31 L1790.94,1284.82 L1787.11,1284.82 L1789.51,1282.78 L1794.33,1276.38 L1786.31,1265.18 L1771.12,1257.58 L1757.51,1254.77 L1748.72,1251.98 L1741.91,1245.18 L1735.1,1242.78 L1731.11,1239.17 L1732.31,1231.98 L1732.31,1221.58 L1733.11,1212.77 L1732.71,1205.57 L1727.52,1198.37 L1723.83,1199.21 L1727.11,1191.57 L1724.71,1184.76 L1718.31,1178.77 L1713.11,1175.17 L1707.9,1170.37 L1704.7,1170.37 L1697.51,1172.77 L1689.1,1169.96 L1682.3,1166.76 L1677.11,1164.77 L1671.9,1168.77 L1665.5,1168.77 L1661.51,1165.57 L1660.71,1160.76 L1657.51,1159.16 L1653.9,1156.37 L1653.1,1152.37 L1654.29,1149.97 L1659.91,1147.16 L1664.3,1147.16 L1667.49,1147.56 L1670.71,1150.36 L1673.5,1149.56 L1675.51,1147.56 L1678.3,1147.16 L1685.51,1147.16 L1689.1,1144.77 L1692.3,1142.37 L1698.31,1139.97 L1711.51,1139.56 L1722.7,1139.56 L1734.71,1140.77 L1741.52,1138.76 L1746.32,1133.6 L1748.36,1133.6 L1748.36,1130.32 L1754.72,1117.95 L1757.92,1103.95 L1757.51,1088.76 L1755.11,1082.36 L1750.71,1076.36 L1745.91,1075.15 L1745.91,1069.96 L1740.31,1063.54 L1733.51,1058.36 L1727.52,1058.75 L1723.91,1055.96 L1716.71,1054.36 L1711.51,1052.74 L1705.5,1051.94 L1698.31,1053.56 L1688.3,1057.15 L1686.31,1053.95 L1681.9,1047.94 L1681.5,1044.74 L1685.51,1042.35 L1698.71,1036.34 L1712.31,1025.94 L1727.11,1019.14 L1745.52,1014.75 L1758.72,1013.15 L1766.32,1015.94 L1774.71,1015.14 L1770.71,1024.74 L1774.71,1033.55 L1781.52,1039.15 L1783.52,1051.55 L1787.52,1054.75 L1784.72,1064.75 L1781.93,1073.55 L1779.92,1081.15 L1773.91,1081.95 L1769.52,1085.56 L1779.53,1092.76 L1791.11,1095.56 L1797.92,1098.35 L1806.32,1105.55 L1808.33,1117.95 L1808.72,1133.16 L1814.73,1142.76 L1818.72,1148.76 L1827.52,1161.17 L1838.32,1170.76 L1841.26,1170.4 L1847.93,1169.57 L1863.13,1162.77 L1865.93,1157.57 L1860.43,1147.82 L1861.81,1147.82 L1861.81,1143.02 L1866.55,1143.02 L1866.55,1137.16 L1881.13,1136.36 L1883.53,1140.36 L1894.74,1155.56 L1898.74,1161.97 L1897.94,1172.77 L1912.34,1181.17 L1935.94,1183.97 L1955.15,1182.77 L1963.64,1180.82 L1965.78,1180.82 L1965.78,1180.33 L1974.35,1178.37 L1979.51,1176.33 L1991.55,1171.57 L1995.15,1167.97 L1993.86,1152.59 L1996.75,1150.36 L1999.95,1145.96 L2007.55,1145.16 L2017.15,1142.76 L2030.36,1137.96 L2037.56,1134.36 L2050.36,1130.36 L2055.09,1128.87 L2059.65,1128.87 L2068.36,1133.56 L2075.96,1145.16 L2079.56,1159.17 L2081.56,1173.97 L2085.56,1187.17 L2087.16,1205.17 L2091.97,1215.17 L2096.77,1215.57 L2104.07,1220.5 L2113.97,1227.18 L2117,1227.59 L2117,1228.1 L2120.77,1228.1 L2121.74,1228.1 L2121.74,1227.62 L2130.77,1223.17 L2138.37,1218.37 L2149.97,1214.77 L2165.18,1221.97 L2169.18,1226.78 L2167.98,1236.78 L2172.78,1247.58 L2177.18,1253.58 L2170.78,1262.38 L2165.18,1267.58 L2165.98,1262.38 L2159.98,1262.38 L2155.18,1267.18 L2154.75,1277.08 L2154.38,1285.98 L2163.18,1301.59 L2168.81,1309.51 L2173.98,1316.79 L2185.18,1332.39 L2195.58,1337.19 L2207.18,1331.59 L2219.98,1325.99 L2232.79,1331.19 L2241.19,1335.99 L2237.99,1349.19 L2240.79,1358 L2244.39,1365.2 L2239.99,1373.2 L2233.99,1378.4 L2229.03,1382.6 L2220.79,1389.6 L2218.88,1405.96 L2218.78,1406.8 L2226.79,1422.81 L2230.45,1426.37 L2230.45,1426.6 L2230.68,1426.6 L2235.18,1430.98 L2235.18,1431.34 L2235.55,1431.34 L2240.24,1435.9 L2241.59,1437.21 L2263.54,1449.3 L2263.54,1450.22 L2265.22,1450.22 L2269.19,1452.41 L2288.4,1459.61 L2297.2,1456.19 L2299.02,1462.84 L2302.82,1467.28 L2302.82,1474.89 L2299.65,1496.46 L2296.48,1511.05 L2293.29,1516.97 L2287.6,1527.55 L2287.6,1542.14 L2293.94,1556.73 L2298.77,1562.25 L2302.82,1566.88 L2299.65,1571.96 L2299.87,1572.24 L2310.44,1585.92 L2322.49,1597.97 L2338.35,1608.75 L2358.65,1620.81 L2358.65,1623.98 L2357.65,1624.62 L2341.52,1634.77 L2314.88,1622.08 L2312.34,1630.33 L2301.55,1627.79 L2276.81,1648.72 L2267.29,1669.66 L2265.39,1672.2 L2233.04,1677.27 L2213.37,1693.77 L2161.11,1738.28 L2160.38,1737.25 L2155.18,1732.85 L2143.57,1725.65 L2138.77,1718.45 L2137.17,1708.05 L2129.97,1704.85 L2122.77,1702.85 L2117.57,1694.45 L2114.37,1686.44 L2110.37,1682.44 L2111.97,1678.84 L2106.37,1671.24 L2103.57,1663.47 L2115.17,1650.44 L2109.97,1644.84 L2094.77,1634.84 L2094.3,1634.74 L2080.76,1632.04 L2079.84,1632.55 L2077.16,1634.04 L2064.76,1635.64 L2058.36,1630.04" shape-rendering="optimizeSpeed" vector-effect="non-scaling-stroke"/>
   <path fill-rule="evenodd" d="M1170.79,492.189 L1174.21,494.996 L1178.91,494.996 L1194.19,503.418 L1206.04,506.225 L1219.16,509.356 L1225.39,509.968 L1229.15,514.97 L1238.51,513.711 L1246.62,519.325 L1248.8,522.762 L1251.3,528.7 L1255.35,535.25 L1252.87,544.607 L1246.3,550.851 L1242.56,557.095 L1239.44,564.58 L1239.14,570.824 L1233.83,574.567 L1226.34,578.616 L1224.15,577.068 L1208.85,577.374 L1200.12,575.809 L1192.32,577.374 L1187.01,585.49 L1183.89,588.926 L1176.41,593.282 L1179.21,604.204 L1181.72,620.129 L1180.78,629.486 L1174.54,640.715 L1161.74,641.974 L1150.19,637.907 L1138.66,630.115 L1134.03,623.191 L1133.96,617.321 L1138.66,611.384 L1144.58,605.769 L1150.19,597.654 L1152.39,592.669 L1151.76,587.361 L1149.25,582.359 L1150.51,578.004 L1150.51,576.745 L1154.26,569.889 L1162.98,558.66 L1167.36,547.414 L1164.55,540.864 L1159.24,536.815 L1157.34,538.142 L1155.16,538.142 L1153.63,536.815 L1146.14,530.571 L1137.72,527.441 L1130.54,524.633 L1126.47,526.199 L1122.9,526.199 L1123.04,525.263 L1111.2,522.762 L1103.08,530.877 L1095.9,536.815 L1086.22,540.235 L1077.8,543.042 L1072.49,538.057 L1066.88,540.558 L1055.95,539.622 L1048.16,540.558 L1043.35,540.558 L1039.72,534.008 L1041.6,529.635 L1040.98,526.505 L1042.53,523.698 L1040.66,518.39 L1041.29,511.227 L1045.66,504.66 L1050.65,499.981 L1051.58,499.981 L1055.02,498.433 L1056.26,495.303 L1050.03,491.866 L1053.45,489.994 L1054.71,485.639 L1056.89,484.38 L1066.57,482.832 L1074.99,482.202 L1081.85,480.331 L1086.85,480.943 L1093.09,481.573 L1094.34,478.766 L1098.08,478.46 L1100.58,480.008 L1105.26,481.267 L1107.13,475.959 L1116.81,474.393 L1126.8,472.522 L1133.96,473.151 L1142.08,475.329 L1144.58,483.444 L1155.8,489.382 L1162.98,492.495 L1170.79,492.189" shape-rendering="optimizeSpeed" vector-effect="non-scaling-stroke"/>
   <path fill-rule="evenodd" d="M2099.12,950.066 L2085.54,967.028 L2071.66,979.38 L2060.86,984.926 L2050.05,986.168 L2040.48,988.941 L2034.93,994.811 L2021.96,1000.05 L2004.37,997.584 L1995.12,993.892 L1989.25,993.569 L1983.7,988.941 L1979.99,973.204 L1981.54,967.964 L1985.86,965.497 L1985.86,955.919 L1986.17,946.357 L1990.18,942.648 L1987.36,932.491 L1991.72,930.314 L1999.75,926.911 L2007.78,921.977 L2016.42,914.883 L2023.51,906.852 L2023.51,903.467 L2030,899.758 L2034.62,901.919 L2038.64,900.37 L2047.89,899.758 L2050.05,896.355 L2059.92,895.743 L2063.32,887.713 L2071.03,880.312 L2079.67,880.924 L2089.56,886.181 L2095.1,885.875 L2105.3,880.618 L2110.54,879.699 L2123.19,888.342 L2121.34,896.355 L2122.58,908.094 L2112.7,921.977 L2107.15,936.796 L2099.12,950.066" shape-rendering="optimizeSpeed" vector-effect="non-scaling-stroke"/>
   <path fill-rule="evenodd" d="M1711.03,555.529 L1710.49,560.31 L1707.36,562.896 L1702.76,565.465 L1697.06,565.652 L1693.39,565.278 L1692.1,563.066 L1689.7,563.815 L1685.85,564.172 L1681.07,567.115 L1682.91,572.628 L1680.51,574.278 L1675.73,574.839 L1670.4,575.384 L1667.27,578.701 L1660.3,579.059 L1656.98,578.889 L1652.93,576.864 L1655.87,574.465 L1658.27,573.189 L1655.69,572.27 L1653.49,567.847 L1651.09,564.904 L1652.57,560.31 L1654.96,555.172 L1654.41,551.123 L1654.22,548.554 L1649.82,544.505 L1650.17,541.374 L1651.71,537.836 L1656.61,536.594 L1665.81,541.017 L1670.95,546.529 L1681.62,551.123 L1684.18,552.229 L1687.31,550.204 L1695.58,551.31 L1697.61,552.96 L1708.28,553.692 L1711.03,555.529" shape-rendering="optimizeSpeed" vector-effect="non-scaling-stroke"/>
   <path fill-rule="evenodd" d="M422.059,640.817 L421.072,645.206 L414.743,643.267 L412.055,643.743 L411.323,648.132 L409.384,650.82 L406.457,655.686 L403.531,658.136 L401.081,654.716 L403.769,650.82 L403.769,643.743 L404.501,640.817 L408.159,640.34 L412.055,640.085 L412.31,638.384 L409.86,635.951 L415.713,633.756 L413.773,631.306 L410.847,629.86 L407.189,625.471 L407.665,622.783 L409.384,620.095 L409.129,614.497 L411.085,612.541 L414.505,611.316 L419.132,608.645 L422.535,611.69 L422.535,614.974 L422.535,618.393 L423.267,620.588 L427.418,622.051 L430.582,624.977 L432.539,626.934 L431.807,627.172 L430.106,630.337 L434.24,631.8 L437.166,634.488 L434.495,637.414 L429.612,637.159 L426.686,635.696 L422.535,635.951 L421.327,638.146 L422.059,640.817" shape-rendering="optimizeSpeed" vector-effect="non-scaling-stroke"/>
   <path fill-rule="evenodd" d="M1613.49,1164.36 L1609.5,1159.96 L1608.7,1158.77 L1608.7,1153.56 L1617.9,1148.76 L1621.49,1145.96 L1632.29,1147.56 L1635.1,1153.56 L1637.5,1160.37 L1639.9,1169.57 L1637.5,1172.77 L1632.29,1172.77 L1627.89,1169.96 L1620.69,1169.96 L1616.69,1166.76 L1613.49,1164.36" shape-rendering="optimizeSpeed" vector-effect="non-scaling-stroke"/>
   <path fill-rule="evenodd" d="M1257.51,544.267 L1257.51,543.229 L1258.12,541.289 L1259.09,539.282 L1260.01,538.193 L1260.5,537.597 L1263.46,534.62 L1269.08,531.813 L1273.45,530.571 L1279.39,530.571 L1283.74,530.571 L1284.42,530.724 L1287.11,532.085 L1291.16,534.042 L1292.45,535.216 L1294.11,536.951 L1293.12,538.686 L1290.92,542.106 L1286.55,543.042 L1279.7,544.913 L1273.14,547.737 L1266.9,547.737 L1261.59,547.737 L1258.75,545.747 L1257.82,545.39 L1257.51,544.267" shape-rendering="optimizeSpeed" vector-effect="non-scaling-stroke"/>
   <path fill-rule="evenodd" d="M1609.61,1568 L1605.3,1562.69 L1605.13,1559.21 L1607.74,1550.8 L1610.61,1548.93 L1614.75,1546.78 L1619.23,1546.45 L1625.19,1548.27 L1628.84,1553.41 L1627.18,1559.38 L1627.18,1562.03 L1629.83,1564.19 L1627.02,1570.15 L1623.54,1570.32 L1621.05,1569.82 L1616.57,1570.82 L1611.77,1570.48 L1609.61,1568" shape-rendering="optimizeSpeed" vector-effect="non-scaling-stroke"/>
   <path fill-rule="evenodd" d="M1778.51,552.229 L1782.72,550.936 L1786.21,552.229 L1786.04,553.692 L1784.38,556.635 L1782.18,557.01 L1778.86,555.717 L1777.59,554.985 L1775.56,555.359 L1773.9,556.448 L1770.22,557.554 L1765.81,558.115 L1762.68,558.115 L1760.66,557.367 L1757.36,555.172 L1755.88,552.773 L1755.15,548.911 L1757.21,543.722 L1762.33,541.374 L1766,540.643 L1767.65,541.017 L1771.14,542.123 L1773.35,544.131 L1772.81,547.261 L1772.98,551.497 L1775.73,549.66 L1777.4,551.123 L1778.51,552.229" shape-rendering="optimizeSpeed" vector-effect="non-scaling-stroke"/>
   <path fill-rule="evenodd" d="M1033.8,556.465 L1029.43,553.658 L1025.06,549.286 L1023.51,548.044 L1019.14,544.301 L1019.14,535.879 L1020.07,535.556 L1030.06,536.815 L1033.17,538.057 L1037.55,541.493 L1041.34,542.497 L1044.54,551.616 L1040.66,554.594 L1039.11,553.352 L1035.98,554.287 L1033.8,556.465" shape-rendering="optimizeSpeed" vector-effect="non-scaling-stroke"/>
   <path fill-rule="evenodd" d="M1883.49,1493.43 L1884.21,1490.8 L1889.76,1487.48 L1893.36,1489.69 L1894.74,1493.57 L1894.47,1498.28 L1890.59,1502.71 L1888.38,1505.21 L1885.88,1506.86 L1882.83,1506.86 L1882,1503.54 L1882.56,1499.39 L1882.56,1496.62 L1884.21,1494.68 L1883.49,1493.43" shape-rendering="optimizeSpeed" vector-effect="non-scaling-stroke"/>
   <path fill-rule="evenodd" d="M1585.09,1162.77 L1583.09,1158.37 L1586.69,1155.56 L1589.89,1160.77 L1593.49,1161.57 L1595.09,1164.77 L1592.29,1167.57 L1591.89,1171.17 L1586.69,1171.17 L1585.09,1170.77 L1585.09,1168.37 L1587.89,1168.37 L1588.29,1165.97 L1585.09,1162.77" shape-rendering="optimizeSpeed" vector-effect="non-scaling-stroke"/>
   <path fill-rule="evenodd" d="M1965.91,1612.65 L1967.31,1611.13 L1971.72,1614.31 L1973.39,1616.8 L1975.05,1619.29 L1973.11,1619.57 L1969.23,1618.74 L1967.02,1617.63 L1965.35,1615.42 L1965.91,1612.65" shape-rendering="optimizeSpeed" vector-effect="non-scaling-stroke"/>
   <path fill-rule="evenodd" d="M1955.1,1594.65 L1957.71,1593.1 L1960.38,1593.81 L1963.13,1595.75 L1963.69,1596.86 L1963.42,1601.03 L1961.48,1601.03 L1958.44,1600.46 L1955.66,1598.25 L1955.1,1596.04 L1955.1,1594.65" shape-rendering="optimizeSpeed" vector-effect="non-scaling-stroke"/>
   <path fill-rule="evenodd" d="M1882.83,1514.62 L1884.63,1513.24 L1885.04,1513.24 L1887.54,1514.34 L1888.92,1519.33 L1888.92,1520.43 L1885.04,1521 L1882.56,1520.43 L1881.72,1519.06 L1881.45,1518.22 L1881.45,1517.12 L1882.83,1514.62" shape-rendering="optimizeSpeed" vector-effect="non-scaling-stroke"/>

                 </g>
 <defs/>
 <g fill-rule="evenodd" id="Sous le Vent" stroke="black" fill="none" stroke-linecap="square" inkscape:groupmode="layer" stroke-width="1" stroke-linejoin="bevel" inkscape:label="Sous le Vent">

    
   <path fill-rule="evenodd" d="M2058.36,1630.04 L2057.56,1622.84 L2035.16,1610.03 L2013.95,1591.23 L2010.35,1582.83 L2007.28,1577.41 L2003.56,1570.83 L1999.56,1562.03 L1997.55,1550.02 L1999.95,1538.03 L2005.96,1533.23 L2015.16,1529.21 L2025.16,1530.83 L2035.56,1534.03 L2045.15,1540.42 L2049.15,1547.41 L2051.56,1551.62 L2045.56,1560.83 L2051.56,1565.63 L2057.96,1570.43 L2062.36,1578.43 L2071.56,1591.63 L2087.16,1580.03 L2087.16,1576.43 L2082.76,1571.23 L2073.16,1560.83 L2067.56,1554.42 L2064.36,1550.42 L2062.76,1542.42 L2061.96,1537.62 L2056.76,1530.02 L2051.96,1523.22 L2044.76,1514.82 L2044.12,1514.13 L2033.96,1503.22 L2023.56,1493.62 L2017.82,1488.74 L2017.15,1483.21 L2011.95,1478.81 L2006.75,1465.21 L2009.15,1464.81 L2010.35,1466.81 L2012.75,1466.81 L2015.95,1470.81 L2018.75,1470.01 L2017.77,1459.73 L2025.96,1457.61 L2025.96,1446.81 L2020.35,1438.81 L2018.23,1437.74 L2014.92,1432.52 L2004.44,1424.76 L1995.18,1418.23 L1988.52,1413.71 L1987.15,1412.78 L1978.98,1413.32 L1971.36,1409.38 L1968.91,1400.12 L1967.5,1394.33 L1969.55,1386.4 L1967.29,1381.21 L1967.54,1377.79 L1964.55,1372.89 L1961.01,1368.67 L1951.07,1365.4 L1944.53,1366.73 L1943.54,1366.4 L1931.94,1368 L1921.14,1370.4 L1915.14,1373.6 L1910.28,1372.67 L1906.74,1372 L1894.34,1371.6 L1890.34,1373.2 L1886.06,1371.77 L1880,1366.08 L1875.37,1358.73 L1869.79,1348.65 L1863.25,1343.62 L1855.09,1337.9 L1846.51,1333 L1842.29,1323.06 L1833.57,1321.7 L1833.12,1321.25 L1825.96,1314.22 L1817.02,1308.98 L1815.53,1305.98 L1814.32,1298.39 L1812.33,1294.38 L1812.33,1289.58 L1802.32,1291.18 L1790.94,1290.31 L1790.94,1284.82 L1787.11,1284.82 L1789.51,1282.78 L1794.33,1276.38 L1786.31,1265.18 L1771.12,1257.58 L1757.51,1254.77 L1748.72,1251.98 L1741.91,1245.18 L1735.1,1242.78 L1731.11,1239.17 L1732.31,1231.98 L1732.31,1221.58 L1733.11,1212.77 L1732.71,1205.57 L1727.52,1198.37 L1723.83,1199.21 L1727.11,1191.57 L1724.71,1184.76 L1718.31,1178.77 L1713.11,1175.17 L1707.9,1170.37 L1704.7,1170.37 L1697.51,1172.77 L1689.1,1169.96 L1682.3,1166.76 L1677.11,1164.77 L1671.9,1168.77 L1665.5,1168.77 L1661.51,1165.57 L1660.71,1160.76 L1657.51,1159.16 L1653.9,1156.37 L1653.1,1152.37 L1654.29,1149.97 L1659.91,1147.16 L1664.3,1147.16 L1667.49,1147.56 L1670.71,1150.36 L1673.5,1149.56 L1675.51,1147.56 L1678.3,1147.16 L1685.51,1147.16 L1689.1,1144.77 L1692.3,1142.37 L1698.31,1139.97 L1711.51,1139.56 L1722.7,1139.56 L1734.71,1140.77 L1741.52,1138.76 L1746.32,1133.6 L1748.36,1133.6 L1748.36,1130.32 L1754.72,1117.95 L1757.92,1103.95 L1757.51,1088.76 L1755.11,1082.36 L1750.71,1076.36 L1745.91,1075.15 L1745.91,1069.96 L1740.31,1063.54 L1733.51,1058.36 L1727.52,1058.75 L1723.91,1055.96 L1716.71,1054.36 L1711.51,1052.74 L1705.5,1051.94 L1698.31,1053.56 L1688.3,1057.15 L1686.31,1053.95 L1681.9,1047.94 L1681.5,1044.74 L1685.51,1042.35 L1698.71,1036.34 L1712.31,1025.94 L1727.11,1019.14 L1745.52,1014.75 L1758.72,1013.15 L1766.32,1015.94 L1774.71,1015.14 L1770.71,1024.74 L1774.71,1033.55 L1781.52,1039.15 L1783.52,1051.55 L1787.52,1054.75 L1784.72,1064.75 L1781.93,1073.55 L1779.92,1081.15 L1773.91,1081.95 L1769.52,1085.56 L1779.53,1092.76 L1791.11,1095.56 L1797.92,1098.35 L1806.32,1105.55 L1808.33,1117.95 L1808.72,1133.16 L1814.73,1142.76 L1818.72,1148.76 L1827.52,1161.17 L1838.32,1170.76 L1841.26,1170.4 L1847.93,1169.57 L1863.13,1162.77 L1865.93,1157.57 L1860.43,1147.82 L1861.81,1147.82 L1861.81,1143.02 L1866.55,1143.02 L1866.55,1137.16 L1881.13,1136.36 L1883.53,1140.36 L1894.74,1155.56 L1898.74,1161.97 L1897.94,1172.77 L1912.34,1181.17 L1935.94,1183.97 L1955.15,1182.77 L1963.64,1180.82 L1965.78,1180.82 L1965.78,1180.33 L1974.35,1178.37 L1979.51,1176.33 L1991.55,1171.57 L1995.15,1167.97 L1993.86,1152.59 L1996.75,1150.36 L1999.95,1145.96 L2007.55,1145.16 L2017.15,1142.76 L2030.36,1137.96 L2037.56,1134.36 L2050.36,1130.36 L2055.09,1128.87 L2059.65,1128.87 L2068.36,1133.56 L2075.96,1145.16 L2079.56,1159.17 L2081.56,1173.97 L2085.56,1187.17 L2087.16,1205.17 L2091.97,1215.17 L2096.77,1215.57 L2104.07,1220.5 L2113.97,1227.18 L2117,1227.59 L2117,1228.1 L2120.77,1228.1 L2121.74,1228.1 L2121.74,1227.62 L2130.77,1223.17 L2138.37,1218.37 L2149.97,1214.77 L2165.18,1221.97 L2169.18,1226.78 L2167.98,1236.78 L2172.78,1247.58 L2177.18,1253.58 L2170.78,1262.38 L2165.18,1267.58 L2165.98,1262.38 L2159.98,1262.38 L2155.18,1267.18 L2154.75,1277.08 L2154.38,1285.98 L2163.18,1301.59 L2168.81,1309.51 L2173.98,1316.79 L2185.18,1332.39 L2195.58,1337.19 L2207.18,1331.59 L2219.98,1325.99 L2232.79,1331.19 L2241.19,1335.99 L2237.99,1349.19 L2240.79,1358 L2244.39,1365.2 L2239.99,1373.2 L2233.99,1378.4 L2229.03,1382.6 L2220.79,1389.6 L2218.88,1405.96 L2218.78,1406.8 L2226.79,1422.81 L2230.45,1426.37 L2230.45,1426.6 L2230.68,1426.6 L2235.18,1430.98 L2235.18,1431.34 L2235.55,1431.34 L2240.24,1435.9 L2241.59,1437.21 L2263.54,1449.3 L2263.54,1450.22 L2265.22,1450.22 L2269.19,1452.41 L2288.4,1459.61 L2297.2,1456.19 L2299.02,1462.84 L2302.82,1467.28 L2302.82,1474.89 L2299.65,1496.46 L2296.48,1511.05 L2293.29,1516.97 L2287.6,1527.55 L2287.6,1542.14 L2293.94,1556.73 L2298.77,1562.25 L2302.82,1566.88 L2299.65,1571.96 L2299.87,1572.24 L2310.44,1585.92 L2322.49,1597.97 L2338.35,1608.75 L2358.65,1620.81 L2358.65,1623.98 L2357.65,1624.62 L2341.52,1634.77 L2314.88,1622.08 L2312.34,1630.33 L2301.55,1627.79 L2276.81,1648.72 L2267.29,1669.66 L2265.39,1672.2 L2233.04,1677.27 L2213.37,1693.77 L2161.11,1738.28 L2160.38,1737.25 L2155.18,1732.85 L2143.57,1725.65 L2138.77,1718.45 L2137.17,1708.05 L2129.97,1704.85 L2122.77,1702.85 L2117.57,1694.45 L2114.37,1686.44 L2110.37,1682.44 L2111.97,1678.84 L2106.37,1671.24 L2103.57,1663.47 L2115.17,1650.44 L2109.97,1644.84 L2094.77,1634.84 L2094.3,1634.74 L2080.76,1632.04 L2079.84,1632.55 L2077.16,1634.04 L2064.76,1635.64 L2058.36,1630.04" shape-rendering="optimizeSpeed" vector-effect="non-scaling-stroke"/>
   <path fill-rule="evenodd" d="M1170.79,492.189 L1174.21,494.996 L1178.91,494.996 L1194.19,503.418 L1206.04,506.225 L1219.16,509.356 L1225.39,509.968 L1229.15,514.97 L1238.51,513.711 L1246.62,519.325 L1248.8,522.762 L1251.3,528.7 L1255.35,535.25 L1252.87,544.607 L1246.3,550.851 L1242.56,557.095 L1239.44,564.58 L1239.14,570.824 L1233.83,574.567 L1226.34,578.616 L1224.15,577.068 L1208.85,577.374 L1200.12,575.809 L1192.32,577.374 L1187.01,585.49 L1183.89,588.926 L1176.41,593.282 L1179.21,604.204 L1181.72,620.129 L1180.78,629.486 L1174.54,640.715 L1161.74,641.974 L1150.19,637.907 L1138.66,630.115 L1134.03,623.191 L1133.96,617.321 L1138.66,611.384 L1144.58,605.769 L1150.19,597.654 L1152.39,592.669 L1151.76,587.361 L1149.25,582.359 L1150.51,578.004 L1150.51,576.745 L1154.26,569.889 L1162.98,558.66 L1167.36,547.414 L1164.55,540.864 L1159.24,536.815 L1157.34,538.142 L1155.16,538.142 L1153.63,536.815 L1146.14,530.571 L1137.72,527.441 L1130.54,524.633 L1126.47,526.199 L1122.9,526.199 L1123.04,525.263 L1111.2,522.762 L1103.08,530.877 L1095.9,536.815 L1086.22,540.235 L1077.8,543.042 L1072.49,538.057 L1066.88,540.558 L1055.95,539.622 L1048.16,540.558 L1043.35,540.558 L1039.72,534.008 L1041.6,529.635 L1040.98,526.505 L1042.53,523.698 L1040.66,518.39 L1041.29,511.227 L1045.66,504.66 L1050.65,499.981 L1051.58,499.981 L1055.02,498.433 L1056.26,495.303 L1050.03,491.866 L1053.45,489.994 L1054.71,485.639 L1056.89,484.38 L1066.57,482.832 L1074.99,482.202 L1081.85,480.331 L1086.85,480.943 L1093.09,481.573 L1094.34,478.766 L1098.08,478.46 L1100.58,480.008 L1105.26,481.267 L1107.13,475.959 L1116.81,474.393 L1126.8,472.522 L1133.96,473.151 L1142.08,475.329 L1144.58,483.444 L1155.8,489.382 L1162.98,492.495 L1170.79,492.189" shape-rendering="optimizeSpeed" vector-effect="non-scaling-stroke"/>
   <path fill-rule="evenodd" d="M2099.12,950.066 L2085.54,967.028 L2071.66,979.38 L2060.86,984.926 L2050.05,986.168 L2040.48,988.941 L2034.93,994.811 L2021.96,1000.05 L2004.37,997.584 L1995.12,993.892 L1989.25,993.569 L1983.7,988.941 L1979.99,973.204 L1981.54,967.964 L1985.86,965.497 L1985.86,955.919 L1986.17,946.357 L1990.18,942.648 L1987.36,932.491 L1991.72,930.314 L1999.75,926.911 L2007.78,921.977 L2016.42,914.883 L2023.51,906.852 L2023.51,903.467 L2030,899.758 L2034.62,901.919 L2038.64,900.37 L2047.89,899.758 L2050.05,896.355 L2059.92,895.743 L2063.32,887.713 L2071.03,880.312 L2079.67,880.924 L2089.56,886.181 L2095.1,885.875 L2105.3,880.618 L2110.54,879.699 L2123.19,888.342 L2121.34,896.355 L2122.58,908.094 L2112.7,921.977 L2107.15,936.796 L2099.12,950.066" shape-rendering="optimizeSpeed" vector-effect="non-scaling-stroke"/>
   <path fill-rule="evenodd" d="M1711.03,555.529 L1710.49,560.31 L1707.36,562.896 L1702.76,565.465 L1697.06,565.652 L1693.39,565.278 L1692.1,563.066 L1689.7,563.815 L1685.85,564.172 L1681.07,567.115 L1682.91,572.628 L1680.51,574.278 L1675.73,574.839 L1670.4,575.384 L1667.27,578.701 L1660.3,579.059 L1656.98,578.889 L1652.93,576.864 L1655.87,574.465 L1658.27,573.189 L1655.69,572.27 L1653.49,567.847 L1651.09,564.904 L1652.57,560.31 L1654.96,555.172 L1654.41,551.123 L1654.22,548.554 L1649.82,544.505 L1650.17,541.374 L1651.71,537.836 L1656.61,536.594 L1665.81,541.017 L1670.95,546.529 L1681.62,551.123 L1684.18,552.229 L1687.31,550.204 L1695.58,551.31 L1697.61,552.96 L1708.28,553.692 L1711.03,555.529" shape-rendering="optimizeSpeed" vector-effect="non-scaling-stroke"/>
   <path fill-rule="evenodd" d="M422.059,640.817 L421.072,645.206 L414.743,643.267 L412.055,643.743 L411.323,648.132 L409.384,650.82 L406.457,655.686 L403.531,658.136 L401.081,654.716 L403.769,650.82 L403.769,643.743 L404.501,640.817 L408.159,640.34 L412.055,640.085 L412.31,638.384 L409.86,635.951 L415.713,633.756 L413.773,631.306 L410.847,629.86 L407.189,625.471 L407.665,622.783 L409.384,620.095 L409.129,614.497 L411.085,612.541 L414.505,611.316 L419.132,608.645 L422.535,611.69 L422.535,614.974 L422.535,618.393 L423.267,620.588 L427.418,622.051 L430.582,624.977 L432.539,626.934 L431.807,627.172 L430.106,630.337 L434.24,631.8 L437.166,634.488 L434.495,637.414 L429.612,637.159 L426.686,635.696 L422.535,635.951 L421.327,638.146 L422.059,640.817" shape-rendering="optimizeSpeed" vector-effect="non-scaling-stroke"/>
   <path fill-rule="evenodd" d="M1613.49,1164.36 L1609.5,1159.96 L1608.7,1158.77 L1608.7,1153.56 L1617.9,1148.76 L1621.49,1145.96 L1632.29,1147.56 L1635.1,1153.56 L1637.5,1160.37 L1639.9,1169.57 L1637.5,1172.77 L1632.29,1172.77 L1627.89,1169.96 L1620.69,1169.96 L1616.69,1166.76 L1613.49,1164.36" shape-rendering="optimizeSpeed" vector-effect="non-scaling-stroke"/>
   <path fill-rule="evenodd" d="M1257.51,544.267 L1257.51,543.229 L1258.12,541.289 L1259.09,539.282 L1260.01,538.193 L1260.5,537.597 L1263.46,534.62 L1269.08,531.813 L1273.45,530.571 L1279.39,530.571 L1283.74,530.571 L1284.42,530.724 L1287.11,532.085 L1291.16,534.042 L1292.45,535.216 L1294.11,536.951 L1293.12,538.686 L1290.92,542.106 L1286.55,543.042 L1279.7,544.913 L1273.14,547.737 L1266.9,547.737 L1261.59,547.737 L1258.75,545.747 L1257.82,545.39 L1257.51,544.267" shape-rendering="optimizeSpeed" vector-effect="non-scaling-stroke"/>
   <path fill-rule="evenodd" d="M1609.61,1568 L1605.3,1562.69 L1605.13,1559.21 L1607.74,1550.8 L1610.61,1548.93 L1614.75,1546.78 L1619.23,1546.45 L1625.19,1548.27 L1628.84,1553.41 L1627.18,1559.38 L1627.18,1562.03 L1629.83,1564.19 L1627.02,1570.15 L1623.54,1570.32 L1621.05,1569.82 L1616.57,1570.82 L1611.77,1570.48 L1609.61,1568" shape-rendering="optimizeSpeed" vector-effect="non-scaling-stroke"/>
   <path fill-rule="evenodd" d="M1778.51,552.229 L1782.72,550.936 L1786.21,552.229 L1786.04,553.692 L1784.38,556.635 L1782.18,557.01 L1778.86,555.717 L1777.59,554.985 L1775.56,555.359 L1773.9,556.448 L1770.22,557.554 L1765.81,558.115 L1762.68,558.115 L1760.66,557.367 L1757.36,555.172 L1755.88,552.773 L1755.15,548.911 L1757.21,543.722 L1762.33,541.374 L1766,540.643 L1767.65,541.017 L1771.14,542.123 L1773.35,544.131 L1772.81,547.261 L1772.98,551.497 L1775.73,549.66 L1777.4,551.123 L1778.51,552.229" shape-rendering="optimizeSpeed" vector-effect="non-scaling-stroke"/>
   <path fill-rule="evenodd" d="M1033.8,556.465 L1029.43,553.658 L1025.06,549.286 L1023.51,548.044 L1019.14,544.301 L1019.14,535.879 L1020.07,535.556 L1030.06,536.815 L1033.17,538.057 L1037.55,541.493 L1041.34,542.497 L1044.54,551.616 L1040.66,554.594 L1039.11,553.352 L1035.98,554.287 L1033.8,556.465" shape-rendering="optimizeSpeed" vector-effect="non-scaling-stroke"/>
   <path fill-rule="evenodd" d="M1883.49,1493.43 L1884.21,1490.8 L1889.76,1487.48 L1893.36,1489.69 L1894.74,1493.57 L1894.47,1498.28 L1890.59,1502.71 L1888.38,1505.21 L1885.88,1506.86 L1882.83,1506.86 L1882,1503.54 L1882.56,1499.39 L1882.56,1496.62 L1884.21,1494.68 L1883.49,1493.43" shape-rendering="optimizeSpeed" vector-effect="non-scaling-stroke"/>
   <path fill-rule="evenodd" d="M1585.09,1162.77 L1583.09,1158.37 L1586.69,1155.56 L1589.89,1160.77 L1593.49,1161.57 L1595.09,1164.77 L1592.29,1167.57 L1591.89,1171.17 L1586.69,1171.17 L1585.09,1170.77 L1585.09,1168.37 L1587.89,1168.37 L1588.29,1165.97 L1585.09,1162.77" shape-rendering="optimizeSpeed" vector-effect="non-scaling-stroke"/>
   <path fill-rule="evenodd" d="M1965.91,1612.65 L1967.31,1611.13 L1971.72,1614.31 L1973.39,1616.8 L1975.05,1619.29 L1973.11,1619.57 L1969.23,1618.74 L1967.02,1617.63 L1965.35,1615.42 L1965.91,1612.65" shape-rendering="optimizeSpeed" vector-effect="non-scaling-stroke"/>
   <path fill-rule="evenodd" d="M1955.1,1594.65 L1957.71,1593.1 L1960.38,1593.81 L1963.13,1595.75 L1963.69,1596.86 L1963.42,1601.03 L1961.48,1601.03 L1958.44,1600.46 L1955.66,1598.25 L1955.1,1596.04 L1955.1,1594.65" shape-rendering="optimizeSpeed" vector-effect="non-scaling-stroke"/>
   <path fill-rule="evenodd" d="M1882.83,1514.62 L1884.63,1513.24 L1885.04,1513.24 L1887.54,1514.34 L1888.92,1519.33 L1888.92,1520.43 L1885.04,1521 L1882.56,1520.43 L1881.72,1519.06 L1881.45,1518.22 L1881.45,1517.12 L1882.83,1514.62" shape-rendering="optimizeSpeed" vector-effect="non-scaling-stroke"/>

                 </g>
 <defs/>
 <g fill-rule="evenodd" id="Au Vent" stroke="black" fill="none" stroke-linecap="square" inkscape:groupmode="layer" stroke-width="1" stroke-linejoin="bevel" inkscape:label="Au Vent">

    
   <path fill-rule="evenodd" d="M2328.8,1797.66 L2326.4,1804.46 L2323.6,1810.86 L2320,1822.07 L2320.4,1828.87 L2320,1838.87 L2314,1838.07 L2312.4,1836.87 L2311.2,1841.27 L2310.4,1844.47 L2304.4,1847.27 L2304.4,1854.87 L2303.6,1864.07 L2300.8,1867.67 L2301.6,1872.47 L2300,1875.27 L2296,1878.47 L2289.6,1879.67 L2283.19,1879.67 L2279.59,1876.87 L2269.99,1877.27 L2271.19,1872.87 L2263.19,1869.27 L2260.39,1870.47 L2251.19,1868.87 L2255.59,1862.47 L2247.99,1857.67 L2245.99,1856.07 L2238.79,1860.07 L2238.79,1856.07 L2236.39,1852.87 L2232.39,1849.67 L2235.99,1844.87 L2236.79,1838.07 L2238.39,1831.67 L2241.19,1821.67 L2236.39,1814.46 L2215.18,1799.26 L2209.58,1803.66 L2207.58,1800.46 L2208.38,1796.46 L2207.58,1796.06 L2200.78,1791.66 L2201.98,1786.86 L2199.18,1780.86 L2194.38,1775.26 L2192.61,1776.84 L2192.61,1776.31 L2189.67,1776.31 L2194.78,1768.46 L2186.38,1762.86 L2188.38,1754.86 L2181.98,1747.25 L2170.78,1748.45 L2164.38,1742.85 L2161.11,1738.28 L2213.37,1693.77 L2233.04,1677.27 L2265.39,1672.2 L2267.29,1669.66 L2276.81,1648.72 L2301.55,1627.79 L2312.34,1630.33 L2314.88,1622.08 L2341.52,1634.77 L2357.65,1624.62 L2358.65,1623.98 L2358.65,1620.81 L2338.35,1608.75 L2322.49,1597.97 L2310.44,1585.92 L2299.87,1572.24 L2299.65,1571.96 L2302.82,1566.88 L2298.77,1562.25 L2293.94,1556.73 L2287.6,1542.14 L2287.6,1527.55 L2293.29,1516.97 L2296.48,1511.05 L2299.65,1496.46 L2302.82,1474.89 L2302.82,1467.28 L2299.02,1462.84 L2297.2,1456.19 L2302.8,1454.01 L2308.05,1450.22 L2314.1,1450.22 L2313.2,1451.61 L2310.4,1458.41 L2314.8,1464.81 L2322.8,1464.81 L2328.4,1464.4 L2329.68,1464.4 L2329.68,1463.64 L2338.4,1458.41 L2354.01,1450.01 L2361.21,1440.81 L2359.61,1436.01 L2351.6,1428.01 L2345.2,1420.4 L2344.4,1410.8 L2351.6,1403.2 L2362.01,1394.8 L2391.65,1367.89 L2395.69,1368.08 L2404.22,1367.39 L2404.36,1364.5 L2407.52,1360.51 L2413.58,1355.97 L2419.36,1352.39 L2426.24,1349.23 L2432.02,1347.92 L2437.66,1347.3 L2444.67,1346.47 L2450.45,1345.92 L2452.52,1348.68 L2454.86,1354.59 L2454.86,1357.21 L2449.08,1361.34 L2444.67,1364.36 L2445.14,1370.22 L2446.42,1372 L2457.22,1386.4 L2471.62,1391.6 L2482.38,1388.79 L2483.38,1388.79 L2486.84,1387.33 L2494.64,1390.11 L2501.25,1393.01 L2506.27,1394.73 L2516.45,1391.96 L2518.73,1390.99 L2518.73,1388.79 L2523.93,1388.79 L2525.83,1387.99 L2532.88,1384.62 L2532.88,1384.06 L2534.07,1384.06 L2534.68,1383.76 L2537.62,1382.09 L2537.62,1379.32 L2542.49,1379.32 L2551.77,1374.03 L2551.77,1370.49 L2552.29,1370.28 L2553.23,1369.91 L2556.5,1369.91 L2556.5,1368.6 L2557.46,1368.22 L2559.11,1365.17 L2561.24,1365.17 L2561.24,1361.25 L2564.24,1355.73 L2565.98,1355.73 L2565.98,1352.11 L2570.51,1341.55 L2570.72,1341.55 L2570.72,1341.06 L2572.44,1337.04 L2583.77,1323.68 L2588.71,1317.92 L2589.6,1317.92 L2589.6,1316.88 L2600.78,1303.85 L2615.35,1286.85 L2616.67,1284.79 L2621.83,1276.73 L2627.09,1260.13 L2626.28,1248.39 L2621.42,1235.43 L2620.21,1222.88 L2620.21,1220.05 L2620.61,1214.79 L2626.28,1207.91 L2633.97,1205.07 L2645.31,1204.26 L2649.76,1199 L2655.43,1190.5 L2661.9,1181.59 L2667.17,1175.52 L2672.43,1178.35 L2677.69,1184.83 L2681.74,1194.14 L2678.5,1202.64 L2680.53,1213.57 L2682.03,1220.08 L2682.95,1224.1 L2684.1,1223.37 L2686.19,1226.53 L2695.1,1226.12 L2698.74,1230.98 L2701.17,1235.84 L2701.3,1237.98 L2701.58,1242.72 L2702.39,1244.74 L2706.03,1245.96 L2712.91,1244.74 L2717.2,1244.74 L2717.2,1247.02 L2721.61,1247.02 L2725.06,1248.79 L2734.77,1244.74 L2737.06,1242.31 L2740.82,1242.31 L2740.82,1238.31 L2753.8,1224.5 L2765.54,1228.15 L2769.18,1220.05 L2762.3,1213.98 L2766.35,1206.69 L2772.83,1204.67 L2775.66,1204.67 L2779.71,1207.1 L2782.14,1209.93 L2783.33,1216.41 L2780.11,1220.05 L2778.09,1231.38 L2779.71,1242.32 L2781.01,1243.41 L2787.4,1248.79 L2800.35,1258.1 L2796.31,1263.37 L2789.42,1268.22 L2788.21,1275.92 L2779.3,1281.99 L2771.61,1286.44 L2768.37,1297.78 L2764.32,1303.44 L2755.42,1307.09 L2750.97,1313.16 L2755.82,1322.87 L2759.71,1323.65 L2759.71,1327.37 L2764.45,1327.37 L2764.45,1328.35 L2771.09,1332.07 L2773.92,1332.07 L2773.92,1333.66 L2775.44,1334.51 L2781.29,1335.4 L2786.44,1336.49 L2788.07,1336.67 L2790.9,1336.99 L2794.16,1336.79 L2797.73,1335.5 L2799.91,1334.11 L2800.8,1330.75 L2800.8,1325.69 L2800.66,1320.97 L2801.97,1317.61 L2808.45,1304.25 L2815.33,1294.54 L2825.45,1286.44 L2833.95,1286.44 L2835.71,1287.82 L2839.62,1290.89 L2849.45,1284.82 L2854.27,1284.82 L2854.27,1281.44 L2855.49,1280.12 L2859,1280.12 L2859,1276.32 L2863.51,1271.46 L2878.08,1271.46 L2884.96,1278.34 L2886.18,1289.27 L2878.48,1294.27 L2867.55,1290.89 L2865.13,1290.08 L2863.91,1301.42 L2867.55,1307.09 L2868.42,1308.98 L2868.42,1317.21 L2860.67,1323.68 L2860.67,1333 L2865.93,1344.74 L2878.48,1356.88 L2893.06,1363.76 L2902.37,1364.98 L2905.28,1360.43 L2915.66,1360.43 L2915.66,1357.5 L2916.89,1357.6 L2924.09,1347.59 L2929.29,1337.19 L2930.09,1320.39 L2929.62,1317.92 L2929.88,1317.92 L2929.88,1313.19 L2928.72,1313.19 L2928.49,1311.99 L2937.69,1306.39 L2947.69,1301.19 L2957.3,1295.59 L2964.9,1304.79 L2972.1,1310.79 L2978.5,1322.39 L2982.9,1337.99 L2984.5,1355.59 L2979.7,1369.6 L2972.5,1382 L2966.5,1396.8 L2971.3,1405.2 L2976.5,1411.6 L2986.6,1417.12 L2988.38,1417.12 L3005.48,1417.12 L3014.5,1412.8 L3018.51,1404 L3015.7,1396.4 L3014.5,1390 L3016.91,1384 L3023.31,1384 L3030.91,1380 L3041.71,1376.8 L3043.56,1374.58 L3052.73,1374.58 L3052.73,1368.59 L3062.51,1360 L3080.11,1345.19 L3084.12,1337.59 L3084.12,1332.79 L3088.57,1327.37 L3096.97,1327.37 L3099.98,1327.37 L3099.98,1332.07 L3100.98,1332.07 L3099.72,1342.79 L3105.32,1348.39 L3106.12,1360.8 L3106.92,1367.2 L3101.72,1376 L3093.32,1384 L3088.52,1398.8 L3088.52,1406.4 L3094.92,1413.6 L3099.32,1419.6 L3099.32,1430.01 L3094.52,1438.81 L3090.52,1444.01 L3089.72,1449.61 L3085.32,1460.81 L3079.71,1468.81 L3077.71,1472.81 L3070.51,1472.81 L3063.71,1480.01 L3061.31,1483.61 L3052.91,1487.61 L3049.31,1492.42 L3052.51,1502.02 L3060.91,1571.23 L3062.11,1580.03 L3063.16,1580.49 L3060.51,1588.43 L3051.31,1600.03 L3046.11,1609.63 L3039.31,1609.63 L3037.31,1607.63 L3032.11,1608.43 L3018.91,1600.03 L3019.31,1587.63 L3013.3,1576.03 L3005.3,1565.63 L2998.1,1558.03 L2990.5,1550.82 L2983.3,1551.22 L2971.7,1556.43 L2962.9,1560.43 L2956.1,1558.83 L2952.98,1559.54 L2945.69,1561.23 L2936.89,1566.83 L2926.49,1571.63 L2924.49,1578.43 L2918.09,1580.43 L2914.49,1580.43 L2909.29,1589.63 L2908.1,1590.76 L2903.6,1595.01 L2890.89,1600.03 L2882.08,1604.83 L2871.28,1613.63 L2854.48,1619.23 L2833.68,1623.64 L2814.47,1630.44 L2792.47,1638.04 L2768.47,1651.64 L2766.95,1652.78 L2758.87,1658.84 L2754.47,1668.04 L2752.87,1673.24 L2752.47,1676.04 L2754.47,1679.24 L2756.47,1682.04 L2754.87,1686.44 L2752.47,1689.25 L2754.47,1692.85 L2757.67,1701.25 L2753.67,1703.65 L2748.46,1705.65 L2744.46,1709.65 L2744.46,1723.25 L2742.86,1728.05 L2744.86,1733.25 L2742.86,1748.85 L2748.06,1756.46 L2751.27,1768.86 L2751.27,1773.26 L2749.66,1775.66 L2745.66,1777.66 L2740.86,1777.66 L2740.86,1780.86 L2740.06,1783.66 L2742.86,1793.66 L2738.86,1796.06 L2733.26,1798.86 L2729.26,1800.06 L2726.86,1802.86 L2723.66,1803.26 L2716.86,1807.66 L2712.46,1808.86 L2708.46,1810.86 L2704.46,1813.26 L2700.86,1814.86 L2694.86,1817.66 L2690.3,1820.23 L2685.66,1818.06 L2683.25,1810.06 L2674.05,1802.46 L2668.85,1792.46 L2664.45,1788.06 L2658.45,1786.86 L2653.65,1783.66 L2651.65,1773.66 L2652.45,1768.46 L2654.45,1759.26 L2654.45,1752.45 L2651.65,1746.85 L2647.25,1744.05 L2642.05,1744.85 L2634.45,1749.25 L2629.65,1750.05 L2625.25,1755.66 L2617.24,1752.05 L2614.84,1749.25 L2614.44,1745.65 L2617.64,1740.45 L2616.04,1737.25 L2614.04,1732.45 L2609.64,1721.25 L2603.24,1716.45 L2592.04,1715.25 L2580.04,1714.85 L2559.64,1722.45 L2535.63,1730.85 L2518.03,1741.65 L2518.9,1742.52 L2515.23,1744.85 L2514.43,1750.05 L2513.73,1752.33 L2511.23,1760.46 L2508.03,1766.06 L2506.43,1778.86 L2505.63,1794.86 L2506.83,1806.46 L2496.83,1807.26 L2487.63,1807.26 L2484.02,1805.66 L2482.42,1800.86 L2477.62,1791.66 L2471.62,1790.46 L2466.02,1796.86 L2461.62,1805.66 L2461.62,1814.06 L2462.42,1820.87 L2461.22,1826.47 L2460.02,1830.07 L2454.42,1835.27 L2452.02,1844.47 L2442.02,1848.07 L2441.52,1848.7 L2434.42,1844.87 L2433.22,1837.67 L2432.42,1828.87 L2429.62,1820.87 L2426.82,1816.86 L2419.5,1817.86 L2419.5,1814.12 L2415.98,1814.12 L2414.76,1811.75 L2414.76,1809.41 L2413.56,1809.41 L2411.21,1804.86 L2412.01,1797.26 L2409.61,1787.66 L2406.41,1783.66 L2401.21,1782.46 L2394.01,1779.26 L2389.61,1775.26 L2386.41,1769.66 L2385.21,1764.06 L2374.81,1764.86 L2363.21,1768.46 L2349.2,1774.06 L2338.4,1780.06 L2337.47,1789.12 L2337.2,1791.66 L2338,1798.86 L2335.2,1798.86 L2329.2,1794.06 L2328.8,1797.66" shape-rendering="optimizeSpeed" vector-effect="non-scaling-stroke"/>
   <path fill-rule="evenodd" d="M2405.29,808.516 L2405.29,811.068 L2405.29,812.259 L2404.64,812.259 L2403.01,815.287 L2404.3,817.669 L2403.81,820.357 L2403.84,821.701 L2405.29,821.701 L2405.29,824.304 L2400.03,830.463 L2395.8,833.168 L2379.62,828.932 L2368.83,829.306 L2361.51,831.62 L2360.36,835.856 L2351.31,846.217 L2350.73,845.877 L2342.26,843.955 L2333.02,844.329 L2322.23,850.488 L2312.99,859.743 L2306.05,871.295 L2295.27,881.316 L2288.34,880.159 L2277.55,871.295 L2276.01,863.213 L2277.16,851.27 L2283.71,837.013 L2289.87,831.229 L2291.85,821.701 L2300.66,821.225 L2306.82,823.147 L2310.8,826.04 L2310.8,826.397 L2311.29,826.397 L2315.31,829.306 L2320.31,830.089 L2324.44,826.397 L2324.94,826.397 L2324.94,825.955 L2330.7,820.834 L2333.41,816.989 L2332.98,815.883 L2334.94,815.066 L2341.49,807.733 L2347.65,795.807 L2351.51,795.416 L2354.59,800.418 L2358.44,799.652 L2362.3,795.025 L2371.14,792.711 L2373.85,795.025 L2379.24,803.497 L2390.79,800.418 L2399.66,798.887 L2404.27,802.34 L2405.29,808.516" shape-rendering="optimizeSpeed" vector-effect="non-scaling-stroke"/>
   <path fill-rule="evenodd" d="M2964.5,1191.57 L2956.09,1192.37 L2951.29,1195.18 L2945.7,1198.37 L2939.69,1198.37 L2934.09,1195.98 L2928.5,1194.38 L2923.7,1195.98 L2917.69,1201.96 L2916.89,1211.17 L2912.9,1211.97 L2913.29,1201.16 L2912.49,1193.17 L2915.3,1183.57 L2919.29,1172.77 L2923.29,1169.16 L2924.6,1166.71 L2925.15,1166.71 L2925.15,1165.67 L2926.9,1162.37 L2929.69,1159.96 L2930.45,1156.81 L2936.88,1153.56 L2943.3,1153.56 L2952.89,1152.37 L2960.5,1152.37 L2959.29,1150.77 L2959.29,1147.96 L2962.49,1147.56 L2964.91,1152.76 L2968.9,1159.57 L2970.5,1163.17 L2972.9,1170.76 L2976.1,1171.56 L2978.5,1174.76 L2980.1,1181.97 L2980.1,1189.17 L2977.7,1192.37 L2972.1,1191.18 L2969.7,1189.58 L2964.5,1191.57" shape-rendering="optimizeSpeed" vector-effect="non-scaling-stroke"/>
   <path fill-rule="evenodd" d="M2704.94,1936.53 L2709.2,1941.85 L2712.65,1949.81 L2713.18,1956.99 L2715.83,1963.1 L2720.09,1968.41 L2718.76,1973.73 L2721.68,1979.04 L2726.47,1981.7 L2728.59,1987.82 L2723.81,1987.82 L2715.56,1985.15 L2707.33,1980.37 L2705.2,1975.06 L2708.4,1970.28 L2703.07,1963.63 L2693.78,1959.12 L2687.93,1954.34 L2681.55,1947.16 L2679.97,1940.25 L2682.08,1935.2 L2687.4,1933.35 L2690.33,1933.35 L2690.55,1927.56 L2691.38,1927.56 L2695.37,1924.31 L2698.04,1924.84 L2700.76,1927.56 L2703.06,1927.56 L2703.06,1929.55 L2699.09,1935.2 L2704.94,1936.53" shape-rendering="optimizeSpeed" vector-effect="non-scaling-stroke"/>
   <path fill-rule="evenodd" d="M2617.89,761.423 L2617.95,761.764 L2618.31,762.478 L2619.42,763.176 L2620.93,762.87 L2621.22,762.206 L2622.7,763.397 L2622.36,764.639 L2623.01,765.353 L2623.11,767.123 L2623.72,768.943 L2623.72,770.236 L2622.23,771.07 L2617.73,768.637 L2617.36,769.198 L2621.1,773.877 L2622.04,776.497 L2622.41,780.427 L2621.85,785.854 L2622.23,790.346 L2619.79,791.282 L2616.61,791.469 L2612.31,795.586 L2605.57,794.089 L2601.26,792.404 L2600.35,792.098 L2600.72,789.665 L2599.29,788.866 L2598.56,788.628 L2597.44,789.036 L2596.72,788.866 L2595.85,788.219 L2595.8,787.454 L2594.97,786.756 L2594.31,786.62 L2593.52,786.858 L2592.45,787.743 L2592.2,787.845 L2591.28,787.93 L2590.5,787.777 L2590.19,787.079 L2590.17,786.875 L2590.77,785.922 L2590.12,785.429 L2589.61,785.599 L2588.06,785.293 L2586.33,784.953 L2583.61,784.646 L2582.45,783.898 L2582.24,783.898 L2582.18,783.166 L2581.53,782.809 L2580.71,783.132 L2579.83,782.401 L2579.42,780.852 L2579.08,779.951 L2579.37,777.994 L2581.8,775.561 L2583.54,775.187 L2585.17,775.51 L2586.72,776.412 L2588.45,776.99 L2591.82,780.342 L2592.38,780.41 L2592.59,779.815 L2593.03,779.321 L2592.66,778.794 L2591.74,778.062 L2591.41,776.65 L2590.8,776.004 L2589.95,775.8 L2589.19,775.834 L2588.81,774.949 L2589.13,774.387 L2590.05,774.626 L2586.67,771.07 L2587.04,767.888 L2588.73,766.391 L2591.91,764.894 L2592.25,764.673 L2594.71,763.023 L2595.94,763.482 L2596.62,764.35 L2599.77,764.707 L2603.32,763.023 L2608,762.835 L2610.81,763.21 L2614.18,761.525 L2615.37,761.491 L2614.77,760.198 L2615.42,759.841 L2616.13,760.607 L2617.39,760.454 L2617.89,761.423" shape-rendering="optimizeSpeed" vector-effect="non-scaling-stroke"/>
   <path fill-rule="evenodd" d="M2609.09,735.75 L2608.34,735.189 L2606.62,735.342 L2607.03,736.312 L2610.32,736.618 L2611.35,736.771 L2611.37,737.299 L2610.11,737.622 L2609.5,738.643 L2610.26,740.412 L2611.37,740.956 L2611.37,742.335 L2609.35,742.93 L2607.17,744.053 L2608.44,745.108 L2609.6,746.877 L2608.95,749.82 L2607.99,751.284 L2608.38,751.607 L2606.9,757.068 L2606.32,756.949 L2605.2,758.378 L2603.51,758.157 L2599.58,756.285 L2594.9,755.724 L2590.41,754.04 L2588.47,750.314 L2589.87,747.694 L2591.64,744.002 L2593.97,740.208 L2595.24,738.081 L2596.2,736.057 L2597.51,735.801 L2599.78,735.955 L2598.42,734.491 L2597.93,733.913 L2599.24,732.722 L2600.4,732.212 L2600.86,731.446 L2601.2,730.919 L2602.06,730.034 L2603.99,729.779 L2605.5,729.745 L2606.51,730.459 L2610.44,732.144 L2611.1,735.495 L2609.09,735.75" shape-rendering="optimizeSpeed" vector-effect="non-scaling-stroke"/>
   <path fill-rule="evenodd" d="M2720.62,2005.09 L2713.97,2001.1 L2711.05,1997.91 L2713.71,1992.86 L2716.68,1994.35 L2721.15,1991.8 L2727.26,1992.6 L2731.51,1997.65 L2734.97,2004.02 L2733.9,2007.48 L2727.26,2006.15 L2720.62,2005.09" shape-rendering="optimizeSpeed" vector-effect="non-scaling-stroke"/>
   <path fill-rule="evenodd" d="M2605.38,809.435 L2606.69,809.435 L2610.16,804.909 L2613.06,804.382 L2615.86,803.446 L2620.92,809.435 L2623.35,814.3 L2620.17,819.541 L2616.24,820.851 L2612.68,818.043 L2608.94,815.798 L2606.51,813.552 L2603.51,810.558 L2605.38,809.435" shape-rendering="optimizeSpeed" vector-effect="non-scaling-stroke"/>

                 </g>
 <metadata>
  <rdf:RDF xmlns:dc="http://purl.org/dc/elements/1.1/" xmlns:rdf="http://www.w3.org/1999/02/22-rdf-syntax-ns#" xmlns:rdfs="http://www.w3.org/2000/01/rdf-schema#">
   <rdf:Description dc:description="" dc:date="2023-12-04T13:17:32" dc:format="image/svg+xml" dc:title="" dc:identifier="">
    <dc:creator>
     <rdf:Bag>
      <rdf:li>C.D.Tyrrell</rdf:li>
     </rdf:Bag>
    </dc:creator>
    <dc:publisher>
     <rdf:Bag>
      <rdf:li>QGIS 3.24.3-Tisler</rdf:li>
     </rdf:Bag>
    </dc:publisher>
    <dc:subject>
     <rdf:Bag/>
    </dc:subject>
   </rdf:Description>
   <cc:Work rdf:about="">
    <dc:format>image/svg+xml</dc:format>
    <dc:title></dc:title>
    <dc:date>2023-12-04T13:17:32</dc:date>
    <dc:identifier></dc:identifier>
    <dc:description></dc:description>
    <dc:creator>
     <cc:Agent>
      <dc:title>C.D.Tyrrell</dc:title>
     </cc:Agent>
    </dc:creator>
    <dc:publisher>
     <cc:Agent>
      <dc:title>QGIS 3.24.3-Tisler</dc:title>
     </cc:Agent>
    </dc:publisher>
   </cc:Work>
  </rdf:RDF>
 </metadata>
</svg>
